<?xml version="1.0" encoding="UTF-8"?>
<svg xmlns="http://www.w3.org/2000/svg" viewBox="0 0 900 640" width="900" height="640" font-family="-apple-system, BlinkMacSystemFont, 'Segoe UI', 'Hiragino Sans', 'Noto Sans JP', sans-serif">
<!-- Bound-free edges & recombination continuum (Ch.19 §19.3-19.4) | CC BY 4.0 -->
<rect width="900" height="640" fill="#fafbfc"/>
<text x="450" y="38" text-anchor="middle" font-size="22" font-weight="700" fill="#0a1929" letter-spacing="0.05em">連続吸収端と再結合連続光 ― 同じしきい値が吸収端と放出端に</text>
<text x="450" y="62" text-anchor="middle" font-size="14" fill="#5a6a7a">水素の Lyman / Balmer / Paschen しきい値（模式図、横軸は波長・対数）</text>
<line x1="166.0" y1="100" x2="166.0" y2="560" stroke="#5a6a7a" stroke-width="1" stroke-dasharray="3,4" opacity="0.7"/>
<text x="166.0" y="94" text-anchor="middle" font-size="11" fill="#5a6a7a">Lyman</text>
<text x="166.0" y="594" text-anchor="middle" font-size="9" fill="#5a6a7a">912Å</text>
<line x1="459.5" y1="100" x2="459.5" y2="560" stroke="#5a6a7a" stroke-width="1" stroke-dasharray="3,4" opacity="0.7"/>
<text x="459.5" y="94" text-anchor="middle" font-size="11" fill="#5a6a7a">Balmer</text>
<text x="459.5" y="594" text-anchor="middle" font-size="9" fill="#5a6a7a">3646Å</text>
<line x1="631.3" y1="100" x2="631.3" y2="560" stroke="#5a6a7a" stroke-width="1" stroke-dasharray="3,4" opacity="0.7"/>
<text x="631.3" y="94" text-anchor="middle" font-size="11" fill="#5a6a7a">Paschen</text>
<text x="631.3" y="594" text-anchor="middle" font-size="9" fill="#5a6a7a">8204Å</text>
<line x1="778.0" y1="100" x2="778.0" y2="300" stroke="#d4a017" stroke-width="1" stroke-dasharray="2,3"/>
<text x="778.0" y="94" text-anchor="middle" font-size="10" fill="#9a7400">H⁻ 端 1.64μm</text>
<rect x="473.8" y="100" width="123.9" height="200" fill="#d4a017" fill-opacity="0.06"/>
<rect x="473.8" y="380" width="123.9" height="180" fill="#d4a017" fill-opacity="0.06"/>
<text x="535.7" y="292.0" text-anchor="middle" font-size="9" fill="#9a7400">可視</text>
<text x="116" y="116" text-anchor="start" font-size="13" fill="#1f4e79" font-weight="700">束縛-自由 吸収係数（恒星大気）</text>
<rect x="110" y="100" width="710" height="200" fill="none" stroke="#0a1929" stroke-width="1.5"/>
<path d="M110.0 237.3 L112.0 235.5 L113.9 233.7 L115.9 231.8 L117.9 229.9 L119.9 227.9 L121.8 225.9 L123.8 223.8 L125.8 221.6 L127.7 219.4 L129.7 217.1 L131.7 214.8 L133.7 212.3 L135.6 209.9 L137.6 207.3 L139.6 204.7 L141.6 202.0 L143.5 199.2 L145.5 196.3 L147.5 193.4 L149.4 190.4 L151.4 187.3 L153.4 184.1 L155.4 180.8 L157.3 177.4 L159.3 173.9 L161.3 170.4 L163.3 166.7 L165.2 162.9 L167.2 299.3 L169.2 299.2 L171.1 299.2 L173.1 299.2 L175.1 299.2 L177.1 299.2 L179.0 299.1 L181.0 299.1 L183.0 299.1 L184.9 299.1 L186.9 299.0 L188.9 299.0 L190.9 299.0 L192.8 299.0 L194.8 298.9 L196.8 298.9 L198.8 298.9 L200.7 298.8 L202.7 298.8 L204.7 298.8 L206.6 298.7 L208.6 298.7 L210.6 298.7 L212.6 298.6 L214.5 298.6 L216.5 298.5 L218.5 298.5 L220.4 298.4 L222.4 298.4 L224.4 298.4 L226.4 298.3 L228.3 298.3 L230.3 298.2 L232.3 298.2 L234.2 298.1 L236.2 298.1 L238.2 298.0 L240.2 297.9 L242.1 297.9 L244.1 297.8 L246.1 297.8 L248.1 297.7 L250.0 297.6 L252.0 297.6 L254.0 297.5 L255.9 297.4 L257.9 297.4 L259.9 297.3 L261.9 297.2 L263.8 297.1 L265.8 297.0 L267.8 297.0 L269.8 296.9 L271.7 296.8 L273.7 296.7 L275.7 296.6 L277.6 296.5 L279.6 296.4 L281.6 296.3 L283.6 296.2 L285.5 296.1 L287.5 296.0 L289.5 295.8 L291.4 295.7 L293.4 295.6 L295.4 295.5 L297.4 295.3 L299.3 295.2 L301.3 295.1 L303.3 294.9 L305.2 294.8 L307.2 294.6 L309.2 294.5 L311.2 294.3 L313.1 294.1 L315.1 294.0 L317.1 293.8 L319.1 293.6 L321.0 293.4 L323.0 293.2 L325.0 293.0 L326.9 292.8 L328.9 292.6 L330.9 292.4 L332.9 292.2 L334.8 292.0 L336.8 291.7 L338.8 291.5 L340.8 291.2 L342.7 291.0 L344.7 290.7 L346.7 290.4 L348.6 290.2 L350.6 289.9 L352.6 289.6 L354.6 289.3 L356.5 289.0 L358.5 288.6 L360.5 288.3 L362.4 288.0 L364.4 287.6 L366.4 287.2 L368.4 286.9 L370.3 286.5 L372.3 286.1 L374.3 285.6 L376.2 285.2 L378.2 284.8 L380.2 284.3 L382.2 283.9 L384.1 283.4 L386.1 282.9 L388.1 282.4 L390.1 281.9 L392.0 281.3 L394.0 280.8 L396.0 280.2 L397.9 279.6 L399.9 279.0 L401.9 278.4 L403.9 277.7 L405.8 277.1 L407.8 276.4 L409.8 275.7 L411.7 275.0 L413.7 274.2 L415.7 273.5 L417.7 272.7 L419.6 271.8 L421.6 271.0 L423.6 270.1 L425.6 269.3 L427.5 268.3 L429.5 267.4 L431.5 266.4 L433.4 265.4 L435.4 264.4 L437.4 263.4 L439.4 262.3 L441.3 261.2 L443.3 260.0 L445.3 258.8 L447.2 257.6 L449.2 256.4 L451.2 255.1 L453.2 253.8 L455.1 252.4 L457.1 251.0 L459.1 249.6 L461.1 293.2 L463.0 293.0 L465.0 292.7 L467.0 292.5 L468.9 292.2 L470.9 291.9 L472.9 291.6 L474.9 291.4 L476.8 291.1 L478.8 290.8 L480.8 290.5 L482.7 290.2 L484.7 289.9 L486.7 289.5 L488.7 289.2 L490.6 288.9 L492.6 288.5 L494.6 288.2 L496.6 287.8 L498.5 287.4 L500.5 287.1 L502.5 286.7 L504.4 286.3 L506.4 285.9 L508.4 285.5 L510.4 285.1 L512.3 284.7 L514.3 284.3 L516.3 283.9 L518.2 283.4 L520.2 283.0 L522.2 282.6 L524.2 282.1 L526.1 281.7 L528.1 281.2 L530.1 280.8 L532.1 280.3 L534.0 279.8 L536.0 279.3 L538.0 278.9 L539.9 278.4 L541.9 277.9 L543.9 277.4 L545.9 276.9 L547.8 276.4 L549.8 275.9 L551.8 275.4 L553.8 274.8 L555.7 274.3 L557.7 273.8 L559.7 273.3 L561.6 272.8 L563.6 272.2 L565.6 271.7 L567.6 271.2 L569.5 270.6 L571.5 270.1 L573.5 269.5 L575.4 269.0 L577.4 268.5 L579.4 267.9 L581.4 267.4 L583.3 266.8 L585.3 266.3 L587.3 265.7 L589.2 265.2 L591.2 264.6 L593.2 264.1 L595.2 263.5 L597.1 263.0 L599.1 262.4 L601.1 261.8 L603.1 261.3 L605.0 260.7 L607.0 260.2 L609.0 259.6 L610.9 259.1 L612.9 258.5 L614.9 257.9 L616.9 257.4 L618.8 256.8 L620.8 256.2 L622.8 255.7 L624.8 255.1 L626.7 254.5 L628.7 253.9 L630.7 253.4 L632.6 272.5 L634.6 272.4 L636.6 272.4 L638.6 272.4 L640.5 272.4 L642.5 272.4 L644.5 272.5 L646.4 272.5 L648.4 272.6 L650.4 272.6 L652.4 272.7 L654.3 272.8 L656.3 272.9 L658.3 273.0 L660.3 273.1 L662.2 273.2 L664.2 273.4 L666.2 273.5 L668.1 273.7 L670.1 273.8 L672.1 274.0 L674.1 274.2 L676.0 274.4 L678.0 274.6 L680.0 274.8 L681.9 275.0 L683.9 275.3 L685.9 275.5 L687.9 275.8 L689.8 276.0 L691.8 276.3 L693.8 276.5 L695.8 276.8 L697.7 277.1 L699.7 277.4 L701.7 277.7 L703.6 278.0 L705.6 278.3 L707.6 278.6 L709.6 278.9 L711.5 279.2 L713.5 279.6 L715.5 279.9 L717.4 280.2 L719.4 280.5 L721.4 280.9 L723.4 281.2 L725.3 281.5 L727.3 281.9 L729.3 282.2 L731.2 282.6 L733.2 282.9 L735.2 283.2 L737.2 283.6 L739.1 283.9 L741.1 284.3 L743.1 284.6 L745.1 284.9 L747.0 285.3 L749.0 285.6 L751.0 286.0 L752.9 286.3 L754.9 286.6 L756.9 286.9 L758.9 287.3 L760.8 287.6 L762.8 287.9 L764.8 288.2 L766.8 288.5 L768.7 288.8 L770.7 289.2 L772.7 289.5 L774.6 289.7 L776.6 290.0 L778.6 290.3 L780.6 290.6 L782.5 290.9 L784.5 291.2 L786.5 291.4 L788.4 291.7 L790.4 292.0 L792.4 292.2 L794.4 292.5 L796.3 292.7 L798.3 293.0 L800.3 293.2 L802.3 293.4 L804.2 293.6 L806.2 293.9 L808.2 294.1 L810.1 294.3 L812.1 294.5 L814.1 294.7 L816.1 294.9 L818.0 295.1 L820.0 295.3" fill="none" stroke="#1f4e79" stroke-width="2.6"/>
<text x="34" y="200" text-anchor="middle" font-size="12" fill="#0a1929" transform="rotate(-90 34 200)">σ_bf（吸収）</text>
<text x="271.4" y="250.0" text-anchor="middle" font-size="10" fill="#5a6a7a">各端で急に立ち上がり、短波長へ ∝ν⁻³ で減衰</text>
<text x="770.0" y="260.0" text-anchor="end" font-size="10" fill="#9a7400">H⁻ が可視を担う</text>
<text x="116" y="396" text-anchor="start" font-size="13" fill="#c43f6b" font-weight="700">自由-束縛 放出＝再結合連続光（星雲）</text>
<rect x="110" y="380" width="710" height="180" fill="none" stroke="#0a1929" stroke-width="1.5"/>
<path d="M110.0 559.1 L112.0 559.0 L113.9 558.7 L115.9 558.5 L117.9 558.2 L119.9 557.8 L121.8 557.4 L123.8 556.8 L125.8 556.2 L127.7 555.5 L129.7 554.6 L131.7 553.6 L133.7 552.4 L135.6 551.0 L137.6 549.3 L139.6 547.4 L141.6 545.1 L143.5 542.5 L145.5 539.4 L147.5 535.8 L149.4 531.6 L151.4 526.7 L153.4 521.0 L155.4 514.5 L157.3 506.9 L159.3 498.2 L161.3 488.1 L163.3 476.5 L165.2 463.2 L167.2 560.0 L169.2 560.0 L171.1 560.0 L173.1 560.0 L175.1 560.0 L177.1 560.0 L179.0 560.0 L181.0 560.0 L183.0 560.0 L184.9 560.0 L186.9 560.0 L188.9 560.0 L190.9 560.0 L192.8 560.0 L194.8 560.0 L196.8 560.0 L198.8 560.0 L200.7 560.0 L202.7 560.0 L204.7 560.0 L206.6 560.0 L208.6 560.0 L210.6 560.0 L212.6 560.0 L214.5 560.0 L216.5 560.0 L218.5 560.0 L220.4 560.0 L222.4 559.9 L224.4 559.9 L226.4 559.9 L228.3 559.9 L230.3 559.9 L232.3 559.9 L234.2 559.9 L236.2 559.9 L238.2 559.9 L240.2 559.9 L242.1 559.8 L244.1 559.8 L246.1 559.8 L248.1 559.8 L250.0 559.8 L252.0 559.7 L254.0 559.7 L255.9 559.7 L257.9 559.7 L259.9 559.6 L261.9 559.6 L263.8 559.5 L265.8 559.5 L267.8 559.5 L269.8 559.4 L271.7 559.3 L273.7 559.3 L275.7 559.2 L277.6 559.1 L279.6 559.1 L281.6 559.0 L283.6 558.9 L285.5 558.8 L287.5 558.7 L289.5 558.6 L291.4 558.5 L293.4 558.3 L295.4 558.2 L297.4 558.0 L299.3 557.9 L301.3 557.7 L303.3 557.5 L305.2 557.3 L307.2 557.1 L309.2 556.9 L311.2 556.7 L313.1 556.4 L315.1 556.1 L317.1 555.8 L319.1 555.5 L321.0 555.2 L323.0 554.9 L325.0 554.5 L326.9 554.1 L328.9 553.7 L330.9 553.2 L332.9 552.8 L334.8 552.3 L336.8 551.7 L338.8 551.2 L340.8 550.6 L342.7 550.0 L344.7 549.3 L346.7 548.6 L348.6 547.9 L350.6 547.1 L352.6 546.3 L354.6 545.5 L356.5 544.6 L358.5 543.6 L360.5 542.6 L362.4 541.6 L364.4 540.5 L366.4 539.3 L368.4 538.1 L370.3 536.8 L372.3 535.5 L374.3 534.1 L376.2 532.7 L378.2 531.1 L380.2 529.6 L382.2 527.9 L384.1 526.2 L386.1 524.3 L388.1 522.4 L390.1 520.5 L392.0 518.4 L394.0 516.3 L396.0 514.0 L397.9 511.7 L399.9 509.3 L401.9 506.8 L403.9 504.1 L405.8 501.4 L407.8 498.6 L409.8 495.7 L411.7 492.6 L413.7 489.4 L415.7 486.2 L417.7 482.8 L419.6 479.3 L421.6 475.6 L423.6 471.8 L425.6 467.9 L427.5 463.9 L429.5 459.7 L431.5 455.4 L433.4 450.9 L435.4 446.3 L437.4 441.6 L439.4 436.7 L441.3 431.6 L443.3 426.4 L445.3 421.0 L447.2 415.4 L449.2 409.7 L451.2 403.8 L453.2 397.8 L455.1 391.6 L457.1 385.1 L459.1 380.0 L461.1 548.2 L463.0 547.8 L465.0 547.3 L467.0 546.8 L468.9 546.4 L470.9 545.9 L472.9 545.4 L474.9 544.9 L476.8 544.4 L478.8 543.8 L480.8 543.3 L482.7 542.7 L484.7 542.1 L486.7 541.5 L488.7 540.9 L490.6 540.3 L492.6 539.7 L494.6 539.0 L496.6 538.4 L498.5 537.7 L500.5 537.0 L502.5 536.3 L504.4 535.6 L506.4 534.9 L508.4 534.1 L510.4 533.3 L512.3 532.6 L514.3 531.8 L516.3 531.0 L518.2 530.1 L520.2 529.3 L522.2 528.4 L524.2 527.6 L526.1 526.7 L528.1 525.8 L530.1 524.9 L532.1 523.9 L534.0 523.0 L536.0 522.0 L538.0 521.0 L539.9 520.0 L541.9 519.0 L543.9 518.0 L545.9 517.0 L547.8 515.9 L549.8 514.8 L551.8 513.7 L553.8 512.6 L555.7 511.5 L557.7 510.4 L559.7 509.2 L561.6 508.0 L563.6 506.9 L565.6 505.6 L567.6 504.4 L569.5 503.2 L571.5 501.9 L573.5 500.7 L575.4 499.4 L577.4 498.1 L579.4 496.8 L581.4 495.5 L583.3 494.1 L585.3 492.8 L587.3 491.4 L589.2 490.0 L591.2 488.6 L593.2 487.2 L595.2 485.8 L597.1 484.3 L599.1 482.9 L601.1 481.4 L603.1 479.9 L605.0 478.4 L607.0 476.9 L609.0 475.3 L610.9 473.8 L612.9 472.2 L614.9 470.7 L616.9 469.1 L618.8 467.5 L620.8 465.9 L622.8 464.3 L624.8 462.6 L626.7 461.0 L628.7 459.3 L630.7 457.7 L632.6 560.0 L634.6 560.0 L636.6 560.0 L638.6 560.0 L640.5 560.0 L642.5 560.0 L644.5 560.0 L646.4 560.0 L648.4 560.0 L650.4 560.0 L652.4 560.0 L654.3 560.0 L656.3 560.0 L658.3 560.0 L660.3 560.0 L662.2 560.0 L664.2 560.0 L666.2 560.0 L668.1 560.0 L670.1 560.0 L672.1 560.0 L674.1 560.0 L676.0 560.0 L678.0 560.0 L680.0 560.0 L681.9 560.0 L683.9 560.0 L685.9 560.0 L687.9 560.0 L689.8 560.0 L691.8 560.0 L693.8 560.0 L695.8 560.0 L697.7 560.0 L699.7 560.0 L701.7 560.0 L703.6 560.0 L705.6 560.0 L707.6 560.0 L709.6 560.0 L711.5 560.0 L713.5 560.0 L715.5 560.0 L717.4 560.0 L719.4 560.0 L721.4 560.0 L723.4 560.0 L725.3 560.0 L727.3 560.0 L729.3 560.0 L731.2 560.0 L733.2 560.0 L735.2 560.0 L737.2 560.0 L739.1 560.0 L741.1 560.0 L743.1 560.0 L745.1 560.0 L747.0 560.0 L749.0 560.0 L751.0 560.0 L752.9 560.0 L754.9 560.0 L756.9 560.0 L758.9 560.0 L760.8 560.0 L762.8 560.0 L764.8 560.0 L766.8 560.0 L768.7 560.0 L770.7 560.0 L772.7 560.0 L774.6 560.0 L776.6 560.0 L778.6 560.0 L780.6 560.0 L782.5 560.0 L784.5 560.0 L786.5 560.0 L788.4 560.0 L790.4 560.0 L792.4 560.0 L794.4 560.0 L796.3 560.0 L798.3 560.0 L800.3 560.0 L802.3 560.0 L804.2 560.0 L806.2 560.0 L808.2 560.0 L810.1 560.0 L812.1 560.0 L814.1 560.0 L816.1 560.0 L818.0 560.0 L820.0 560.0" fill="none" stroke="#c43f6b" stroke-width="2.6"/>
<text x="34" y="470" text-anchor="middle" font-size="12" fill="#0a1929" transform="rotate(-90 34 470)">j_ν（放出）</text>
<text x="387.9" y="420.0" text-anchor="middle" font-size="10" fill="#8a1f3e">Balmer ジャンプ（放出端）</text>
<text x="465" y="612" text-anchor="middle" font-size="13" fill="#0a1929">波長 λ [Å]</text>
<text x="450" y="630" text-anchor="middle" font-size="11" fill="#8a99a8">恒星大気では吸収端、星雲では再結合の放出端 ― 背景光の有無で符号が反転（§19.3・§19.4・§19.6）</text>
</svg>