<?xml version="1.0" encoding="UTF-8"?>
<svg xmlns="http://www.w3.org/2000/svg" viewBox="0 0 920 520" width="920" height="520" font-family="-apple-system, BlinkMacSystemFont, 'Segoe UI', 'Hiragino Sans', 'Noto Sans JP', sans-serif">
<defs>
<marker id="dm-ax" viewBox="0 0 10 10" refX="8" refY="5" markerWidth="7" markerHeight="7" orient="auto-start-reverse"><path d="M 0 0 L 10 5 L 0 10 z" fill="#5a6a7a"/></marker>
<marker id="dm-r" viewBox="0 0 10 10" refX="8.5" refY="5" markerWidth="7" markerHeight="7" orient="auto-start-reverse"><path d="M 0 0 L 10 5 L 0 10 z" fill="#5a6a7a"/></marker>
<clipPath id="pb"><rect x="541" y="98" width="345" height="343"/></clipPath>
</defs>
<rect width="920" height="520" fill="#fafbfc"/>
<line x1="468" y1="70" x2="468" y2="496" stroke="#dde3ea" stroke-width="1.5"/>

<!-- ===== Panel A ===== -->
<text x="234" y="48" font-size="18" fill="#1f4e79" text-anchor="middle" font-weight="700">(a) 多温度の円盤 ― 各半径 ＝ 1つの黒体</text>
<ellipse cx="234" cy="262" rx="190" ry="74" fill="#a8312a"/>
<ellipse cx="234" cy="262" rx="157" ry="61" fill="#c0633a"/>
<ellipse cx="234" cy="262" rx="126" ry="49" fill="#d9923a"/>
<ellipse cx="234" cy="262" rx="96" ry="37" fill="#5aa0b8"/>
<ellipse cx="234" cy="262" rx="66" ry="25" fill="#3f86c4"/>
<ellipse cx="234" cy="262" rx="36" ry="14" fill="#1f5fb0"/>
<circle cx="234" cy="262" r="8" fill="#0b1622"/>
<ellipse cx="234" cy="262" rx="190" ry="74" fill="none" stroke="#9bb0c4" stroke-width="1.2"/>
<text x="234" y="246" font-size="12" fill="#eaf2fb" text-anchor="middle" font-weight="700">高温</text>
<text x="234" y="259" font-size="10.5" fill="#eaf2fb" text-anchor="middle" font-style="italic" font-family="Georgia,serif">T(R<tspan font-size="8" dy="2">in</tspan><tspan dy="-2">)</tspan></text>
<line x1="372" y1="190" x2="362" y2="208" stroke="#9a8478" stroke-width="1"/>
<text x="380" y="172" font-size="12" fill="#7a2417" text-anchor="middle" font-weight="700">低温</text>
<text x="380" y="186" font-size="10.5" fill="#7a2417" text-anchor="middle" font-style="italic" font-family="Georgia,serif">T(R<tspan font-size="8" dy="2">out</tspan><tspan dy="-2">)</tspan></text>
<line x1="234" y1="352" x2="416" y2="352" stroke="#5a6a7a" stroke-width="1.4" marker-end="url(#dm-r)"/>
<line x1="234" y1="346" x2="234" y2="358" stroke="#5a6a7a" stroke-width="1.4"/>
<text x="325" y="370" font-size="12.5" fill="#5a6a7a" text-anchor="middle" font-style="italic" font-family="Georgia,serif">R</text>
<rect x="92" y="398" width="288" height="42" rx="6" fill="#eef3f9" stroke="#cfdcea" stroke-width="1"/>
<text x="236" y="417" font-size="14.5" fill="#1f4e79" text-anchor="middle" font-family="Georgia,serif" font-style="italic">T(R) &#8733; R<tspan font-size="10" dy="-7" font-style="normal">&#8722;3/4</tspan></text>
<text x="236" y="433" font-size="11" fill="#52606e" text-anchor="middle">内側ほど高温・外側ほど低温</text>
<text x="234" y="468" font-size="11.5" fill="#52606e" text-anchor="middle">色 ＝ 温度。右パネルの黒体曲線と対応</text>

<!-- ===== Panel B ===== -->
<text x="700" y="44" font-size="18" fill="#1f4e79" text-anchor="middle" font-weight="700">(b) 合成スペクトル（両対数）</text>
<text x="700" y="65" font-size="14" fill="#1f4e79" text-anchor="middle" font-weight="600">黒体の和が &#957;<tspan font-size="10" dy="-6">1/3</tspan><tspan dy="6"> べき則をつくる</tspan></text>

<line x1="540" y1="440" x2="892" y2="440" stroke="#5a6a7a" stroke-width="1.6" marker-end="url(#dm-ax)"/>
<line x1="540" y1="440" x2="540" y2="98" stroke="#5a6a7a" stroke-width="1.6" marker-end="url(#dm-ax)"/>
<text x="884" y="462" font-size="13" fill="#5a6a7a" text-anchor="end">log&#8202;&#957;（振動数）</text>
<text x="520" y="270" font-size="13" fill="#5a6a7a" text-anchor="middle" transform="rotate(-90 520 270)">log&#8202;F<tspan font-size="10" font-style="italic">&#957;</tspan>（フラックス）</text>

<g clip-path="url(#pb)">
<path d="M 598.8,436.4 L 599.1,435.7 L 599.5,435.0 L 599.8,434.3 L 600.2,433.6 L 600.5,432.9 L 600.8,432.2 L 601.2,431.5 L 601.5,430.8 L 601.9,430.1 L 602.2,429.4 L 602.6,428.7 L 602.9,428.0 L 603.3,427.3 L 603.6,426.6 L 604.0,425.9 L 604.3,425.2 L 604.7,424.5 L 605.0,423.8 L 605.3,423.1 L 605.7,422.4 L 606.0,421.7 L 606.4,421.0 L 606.7,420.3 L 607.1,419.6 L 607.4,418.9 L 607.8,418.2 L 608.1,417.6 L 608.5,416.9 L 608.8,416.2 L 609.1,415.5 L 609.5,414.8 L 609.8,414.1 L 610.2,413.4 L 610.5,412.7 L 610.9,412.0 L 611.2,411.3 L 611.6,410.6 L 611.9,409.9 L 612.3,409.2 L 612.6,408.5 L 613.0,407.8 L 613.3,407.2 L 613.6,406.5 L 614.0,405.8 L 614.3,405.1 L 614.7,404.4 L 615.0,403.7 L 615.4,403.0 L 615.7,402.3 L 616.1,401.6 L 616.4,400.9 L 616.8,400.2 L 617.1,399.6 L 617.5,398.9 L 617.8,398.2 L 618.1,397.5 L 618.5,396.8 L 618.8,396.1 L 619.2,395.4 L 619.5,394.7 L 619.9,394.0 L 620.2,393.4 L 620.6,392.7 L 620.9,392.0 L 621.3,391.3 L 621.6,390.6 L 622.0,389.9 L 622.3,389.2 L 622.6,388.5 L 623.0,387.9 L 623.3,387.2 L 623.7,386.5 L 624.0,385.8 L 624.4,385.1 L 624.7,384.4 L 625.1,383.8 L 625.4,383.1 L 625.8,382.4 L 626.1,381.7 L 626.4,381.0 L 626.8,380.3 L 627.1,379.7 L 627.5,379.0 L 627.8,378.3 L 628.2,377.6 L 628.5,376.9 L 628.9,376.3 L 629.2,375.6 L 629.6,374.9 L 629.9,374.2 L 630.3,373.5 L 630.6,372.9 L 630.9,372.2 L 631.3,371.5 L 631.6,370.8 L 632.0,370.1 L 632.3,369.5 L 632.7,368.8 L 633.0,368.1 L 633.4,367.4 L 633.7,366.8 L 634.1,366.1 L 634.4,365.4 L 634.8,364.7 L 635.1,364.1 L 635.4,363.4 L 635.8,362.7 L 636.1,362.0 L 636.5,361.4 L 636.8,360.7 L 637.2,360.0 L 637.5,359.4 L 637.9,358.7 L 638.2,358.0 L 638.6,357.3 L 638.9,356.7 L 639.3,356.0 L 639.6,355.3 L 639.9,354.7 L 640.3,354.0 L 640.6,353.3 L 641.0,352.7 L 641.3,352.0 L 641.7,351.3 L 642.0,350.7 L 642.4,350.0 L 642.7,349.3 L 643.1,348.7 L 643.4,348.0 L 643.7,347.3 L 644.1,346.7 L 644.4,346.0 L 644.8,345.4 L 645.1,344.7 L 645.5,344.0 L 645.8,343.4 L 646.2,342.7 L 646.5,342.1 L 646.9,341.4 L 647.2,340.7 L 647.6,340.1 L 647.9,339.4 L 648.2,338.8 L 648.6,338.1 L 648.9,337.5 L 649.3,336.8 L 649.6,336.1 L 650.0,335.5 L 650.3,334.8 L 650.7,334.2 L 651.0,333.5 L 651.4,332.9 L 651.7,332.2 L 652.1,331.6 L 652.4,330.9 L 652.7,330.3 L 653.1,329.6 L 653.4,329.0 L 653.8,328.3 L 654.1,327.7 L 654.5,327.0 L 654.8,326.4 L 655.2,325.8 L 655.5,325.1 L 655.9,324.5 L 656.2,323.8 L 656.5,323.2 L 656.9,322.5 L 657.2,321.9 L 657.6,321.3 L 657.9,320.6 L 658.3,320.0 L 658.6,319.4 L 659.0,318.7 L 659.3,318.1 L 659.7,317.5 L 660.0,316.8 L 660.4,316.2 L 660.7,315.6 L 661.0,314.9 L 661.4,314.3 L 661.7,313.7 L 662.1,313.0 L 662.4,312.4 L 662.8,311.8 L 663.1,311.1 L 663.5,310.5 L 663.8,309.9 L 664.2,309.3 L 664.5,308.7 L 664.9,308.0 L 665.2,307.4 L 665.5,306.8 L 665.9,306.2 L 666.2,305.6 L 666.6,304.9 L 666.9,304.3 L 667.3,303.7 L 667.6,303.1 L 668.0,302.5 L 668.3,301.9 L 668.7,301.3 L 669.0,300.6 L 669.4,300.0 L 669.7,299.4 L 670.0,298.8 L 670.4,298.2 L 670.7,297.6 L 671.1,297.0 L 671.4,296.4 L 671.8,295.8 L 672.1,295.2 L 672.5,294.6 L 672.8,294.0 L 673.2,293.4 L 673.5,292.8 L 673.8,292.2 L 674.2,291.6 L 674.5,291.0 L 674.9,290.4 L 675.2,289.9 L 675.6,289.3 L 675.9,288.7 L 676.3,288.1 L 676.6,287.5 L 677.0,286.9 L 677.3,286.3 L 677.7,285.8 L 678.0,285.2 L 678.3,284.6 L 678.7,284.0 L 679.0,283.5 L 679.4,282.9 L 679.7,282.3 L 680.1,281.7 L 680.4,281.2 L 680.8,280.6 L 681.1,280.0 L 681.5,279.5 L 681.8,278.9 L 682.2,278.4 L 682.5,277.8 L 682.8,277.2 L 683.2,276.7 L 683.5,276.1 L 683.9,275.6 L 684.2,275.0 L 684.6,274.5 L 684.9,273.9 L 685.3,273.4 L 685.6,272.8 L 686.0,272.3 L 686.3,271.8 L 686.7,271.2 L 687.0,270.7 L 687.3,270.1 L 687.7,269.6 L 688.0,269.1 L 688.4,268.6 L 688.7,268.0 L 689.1,267.5 L 689.4,267.0 L 689.8,266.5 L 690.1,265.9 L 690.5,265.4 L 690.8,264.9 L 691.1,264.4 L 691.5,263.9 L 691.8,263.4 L 692.2,262.9 L 692.5,262.4 L 692.9,261.9 L 693.2,261.4 L 693.6,260.9 L 693.9,260.4 L 694.3,259.9 L 694.6,259.4 L 695.0,258.9 L 695.3,258.4 L 695.6,257.9 L 696.0,257.4 L 696.3,257.0 L 696.7,256.5 L 697.0,256.0 L 697.4,255.6 L 697.7,255.1 L 698.1,254.6 L 698.4,254.2 L 698.8,253.7 L 699.1,253.2 L 699.5,252.8 L 699.8,252.3 L 700.1,251.9 L 700.5,251.4 L 700.8,251.0 L 701.2,250.6 L 701.5,250.1 L 701.9,249.7 L 702.2,249.3 L 702.6,248.8 L 702.9,248.4 L 703.3,248.0 L 703.6,247.6 L 704.0,247.1 L 704.3,246.7 L 704.6,246.3 L 705.0,245.9 L 705.3,245.5 L 705.7,245.1 L 706.0,244.7 L 706.4,244.3 L 706.7,244.0 L 707.1,243.6 L 707.4,243.2 L 707.8,242.8 L 708.1,242.4 L 708.4,242.1 L 708.8,241.7 L 709.1,241.3 L 709.5,241.0 L 709.8,240.6 L 710.2,240.3 L 710.5,239.9 L 710.9,239.6 L 711.2,239.3 L 711.6,238.9 L 711.9,238.6 L 712.3,238.3 L 712.6,238.0 L 712.9,237.6 L 713.3,237.3 L 713.6,237.0 L 714.0,236.7 L 714.3,236.4 L 714.7,236.1 L 715.0,235.9 L 715.4,235.6 L 715.7,235.3 L 716.1,235.0 L 716.4,234.8 L 716.8,234.5 L 717.1,234.2 L 717.4,234.0 L 717.8,233.7 L 718.1,233.5 L 718.5,233.3 L 718.8,233.0 L 719.2,232.8 L 719.5,232.6 L 719.9,232.4 L 720.2,232.2 L 720.6,232.0 L 720.9,231.8 L 721.2,231.6 L 721.6,231.4 L 721.9,231.2 L 722.3,231.0 L 722.6,230.9 L 723.0,230.7 L 723.3,230.5 L 723.7,230.4 L 724.0,230.3 L 724.4,230.1 L 724.7,230.0 L 725.1,229.9 L 725.4,229.8 L 725.7,229.7 L 726.1,229.6 L 726.4,229.5 L 726.8,229.4 L 727.1,229.3 L 727.5,229.2 L 727.8,229.2 L 728.2,229.1 L 728.5,229.1 L 728.9,229.0 L 729.2,229.0 L 729.6,229.0 L 729.9,228.9 L 730.2,228.9 L 730.6,228.9 L 730.9,228.9 L 731.3,228.9 L 731.6,229.0 L 732.0,229.0 L 732.3,229.0 L 732.7,229.1 L 733.0,229.2 L 733.4,229.2 L 733.7,229.3 L 734.1,229.4 L 734.4,229.5 L 734.7,229.6 L 735.1,229.7 L 735.4,229.8 L 735.8,230.0 L 736.1,230.1 L 736.5,230.3 L 736.8,230.4 L 737.2,230.6 L 737.5,230.8 L 737.9,231.0 L 738.2,231.2 L 738.5,231.4 L 738.9,231.6 L 739.2,231.8 L 739.6,232.1 L 739.9,232.4 L 740.3,232.6 L 740.6,232.9 L 741.0,233.2 L 741.3,233.5 L 741.7,233.8 L 742.0,234.1 L 742.4,234.5 L 742.7,234.8 L 743.0,235.2 L 743.4,235.6 L 743.7,236.0 L 744.1,236.4 L 744.4,236.8 L 744.8,237.2 L 745.1,237.7 L 745.5,238.1 L 745.8,238.6 L 746.2,239.1 L 746.5,239.6 L 746.9,240.1 L 747.2,240.6 L 747.5,241.1 L 747.9,241.7 L 748.2,242.2 L 748.6,242.8 L 748.9,243.4 L 749.3,244.0 L 749.6,244.7 L 750.0,245.3 L 750.3,246.0 L 750.7,246.6 L 751.0,247.3 L 751.4,248.0 L 751.7,248.7 L 752.0,249.5 L 752.4,250.2 L 752.7,251.0 L 753.1,251.8 L 753.4,252.6 L 753.8,253.4 L 754.1,254.2 L 754.5,255.1 L 754.8,256.0 L 755.2,256.9 L 755.5,257.8 L 755.8,258.7 L 756.2,259.6 L 756.5,260.6 L 756.9,261.6 L 757.2,262.6 L 757.6,263.6 L 757.9,264.6 L 758.3,265.7 L 758.6,266.8 L 759.0,267.9 L 759.3,269.0 L 759.7,270.1 L 760.0,271.3 L 760.3,272.5 L 760.7,273.7 L 761.0,274.9 L 761.4,276.1 L 761.7,277.4 L 762.1,278.7 L 762.4,280.0 L 762.8,281.3 L 763.1,282.7 L 763.5,284.1 L 763.8,285.5 L 764.2,286.9 L 764.5,288.3 L 764.8,289.8 L 765.2,291.3 L 765.5,292.8 L 765.9,294.3 L 766.2,295.9 L 766.6,297.5 L 766.9,299.1 L 767.3,300.7 L 767.6,302.4 L 768.0,304.1 L 768.3,305.8 L 768.6,307.6 L 769.0,309.3 L 769.3,311.1 L 769.7,312.9 L 770.0,314.8 L 770.4,316.7 L 770.7,318.6 L 771.1,320.5 L 771.4,322.5 L 771.8,324.4 L 772.1,326.5 L 772.5,328.5 L 772.8,330.6 L 773.1,332.7 L 773.5,334.8 L 773.8,337.0 L 774.2,339.2 L 774.5,341.4 L 774.9,343.7 L 775.2,345.9 L 775.6,348.3 L 775.9,350.6 L 776.3,353.0 L 776.6,355.4 L 777.0,357.9 L 777.3,360.3 L 777.6,362.9 L 778.0,365.4 L 778.3,368.0 L 778.7,370.6 L 779.0,373.3 L 779.4,375.9 L 779.7,378.7 L 780.1,381.4 L 780.4,384.2 L 780.8,387.0 L 781.1,389.9 L 781.5,392.8 L 781.8,395.7 L 782.1,398.7 L 782.5,401.7 L 782.8,404.8 L 783.2,407.9 L 783.5,411.0 L 783.9,414.2 L 784.2,417.4 L 784.6,420.6 L 784.9,423.9 L 785.3,427.3 L 785.6,430.6 L 785.9,434.1" fill="none" stroke="#1f5fb0" stroke-width="1.5" opacity="0.9"/>
<path d="M 575.2,435.7 L 575.6,435.0 L 575.9,434.3 L 576.3,433.7 L 576.6,433.0 L 577.0,432.3 L 577.3,431.6 L 577.7,430.9 L 578.0,430.2 L 578.4,429.5 L 578.7,428.8 L 579.0,428.1 L 579.4,427.4 L 579.7,426.7 L 580.1,426.0 L 580.4,425.3 L 580.8,424.6 L 581.1,423.9 L 581.5,423.2 L 581.8,422.5 L 582.2,421.8 L 582.5,421.1 L 582.9,420.5 L 583.2,419.8 L 583.5,419.1 L 583.9,418.4 L 584.2,417.7 L 584.6,417.0 L 584.9,416.3 L 585.3,415.6 L 585.6,414.9 L 586.0,414.2 L 586.3,413.5 L 586.7,412.8 L 587.0,412.1 L 587.4,411.5 L 587.7,410.8 L 588.0,410.1 L 588.4,409.4 L 588.7,408.7 L 589.1,408.0 L 589.4,407.3 L 589.8,406.6 L 590.1,405.9 L 590.5,405.3 L 590.8,404.6 L 591.2,403.9 L 591.5,403.2 L 591.8,402.5 L 592.2,401.8 L 592.5,401.1 L 592.9,400.4 L 593.2,399.8 L 593.6,399.1 L 593.9,398.4 L 594.3,397.7 L 594.6,397.0 L 595.0,396.3 L 595.3,395.6 L 595.7,395.0 L 596.0,394.3 L 596.3,393.6 L 596.7,392.9 L 597.0,392.2 L 597.4,391.5 L 597.7,390.9 L 598.1,390.2 L 598.4,389.5 L 598.8,388.8 L 599.1,388.1 L 599.5,387.5 L 599.8,386.8 L 600.2,386.1 L 600.5,385.4 L 600.8,384.7 L 601.2,384.1 L 601.5,383.4 L 601.9,382.7 L 602.2,382.0 L 602.6,381.3 L 602.9,380.7 L 603.3,380.0 L 603.6,379.3 L 604.0,378.6 L 604.3,378.0 L 604.7,377.3 L 605.0,376.6 L 605.3,375.9 L 605.7,375.2 L 606.0,374.6 L 606.4,373.9 L 606.7,373.2 L 607.1,372.6 L 607.4,371.9 L 607.8,371.2 L 608.1,370.5 L 608.5,369.9 L 608.8,369.2 L 609.1,368.5 L 609.5,367.9 L 609.8,367.2 L 610.2,366.5 L 610.5,365.8 L 610.9,365.2 L 611.2,364.5 L 611.6,363.8 L 611.9,363.2 L 612.3,362.5 L 612.6,361.8 L 613.0,361.2 L 613.3,360.5 L 613.6,359.8 L 614.0,359.2 L 614.3,358.5 L 614.7,357.8 L 615.0,357.2 L 615.4,356.5 L 615.7,355.9 L 616.1,355.2 L 616.4,354.5 L 616.8,353.9 L 617.1,353.2 L 617.5,352.6 L 617.8,351.9 L 618.1,351.2 L 618.5,350.6 L 618.8,349.9 L 619.2,349.3 L 619.5,348.6 L 619.9,347.9 L 620.2,347.3 L 620.6,346.6 L 620.9,346.0 L 621.3,345.3 L 621.6,344.7 L 622.0,344.0 L 622.3,343.4 L 622.6,342.7 L 623.0,342.1 L 623.3,341.4 L 623.7,340.8 L 624.0,340.1 L 624.4,339.5 L 624.7,338.8 L 625.1,338.2 L 625.4,337.5 L 625.8,336.9 L 626.1,336.2 L 626.4,335.6 L 626.8,335.0 L 627.1,334.3 L 627.5,333.7 L 627.8,333.0 L 628.2,332.4 L 628.5,331.7 L 628.9,331.1 L 629.2,330.5 L 629.6,329.8 L 629.9,329.2 L 630.3,328.6 L 630.6,327.9 L 630.9,327.3 L 631.3,326.7 L 631.6,326.0 L 632.0,325.4 L 632.3,324.8 L 632.7,324.1 L 633.0,323.5 L 633.4,322.9 L 633.7,322.2 L 634.1,321.6 L 634.4,321.0 L 634.8,320.4 L 635.1,319.7 L 635.4,319.1 L 635.8,318.5 L 636.1,317.9 L 636.5,317.3 L 636.8,316.6 L 637.2,316.0 L 637.5,315.4 L 637.9,314.8 L 638.2,314.2 L 638.6,313.5 L 638.9,312.9 L 639.3,312.3 L 639.6,311.7 L 639.9,311.1 L 640.3,310.5 L 640.6,309.9 L 641.0,309.3 L 641.3,308.7 L 641.7,308.1 L 642.0,307.5 L 642.4,306.8 L 642.7,306.2 L 643.1,305.6 L 643.4,305.0 L 643.7,304.4 L 644.1,303.8 L 644.4,303.3 L 644.8,302.7 L 645.1,302.1 L 645.5,301.5 L 645.8,300.9 L 646.2,300.3 L 646.5,299.7 L 646.9,299.1 L 647.2,298.5 L 647.6,297.9 L 647.9,297.4 L 648.2,296.8 L 648.6,296.2 L 648.9,295.6 L 649.3,295.0 L 649.6,294.5 L 650.0,293.9 L 650.3,293.3 L 650.7,292.7 L 651.0,292.2 L 651.4,291.6 L 651.7,291.0 L 652.1,290.5 L 652.4,289.9 L 652.7,289.3 L 653.1,288.8 L 653.4,288.2 L 653.8,287.6 L 654.1,287.1 L 654.5,286.5 L 654.8,286.0 L 655.2,285.4 L 655.5,284.9 L 655.9,284.3 L 656.2,283.8 L 656.5,283.2 L 656.9,282.7 L 657.2,282.1 L 657.6,281.6 L 657.9,281.1 L 658.3,280.5 L 658.6,280.0 L 659.0,279.5 L 659.3,278.9 L 659.7,278.4 L 660.0,277.9 L 660.4,277.3 L 660.7,276.8 L 661.0,276.3 L 661.4,275.8 L 661.7,275.3 L 662.1,274.8 L 662.4,274.2 L 662.8,273.7 L 663.1,273.2 L 663.5,272.7 L 663.8,272.2 L 664.2,271.7 L 664.5,271.2 L 664.9,270.7 L 665.2,270.2 L 665.5,269.7 L 665.9,269.2 L 666.2,268.7 L 666.6,268.3 L 666.9,267.8 L 667.3,267.3 L 667.6,266.8 L 668.0,266.3 L 668.3,265.9 L 668.7,265.4 L 669.0,264.9 L 669.4,264.5 L 669.7,264.0 L 670.0,263.5 L 670.4,263.1 L 670.7,262.6 L 671.1,262.2 L 671.4,261.7 L 671.8,261.3 L 672.1,260.8 L 672.5,260.4 L 672.8,260.0 L 673.2,259.5 L 673.5,259.1 L 673.8,258.7 L 674.2,258.3 L 674.5,257.8 L 674.9,257.4 L 675.2,257.0 L 675.6,256.6 L 675.9,256.2 L 676.3,255.8 L 676.6,255.4 L 677.0,255.0 L 677.3,254.6 L 677.7,254.2 L 678.0,253.8 L 678.3,253.4 L 678.7,253.0 L 679.0,252.7 L 679.4,252.3 L 679.7,251.9 L 680.1,251.6 L 680.4,251.2 L 680.8,250.8 L 681.1,250.5 L 681.5,250.1 L 681.8,249.8 L 682.2,249.5 L 682.5,249.1 L 682.8,248.8 L 683.2,248.5 L 683.5,248.1 L 683.9,247.8 L 684.2,247.5 L 684.6,247.2 L 684.9,246.9 L 685.3,246.6 L 685.6,246.3 L 686.0,246.0 L 686.3,245.7 L 686.7,245.4 L 687.0,245.2 L 687.3,244.9 L 687.7,244.6 L 688.0,244.4 L 688.4,244.1 L 688.7,243.8 L 689.1,243.6 L 689.4,243.4 L 689.8,243.1 L 690.1,242.9 L 690.5,242.7 L 690.8,242.4 L 691.1,242.2 L 691.5,242.0 L 691.8,241.8 L 692.2,241.6 L 692.5,241.4 L 692.9,241.2 L 693.2,241.1 L 693.6,240.9 L 693.9,240.7 L 694.3,240.6 L 694.6,240.4 L 695.0,240.3 L 695.3,240.1 L 695.6,240.0 L 696.0,239.9 L 696.3,239.7 L 696.7,239.6 L 697.0,239.5 L 697.4,239.4 L 697.7,239.3 L 698.1,239.3 L 698.4,239.2 L 698.8,239.1 L 699.1,239.0 L 699.5,239.0 L 699.8,238.9 L 700.1,238.9 L 700.5,238.9 L 700.8,238.8 L 701.2,238.8 L 701.5,238.8 L 701.9,238.8 L 702.2,238.8 L 702.6,238.8 L 702.9,238.9 L 703.3,238.9 L 703.6,238.9 L 704.0,239.0 L 704.3,239.0 L 704.6,239.1 L 705.0,239.2 L 705.3,239.3 L 705.7,239.4 L 706.0,239.5 L 706.4,239.6 L 706.7,239.7 L 707.1,239.8 L 707.4,240.0 L 707.8,240.1 L 708.1,240.3 L 708.4,240.5 L 708.8,240.7 L 709.1,240.9 L 709.5,241.1 L 709.8,241.3 L 710.2,241.5 L 710.5,241.7 L 710.9,242.0 L 711.2,242.2 L 711.6,242.5 L 711.9,242.8 L 712.3,243.1 L 712.6,243.4 L 712.9,243.7 L 713.3,244.0 L 713.6,244.4 L 714.0,244.7 L 714.3,245.1 L 714.7,245.5 L 715.0,245.9 L 715.4,246.3 L 715.7,246.7 L 716.1,247.1 L 716.4,247.6 L 716.8,248.0 L 717.1,248.5 L 717.4,249.0 L 717.8,249.5 L 718.1,250.0 L 718.5,250.5 L 718.8,251.0 L 719.2,251.6 L 719.5,252.2 L 719.9,252.7 L 720.2,253.3 L 720.6,254.0 L 720.9,254.6 L 721.2,255.2 L 721.6,255.9 L 721.9,256.6 L 722.3,257.2 L 722.6,257.9 L 723.0,258.7 L 723.3,259.4 L 723.7,260.2 L 724.0,260.9 L 724.4,261.7 L 724.7,262.5 L 725.1,263.3 L 725.4,264.2 L 725.7,265.0 L 726.1,265.9 L 726.4,266.8 L 726.8,267.7 L 727.1,268.6 L 727.5,269.6 L 727.8,270.5 L 728.2,271.5 L 728.5,272.5 L 728.9,273.5 L 729.2,274.6 L 729.6,275.6 L 729.9,276.7 L 730.2,277.8 L 730.6,278.9 L 730.9,280.1 L 731.3,281.2 L 731.6,282.4 L 732.0,283.6 L 732.3,284.9 L 732.7,286.1 L 733.0,287.4 L 733.4,288.7 L 733.7,290.0 L 734.1,291.3 L 734.4,292.6 L 734.7,294.0 L 735.1,295.4 L 735.4,296.8 L 735.8,298.3 L 736.1,299.8 L 736.5,301.3 L 736.8,302.8 L 737.2,304.3 L 737.5,305.9 L 737.9,307.5 L 738.2,309.1 L 738.5,310.7 L 738.9,312.4 L 739.2,314.1 L 739.6,315.8 L 739.9,317.5 L 740.3,319.3 L 740.6,321.1 L 741.0,322.9 L 741.3,324.8 L 741.7,326.7 L 742.0,328.6 L 742.4,330.5 L 742.7,332.5 L 743.0,334.4 L 743.4,336.5 L 743.7,338.5 L 744.1,340.6 L 744.4,342.7 L 744.8,344.8 L 745.1,347.0 L 745.5,349.2 L 745.8,351.4 L 746.2,353.7 L 746.5,356.0 L 746.9,358.3 L 747.2,360.6 L 747.5,363.0 L 747.9,365.4 L 748.2,367.9 L 748.6,370.4 L 748.9,372.9 L 749.3,375.4 L 749.6,378.0 L 750.0,380.6 L 750.3,383.3 L 750.7,386.0 L 751.0,388.7 L 751.4,391.5 L 751.7,394.3 L 752.0,397.1 L 752.4,400.0 L 752.7,402.9 L 753.1,405.8 L 753.4,408.8 L 753.8,411.8 L 754.1,414.9 L 754.5,418.0 L 754.8,421.1 L 755.2,424.3 L 755.5,427.5 L 755.8,430.7 L 756.2,434.0" fill="none" stroke="#3f86c4" stroke-width="1.5" opacity="0.9"/>
<path d="M 560.0,418.1 L 560.4,417.4 L 560.7,416.7 L 561.1,416.0 L 561.4,415.3 L 561.7,414.6 L 562.1,413.9 L 562.4,413.3 L 562.8,412.6 L 563.1,411.9 L 563.5,411.2 L 563.8,410.5 L 564.2,409.8 L 564.5,409.1 L 564.9,408.4 L 565.2,407.8 L 565.6,407.1 L 565.9,406.4 L 566.2,405.7 L 566.6,405.0 L 566.9,404.3 L 567.3,403.7 L 567.6,403.0 L 568.0,402.3 L 568.3,401.6 L 568.7,400.9 L 569.0,400.2 L 569.4,399.6 L 569.7,398.9 L 570.1,398.2 L 570.4,397.5 L 570.7,396.8 L 571.1,396.2 L 571.4,395.5 L 571.8,394.8 L 572.1,394.1 L 572.5,393.4 L 572.8,392.8 L 573.2,392.1 L 573.5,391.4 L 573.9,390.7 L 574.2,390.0 L 574.6,389.4 L 574.9,388.7 L 575.2,388.0 L 575.6,387.3 L 575.9,386.7 L 576.3,386.0 L 576.6,385.3 L 577.0,384.6 L 577.3,384.0 L 577.7,383.3 L 578.0,382.6 L 578.4,381.9 L 578.7,381.3 L 579.0,380.6 L 579.4,379.9 L 579.7,379.3 L 580.1,378.6 L 580.4,377.9 L 580.8,377.2 L 581.1,376.6 L 581.5,375.9 L 581.8,375.2 L 582.2,374.6 L 582.5,373.9 L 582.9,373.2 L 583.2,372.6 L 583.5,371.9 L 583.9,371.2 L 584.2,370.6 L 584.6,369.9 L 584.9,369.2 L 585.3,368.6 L 585.6,367.9 L 586.0,367.2 L 586.3,366.6 L 586.7,365.9 L 587.0,365.3 L 587.4,364.6 L 587.7,363.9 L 588.0,363.3 L 588.4,362.6 L 588.7,362.0 L 589.1,361.3 L 589.4,360.6 L 589.8,360.0 L 590.1,359.3 L 590.5,358.7 L 590.8,358.0 L 591.2,357.4 L 591.5,356.7 L 591.8,356.0 L 592.2,355.4 L 592.5,354.7 L 592.9,354.1 L 593.2,353.4 L 593.6,352.8 L 593.9,352.1 L 594.3,351.5 L 594.6,350.8 L 595.0,350.2 L 595.3,349.5 L 595.7,348.9 L 596.0,348.2 L 596.3,347.6 L 596.7,346.9 L 597.0,346.3 L 597.4,345.7 L 597.7,345.0 L 598.1,344.4 L 598.4,343.7 L 598.8,343.1 L 599.1,342.4 L 599.5,341.8 L 599.8,341.2 L 600.2,340.5 L 600.5,339.9 L 600.8,339.3 L 601.2,338.6 L 601.5,338.0 L 601.9,337.3 L 602.2,336.7 L 602.6,336.1 L 602.9,335.4 L 603.3,334.8 L 603.6,334.2 L 604.0,333.6 L 604.3,332.9 L 604.7,332.3 L 605.0,331.7 L 605.3,331.0 L 605.7,330.4 L 606.0,329.8 L 606.4,329.2 L 606.7,328.5 L 607.1,327.9 L 607.4,327.3 L 607.8,326.7 L 608.1,326.1 L 608.5,325.4 L 608.8,324.8 L 609.1,324.2 L 609.5,323.6 L 609.8,323.0 L 610.2,322.4 L 610.5,321.8 L 610.9,321.1 L 611.2,320.5 L 611.6,319.9 L 611.9,319.3 L 612.3,318.7 L 612.6,318.1 L 613.0,317.5 L 613.3,316.9 L 613.6,316.3 L 614.0,315.7 L 614.3,315.1 L 614.7,314.5 L 615.0,313.9 L 615.4,313.3 L 615.7,312.7 L 616.1,312.1 L 616.4,311.5 L 616.8,310.9 L 617.1,310.3 L 617.5,309.7 L 617.8,309.2 L 618.1,308.6 L 618.5,308.0 L 618.8,307.4 L 619.2,306.8 L 619.5,306.2 L 619.9,305.7 L 620.2,305.1 L 620.6,304.5 L 620.9,303.9 L 621.3,303.4 L 621.6,302.8 L 622.0,302.2 L 622.3,301.6 L 622.6,301.1 L 623.0,300.5 L 623.3,299.9 L 623.7,299.4 L 624.0,298.8 L 624.4,298.2 L 624.7,297.7 L 625.1,297.1 L 625.4,296.6 L 625.8,296.0 L 626.1,295.5 L 626.4,294.9 L 626.8,294.4 L 627.1,293.8 L 627.5,293.3 L 627.8,292.7 L 628.2,292.2 L 628.5,291.6 L 628.9,291.1 L 629.2,290.6 L 629.6,290.0 L 629.9,289.5 L 630.3,289.0 L 630.6,288.4 L 630.9,287.9 L 631.3,287.4 L 631.6,286.9 L 632.0,286.3 L 632.3,285.8 L 632.7,285.3 L 633.0,284.8 L 633.4,284.3 L 633.7,283.8 L 634.1,283.3 L 634.4,282.8 L 634.8,282.2 L 635.1,281.7 L 635.4,281.2 L 635.8,280.7 L 636.1,280.3 L 636.5,279.8 L 636.8,279.3 L 637.2,278.8 L 637.5,278.3 L 637.9,277.8 L 638.2,277.3 L 638.6,276.9 L 638.9,276.4 L 639.3,275.9 L 639.6,275.4 L 639.9,275.0 L 640.3,274.5 L 640.6,274.0 L 641.0,273.6 L 641.3,273.1 L 641.7,272.7 L 642.0,272.2 L 642.4,271.8 L 642.7,271.3 L 643.1,270.9 L 643.4,270.4 L 643.7,270.0 L 644.1,269.6 L 644.4,269.1 L 644.8,268.7 L 645.1,268.3 L 645.5,267.9 L 645.8,267.4 L 646.2,267.0 L 646.5,266.6 L 646.9,266.2 L 647.2,265.8 L 647.6,265.4 L 647.9,265.0 L 648.2,264.6 L 648.6,264.2 L 648.9,263.8 L 649.3,263.4 L 649.6,263.1 L 650.0,262.7 L 650.3,262.3 L 650.7,262.0 L 651.0,261.6 L 651.4,261.2 L 651.7,260.9 L 652.1,260.5 L 652.4,260.2 L 652.7,259.8 L 653.1,259.5 L 653.4,259.1 L 653.8,258.8 L 654.1,258.5 L 654.5,258.2 L 654.8,257.8 L 655.2,257.5 L 655.5,257.2 L 655.9,256.9 L 656.2,256.6 L 656.5,256.3 L 656.9,256.0 L 657.2,255.7 L 657.6,255.4 L 657.9,255.2 L 658.3,254.9 L 658.6,254.6 L 659.0,254.4 L 659.3,254.1 L 659.7,253.9 L 660.0,253.6 L 660.4,253.4 L 660.7,253.1 L 661.0,252.9 L 661.4,252.7 L 661.7,252.4 L 662.1,252.2 L 662.4,252.0 L 662.8,251.8 L 663.1,251.6 L 663.5,251.4 L 663.8,251.2 L 664.2,251.1 L 664.5,250.9 L 664.9,250.7 L 665.2,250.6 L 665.5,250.4 L 665.9,250.3 L 666.2,250.1 L 666.6,250.0 L 666.9,249.9 L 667.3,249.7 L 667.6,249.6 L 668.0,249.5 L 668.3,249.4 L 668.7,249.3 L 669.0,249.2 L 669.4,249.2 L 669.7,249.1 L 670.0,249.0 L 670.4,249.0 L 670.7,248.9 L 671.1,248.9 L 671.4,248.8 L 671.8,248.8 L 672.1,248.8 L 672.5,248.8 L 672.8,248.8 L 673.2,248.8 L 673.5,248.8 L 673.8,248.8 L 674.2,248.9 L 674.5,248.9 L 674.9,248.9 L 675.2,249.0 L 675.6,249.1 L 675.9,249.2 L 676.3,249.2 L 676.6,249.3 L 677.0,249.4 L 677.3,249.5 L 677.7,249.7 L 678.0,249.8 L 678.3,249.9 L 678.7,250.1 L 679.0,250.3 L 679.4,250.4 L 679.7,250.6 L 680.1,250.8 L 680.4,251.0 L 680.8,251.2 L 681.1,251.5 L 681.5,251.7 L 681.8,251.9 L 682.2,252.2 L 682.5,252.5 L 682.8,252.7 L 683.2,253.0 L 683.5,253.3 L 683.9,253.7 L 684.2,254.0 L 684.6,254.3 L 684.9,254.7 L 685.3,255.0 L 685.6,255.4 L 686.0,255.8 L 686.3,256.2 L 686.7,256.6 L 687.0,257.0 L 687.3,257.5 L 687.7,257.9 L 688.0,258.4 L 688.4,258.9 L 688.7,259.4 L 689.1,259.9 L 689.4,260.4 L 689.8,261.0 L 690.1,261.5 L 690.5,262.1 L 690.8,262.6 L 691.1,263.2 L 691.5,263.9 L 691.8,264.5 L 692.2,265.1 L 692.5,265.8 L 692.9,266.4 L 693.2,267.1 L 693.6,267.8 L 693.9,268.6 L 694.3,269.3 L 694.6,270.0 L 695.0,270.8 L 695.3,271.6 L 695.6,272.4 L 696.0,273.2 L 696.3,274.0 L 696.7,274.9 L 697.0,275.8 L 697.4,276.7 L 697.7,277.6 L 698.1,278.5 L 698.4,279.4 L 698.8,280.4 L 699.1,281.4 L 699.5,282.4 L 699.8,283.4 L 700.1,284.4 L 700.5,285.5 L 700.8,286.6 L 701.2,287.7 L 701.5,288.8 L 701.9,289.9 L 702.2,291.1 L 702.6,292.3 L 702.9,293.5 L 703.3,294.7 L 703.6,295.9 L 704.0,297.2 L 704.3,298.5 L 704.6,299.8 L 705.0,301.1 L 705.3,302.5 L 705.7,303.8 L 706.0,305.2 L 706.4,306.6 L 706.7,308.1 L 707.1,309.6 L 707.4,311.0 L 707.8,312.6 L 708.1,314.1 L 708.4,315.7 L 708.8,317.2 L 709.1,318.9 L 709.5,320.5 L 709.8,322.2 L 710.2,323.8 L 710.5,325.6 L 710.9,327.3 L 711.2,329.1 L 711.6,330.9 L 711.9,332.7 L 712.3,334.5 L 712.6,336.4 L 712.9,338.3 L 713.3,340.2 L 713.6,342.2 L 714.0,344.2 L 714.3,346.2 L 714.7,348.2 L 715.0,350.3 L 715.4,352.4 L 715.7,354.5 L 716.1,356.7 L 716.4,358.9 L 716.8,361.1 L 717.1,363.4 L 717.4,365.7 L 717.8,368.0 L 718.1,370.3 L 718.5,372.7 L 718.8,375.1 L 719.2,377.6 L 719.5,380.0 L 719.9,382.6 L 720.2,385.1 L 720.6,387.7 L 720.9,390.3 L 721.2,392.9 L 721.6,395.6 L 721.9,398.3 L 722.3,401.1 L 722.6,403.9 L 723.0,406.7 L 723.3,409.6 L 723.7,412.5 L 724.0,415.4 L 724.4,418.4 L 724.7,421.4 L 725.1,424.5 L 725.4,427.5 L 725.7,430.7 L 726.1,433.8" fill="none" stroke="#5aa0b8" stroke-width="1.5" opacity="0.9"/>
<path d="M 560.0,372.0 L 560.4,371.4 L 560.7,370.7 L 561.1,370.1 L 561.4,369.4 L 561.7,368.7 L 562.1,368.1 L 562.4,367.4 L 562.8,366.8 L 563.1,366.1 L 563.5,365.5 L 563.8,364.8 L 564.2,364.2 L 564.5,363.5 L 564.9,362.9 L 565.2,362.2 L 565.6,361.6 L 565.9,360.9 L 566.2,360.3 L 566.6,359.6 L 566.9,359.0 L 567.3,358.3 L 567.6,357.7 L 568.0,357.0 L 568.3,356.4 L 568.7,355.7 L 569.0,355.1 L 569.4,354.4 L 569.7,353.8 L 570.1,353.2 L 570.4,352.5 L 570.7,351.9 L 571.1,351.2 L 571.4,350.6 L 571.8,350.0 L 572.1,349.3 L 572.5,348.7 L 572.8,348.0 L 573.2,347.4 L 573.5,346.8 L 573.9,346.1 L 574.2,345.5 L 574.6,344.9 L 574.9,344.3 L 575.2,343.6 L 575.6,343.0 L 575.9,342.4 L 576.3,341.7 L 576.6,341.1 L 577.0,340.5 L 577.3,339.9 L 577.7,339.2 L 578.0,338.6 L 578.4,338.0 L 578.7,337.4 L 579.0,336.7 L 579.4,336.1 L 579.7,335.5 L 580.1,334.9 L 580.4,334.3 L 580.8,333.7 L 581.1,333.0 L 581.5,332.4 L 581.8,331.8 L 582.2,331.2 L 582.5,330.6 L 582.9,330.0 L 583.2,329.4 L 583.5,328.8 L 583.9,328.2 L 584.2,327.6 L 584.6,327.0 L 584.9,326.4 L 585.3,325.8 L 585.6,325.2 L 586.0,324.6 L 586.3,324.0 L 586.7,323.4 L 587.0,322.8 L 587.4,322.2 L 587.7,321.6 L 588.0,321.0 L 588.4,320.4 L 588.7,319.8 L 589.1,319.2 L 589.4,318.6 L 589.8,318.0 L 590.1,317.5 L 590.5,316.9 L 590.8,316.3 L 591.2,315.7 L 591.5,315.1 L 591.8,314.5 L 592.2,314.0 L 592.5,313.4 L 592.9,312.8 L 593.2,312.3 L 593.6,311.7 L 593.9,311.1 L 594.3,310.5 L 594.6,310.0 L 595.0,309.4 L 595.3,308.8 L 595.7,308.3 L 596.0,307.7 L 596.3,307.2 L 596.7,306.6 L 597.0,306.1 L 597.4,305.5 L 597.7,305.0 L 598.1,304.4 L 598.4,303.9 L 598.8,303.3 L 599.1,302.8 L 599.5,302.2 L 599.8,301.7 L 600.2,301.1 L 600.5,300.6 L 600.8,300.1 L 601.2,299.5 L 601.5,299.0 L 601.9,298.5 L 602.2,297.9 L 602.6,297.4 L 602.9,296.9 L 603.3,296.4 L 603.6,295.8 L 604.0,295.3 L 604.3,294.8 L 604.7,294.3 L 605.0,293.8 L 605.3,293.3 L 605.7,292.8 L 606.0,292.3 L 606.4,291.8 L 606.7,291.3 L 607.1,290.8 L 607.4,290.3 L 607.8,289.8 L 608.1,289.3 L 608.5,288.8 L 608.8,288.3 L 609.1,287.8 L 609.5,287.3 L 609.8,286.9 L 610.2,286.4 L 610.5,285.9 L 610.9,285.4 L 611.2,285.0 L 611.6,284.5 L 611.9,284.0 L 612.3,283.6 L 612.6,283.1 L 613.0,282.7 L 613.3,282.2 L 613.6,281.8 L 614.0,281.3 L 614.3,280.9 L 614.7,280.4 L 615.0,280.0 L 615.4,279.6 L 615.7,279.1 L 616.1,278.7 L 616.4,278.3 L 616.8,277.9 L 617.1,277.4 L 617.5,277.0 L 617.8,276.6 L 618.1,276.2 L 618.5,275.8 L 618.8,275.4 L 619.2,275.0 L 619.5,274.6 L 619.9,274.2 L 620.2,273.8 L 620.6,273.4 L 620.9,273.0 L 621.3,272.7 L 621.6,272.3 L 622.0,271.9 L 622.3,271.6 L 622.6,271.2 L 623.0,270.8 L 623.3,270.5 L 623.7,270.1 L 624.0,269.8 L 624.4,269.4 L 624.7,269.1 L 625.1,268.8 L 625.4,268.4 L 625.8,268.1 L 626.1,267.8 L 626.4,267.5 L 626.8,267.2 L 627.1,266.8 L 627.5,266.5 L 627.8,266.2 L 628.2,266.0 L 628.5,265.7 L 628.9,265.4 L 629.2,265.1 L 629.6,264.8 L 629.9,264.6 L 630.3,264.3 L 630.6,264.0 L 630.9,263.8 L 631.3,263.5 L 631.6,263.3 L 632.0,263.0 L 632.3,262.8 L 632.7,262.6 L 633.0,262.4 L 633.4,262.1 L 633.7,261.9 L 634.1,261.7 L 634.4,261.5 L 634.8,261.3 L 635.1,261.1 L 635.4,261.0 L 635.8,260.8 L 636.1,260.6 L 636.5,260.5 L 636.8,260.3 L 637.2,260.1 L 637.5,260.0 L 637.9,259.9 L 638.2,259.7 L 638.6,259.6 L 638.9,259.5 L 639.3,259.4 L 639.6,259.3 L 639.9,259.2 L 640.3,259.1 L 640.6,259.0 L 641.0,258.9 L 641.3,258.9 L 641.7,258.8 L 642.0,258.8 L 642.4,258.7 L 642.7,258.7 L 643.1,258.6 L 643.4,258.6 L 643.7,258.6 L 644.1,258.6 L 644.4,258.6 L 644.8,258.6 L 645.1,258.6 L 645.5,258.7 L 645.8,258.7 L 646.2,258.8 L 646.5,258.8 L 646.9,258.9 L 647.2,258.9 L 647.6,259.0 L 647.9,259.1 L 648.2,259.2 L 648.6,259.3 L 648.9,259.4 L 649.3,259.6 L 649.6,259.7 L 650.0,259.9 L 650.3,260.0 L 650.7,260.2 L 651.0,260.4 L 651.4,260.6 L 651.7,260.8 L 652.1,261.0 L 652.4,261.2 L 652.7,261.4 L 653.1,261.7 L 653.4,261.9 L 653.8,262.2 L 654.1,262.5 L 654.5,262.7 L 654.8,263.0 L 655.2,263.4 L 655.5,263.7 L 655.9,264.0 L 656.2,264.4 L 656.5,264.7 L 656.9,265.1 L 657.2,265.5 L 657.6,265.9 L 657.9,266.3 L 658.3,266.7 L 658.6,267.1 L 659.0,267.6 L 659.3,268.1 L 659.7,268.5 L 660.0,269.0 L 660.4,269.5 L 660.7,270.0 L 661.0,270.6 L 661.4,271.1 L 661.7,271.7 L 662.1,272.3 L 662.4,272.8 L 662.8,273.4 L 663.1,274.1 L 663.5,274.7 L 663.8,275.3 L 664.2,276.0 L 664.5,276.7 L 664.9,277.4 L 665.2,278.1 L 665.5,278.8 L 665.9,279.6 L 666.2,280.3 L 666.6,281.1 L 666.9,281.9 L 667.3,282.7 L 667.6,283.6 L 668.0,284.4 L 668.3,285.3 L 668.7,286.1 L 669.0,287.0 L 669.4,288.0 L 669.7,288.9 L 670.0,289.9 L 670.4,290.8 L 670.7,291.8 L 671.1,292.8 L 671.4,293.9 L 671.8,294.9 L 672.1,296.0 L 672.5,297.1 L 672.8,298.2 L 673.2,299.3 L 673.5,300.5 L 673.8,301.6 L 674.2,302.8 L 674.5,304.0 L 674.9,305.3 L 675.2,306.5 L 675.6,307.8 L 675.9,309.1 L 676.3,310.4 L 676.6,311.8 L 677.0,313.1 L 677.3,314.5 L 677.7,315.9 L 678.0,317.4 L 678.3,318.8 L 678.7,320.3 L 679.0,321.8 L 679.4,323.3 L 679.7,324.9 L 680.1,326.5 L 680.4,328.1 L 680.8,329.7 L 681.1,331.4 L 681.5,333.0 L 681.8,334.7 L 682.2,336.5 L 682.5,338.2 L 682.8,340.0 L 683.2,341.8 L 683.5,343.7 L 683.9,345.5 L 684.2,347.4 L 684.6,349.3 L 684.9,351.3 L 685.3,353.2 L 685.6,355.3 L 686.0,357.3 L 686.3,359.3 L 686.7,361.4 L 687.0,363.6 L 687.3,365.7 L 687.7,367.9 L 688.0,370.1 L 688.4,372.3 L 688.7,374.6 L 689.1,376.9 L 689.4,379.3 L 689.8,381.6 L 690.1,384.0 L 690.5,386.5 L 690.8,388.9 L 691.1,391.4 L 691.5,394.0 L 691.8,396.5 L 692.2,399.1 L 692.5,401.8 L 692.9,404.4 L 693.2,407.1 L 693.6,409.9 L 693.9,412.7 L 694.3,415.5 L 694.6,418.3 L 695.0,421.2 L 695.3,424.1 L 695.6,427.1 L 696.0,430.1 L 696.3,433.1 L 696.7,436.2" fill="none" stroke="#d9923a" stroke-width="1.5" opacity="0.9"/>
<path d="M 560.0,330.1 L 560.4,329.5 L 560.7,328.9 L 561.1,328.3 L 561.4,327.7 L 561.7,327.1 L 562.1,326.5 L 562.4,326.0 L 562.8,325.4 L 563.1,324.8 L 563.5,324.2 L 563.8,323.7 L 564.2,323.1 L 564.5,322.5 L 564.9,321.9 L 565.2,321.4 L 565.6,320.8 L 565.9,320.2 L 566.2,319.7 L 566.6,319.1 L 566.9,318.5 L 567.3,318.0 L 567.6,317.4 L 568.0,316.9 L 568.3,316.3 L 568.7,315.7 L 569.0,315.2 L 569.4,314.6 L 569.7,314.1 L 570.1,313.5 L 570.4,313.0 L 570.7,312.4 L 571.1,311.9 L 571.4,311.4 L 571.8,310.8 L 572.1,310.3 L 572.5,309.8 L 572.8,309.2 L 573.2,308.7 L 573.5,308.2 L 573.9,307.6 L 574.2,307.1 L 574.6,306.6 L 574.9,306.1 L 575.2,305.5 L 575.6,305.0 L 575.9,304.5 L 576.3,304.0 L 576.6,303.5 L 577.0,303.0 L 577.3,302.5 L 577.7,302.0 L 578.0,301.5 L 578.4,301.0 L 578.7,300.5 L 579.0,300.0 L 579.4,299.5 L 579.7,299.0 L 580.1,298.5 L 580.4,298.0 L 580.8,297.5 L 581.1,297.0 L 581.5,296.6 L 581.8,296.1 L 582.2,295.6 L 582.5,295.1 L 582.9,294.7 L 583.2,294.2 L 583.5,293.7 L 583.9,293.3 L 584.2,292.8 L 584.6,292.4 L 584.9,291.9 L 585.3,291.5 L 585.6,291.0 L 586.0,290.6 L 586.3,290.1 L 586.7,289.7 L 587.0,289.3 L 587.4,288.8 L 587.7,288.4 L 588.0,288.0 L 588.4,287.6 L 588.7,287.1 L 589.1,286.7 L 589.4,286.3 L 589.8,285.9 L 590.1,285.5 L 590.5,285.1 L 590.8,284.7 L 591.2,284.3 L 591.5,283.9 L 591.8,283.5 L 592.2,283.1 L 592.5,282.8 L 592.9,282.4 L 593.2,282.0 L 593.6,281.6 L 593.9,281.3 L 594.3,280.9 L 594.6,280.5 L 595.0,280.2 L 595.3,279.8 L 595.7,279.5 L 596.0,279.2 L 596.3,278.8 L 596.7,278.5 L 597.0,278.2 L 597.4,277.8 L 597.7,277.5 L 598.1,277.2 L 598.4,276.9 L 598.8,276.6 L 599.1,276.3 L 599.5,276.0 L 599.8,275.7 L 600.2,275.4 L 600.5,275.1 L 600.8,274.8 L 601.2,274.6 L 601.5,274.3 L 601.9,274.0 L 602.2,273.8 L 602.6,273.5 L 602.9,273.3 L 603.3,273.0 L 603.6,272.8 L 604.0,272.5 L 604.3,272.3 L 604.7,272.1 L 605.0,271.9 L 605.3,271.7 L 605.7,271.5 L 606.0,271.3 L 606.4,271.1 L 606.7,270.9 L 607.1,270.7 L 607.4,270.5 L 607.8,270.4 L 608.1,270.2 L 608.5,270.0 L 608.8,269.9 L 609.1,269.8 L 609.5,269.6 L 609.8,269.5 L 610.2,269.4 L 610.5,269.2 L 610.9,269.1 L 611.2,269.0 L 611.6,268.9 L 611.9,268.9 L 612.3,268.8 L 612.6,268.7 L 613.0,268.6 L 613.3,268.6 L 613.6,268.5 L 614.0,268.5 L 614.3,268.4 L 614.7,268.4 L 615.0,268.4 L 615.4,268.4 L 615.7,268.4 L 616.1,268.4 L 616.4,268.4 L 616.8,268.4 L 617.1,268.5 L 617.5,268.5 L 617.8,268.5 L 618.1,268.6 L 618.5,268.7 L 618.8,268.7 L 619.2,268.8 L 619.5,268.9 L 619.9,269.0 L 620.2,269.1 L 620.6,269.2 L 620.9,269.4 L 621.3,269.5 L 621.6,269.7 L 622.0,269.8 L 622.3,270.0 L 622.6,270.2 L 623.0,270.4 L 623.3,270.6 L 623.7,270.8 L 624.0,271.0 L 624.4,271.2 L 624.7,271.5 L 625.1,271.7 L 625.4,272.0 L 625.8,272.3 L 626.1,272.6 L 626.4,272.9 L 626.8,273.2 L 627.1,273.5 L 627.5,273.8 L 627.8,274.2 L 628.2,274.6 L 628.5,274.9 L 628.9,275.3 L 629.2,275.7 L 629.6,276.1 L 629.9,276.5 L 630.3,277.0 L 630.6,277.4 L 630.9,277.9 L 631.3,278.4 L 631.6,278.9 L 632.0,279.4 L 632.3,279.9 L 632.7,280.4 L 633.0,281.0 L 633.4,281.5 L 633.7,282.1 L 634.1,282.7 L 634.4,283.3 L 634.8,283.9 L 635.1,284.6 L 635.4,285.2 L 635.8,285.9 L 636.1,286.6 L 636.5,287.3 L 636.8,288.0 L 637.2,288.7 L 637.5,289.5 L 637.9,290.2 L 638.2,291.0 L 638.6,291.8 L 638.9,292.6 L 639.3,293.5 L 639.6,294.3 L 639.9,295.2 L 640.3,296.1 L 640.6,297.0 L 641.0,297.9 L 641.3,298.8 L 641.7,299.8 L 642.0,300.8 L 642.4,301.8 L 642.7,302.8 L 643.1,303.8 L 643.4,304.9 L 643.7,305.9 L 644.1,307.0 L 644.4,308.1 L 644.8,309.3 L 645.1,310.4 L 645.5,311.6 L 645.8,312.8 L 646.2,314.0 L 646.5,315.2 L 646.9,316.5 L 647.2,317.8 L 647.6,319.1 L 647.9,320.4 L 648.2,321.7 L 648.6,323.1 L 648.9,324.5 L 649.3,325.9 L 649.6,327.4 L 650.0,328.8 L 650.3,330.3 L 650.7,331.8 L 651.0,333.4 L 651.4,334.9 L 651.7,336.5 L 652.1,338.1 L 652.4,339.7 L 652.7,341.4 L 653.1,343.1 L 653.4,344.8 L 653.8,346.5 L 654.1,348.3 L 654.5,350.1 L 654.8,351.9 L 655.2,353.7 L 655.5,355.6 L 655.9,357.5 L 656.2,359.4 L 656.5,361.4 L 656.9,363.3 L 657.2,365.3 L 657.6,367.4 L 657.9,369.4 L 658.3,371.5 L 658.6,373.7 L 659.0,375.8 L 659.3,378.0 L 659.7,380.2 L 660.0,382.5 L 660.4,384.7 L 660.7,387.1 L 661.0,389.4 L 661.4,391.8 L 661.7,394.2 L 662.1,396.6 L 662.4,399.1 L 662.8,401.6 L 663.1,404.1 L 663.5,406.7 L 663.8,409.3 L 664.2,412.0 L 664.5,414.6 L 664.9,417.3 L 665.2,420.1 L 665.5,422.9 L 665.9,425.7 L 666.2,428.5 L 666.6,431.4 L 666.9,434.4" fill="none" stroke="#c0633a" stroke-width="1.5" opacity="0.9"/>
<path d="M 560.0,295.9 L 560.4,295.5 L 560.7,295.1 L 561.1,294.7 L 561.4,294.3 L 561.7,293.9 L 562.1,293.5 L 562.4,293.2 L 562.8,292.8 L 563.1,292.4 L 563.5,292.0 L 563.8,291.7 L 564.2,291.3 L 564.5,291.0 L 564.9,290.6 L 565.2,290.2 L 565.6,289.9 L 565.9,289.6 L 566.2,289.2 L 566.6,288.9 L 566.9,288.6 L 567.3,288.2 L 567.6,287.9 L 568.0,287.6 L 568.3,287.3 L 568.7,287.0 L 569.0,286.7 L 569.4,286.4 L 569.7,286.1 L 570.1,285.8 L 570.4,285.5 L 570.7,285.2 L 571.1,284.9 L 571.4,284.7 L 571.8,284.4 L 572.1,284.1 L 572.5,283.9 L 572.8,283.6 L 573.2,283.4 L 573.5,283.2 L 573.9,282.9 L 574.2,282.7 L 574.6,282.5 L 574.9,282.3 L 575.2,282.0 L 575.6,281.8 L 575.9,281.6 L 576.3,281.4 L 576.6,281.3 L 577.0,281.1 L 577.3,280.9 L 577.7,280.7 L 578.0,280.6 L 578.4,280.4 L 578.7,280.3 L 579.0,280.1 L 579.4,280.0 L 579.7,279.8 L 580.1,279.7 L 580.4,279.6 L 580.8,279.5 L 581.1,279.4 L 581.5,279.3 L 581.8,279.2 L 582.2,279.1 L 582.5,279.0 L 582.9,279.0 L 583.2,278.9 L 583.5,278.9 L 583.9,278.8 L 584.2,278.8 L 584.6,278.7 L 584.9,278.7 L 585.3,278.7 L 585.6,278.7 L 586.0,278.7 L 586.3,278.7 L 586.7,278.7 L 587.0,278.8 L 587.4,278.8 L 587.7,278.8 L 588.0,278.9 L 588.4,279.0 L 588.7,279.0 L 589.1,279.1 L 589.4,279.2 L 589.8,279.3 L 590.1,279.4 L 590.5,279.5 L 590.8,279.7 L 591.2,279.8 L 591.5,279.9 L 591.8,280.1 L 592.2,280.3 L 592.5,280.4 L 592.9,280.6 L 593.2,280.8 L 593.6,281.0 L 593.9,281.3 L 594.3,281.5 L 594.6,281.7 L 595.0,282.0 L 595.3,282.2 L 595.7,282.5 L 596.0,282.8 L 596.3,283.1 L 596.7,283.4 L 597.0,283.7 L 597.4,284.1 L 597.7,284.4 L 598.1,284.8 L 598.4,285.1 L 598.8,285.5 L 599.1,285.9 L 599.5,286.3 L 599.8,286.8 L 600.2,287.2 L 600.5,287.6 L 600.8,288.1 L 601.2,288.6 L 601.5,289.1 L 601.9,289.6 L 602.2,290.1 L 602.6,290.6 L 602.9,291.2 L 603.3,291.7 L 603.6,292.3 L 604.0,292.9 L 604.3,293.5 L 604.7,294.1 L 605.0,294.7 L 605.3,295.4 L 605.7,296.0 L 606.0,296.7 L 606.4,297.4 L 606.7,298.1 L 607.1,298.8 L 607.4,299.6 L 607.8,300.4 L 608.1,301.1 L 608.5,301.9 L 608.8,302.7 L 609.1,303.6 L 609.5,304.4 L 609.8,305.3 L 610.2,306.1 L 610.5,307.0 L 610.9,308.0 L 611.2,308.9 L 611.6,309.9 L 611.9,310.8 L 612.3,311.8 L 612.6,312.8 L 613.0,313.9 L 613.3,314.9 L 613.6,316.0 L 614.0,317.1 L 614.3,318.2 L 614.7,319.3 L 615.0,320.4 L 615.4,321.6 L 615.7,322.8 L 616.1,324.0 L 616.4,325.2 L 616.8,326.5 L 617.1,327.8 L 617.5,329.1 L 617.8,330.4 L 618.1,331.7 L 618.5,333.1 L 618.8,334.5 L 619.2,335.9 L 619.5,337.3 L 619.9,338.8 L 620.2,340.2 L 620.6,341.7 L 620.9,343.3 L 621.3,344.8 L 621.6,346.4 L 622.0,348.0 L 622.3,349.6 L 622.6,351.3 L 623.0,353.0 L 623.3,354.7 L 623.7,356.4 L 624.0,358.1 L 624.4,359.9 L 624.7,361.7 L 625.1,363.6 L 625.4,365.4 L 625.8,367.3 L 626.1,369.2 L 626.4,371.2 L 626.8,373.1 L 627.1,375.1 L 627.5,377.2 L 627.8,379.2 L 628.2,381.3 L 628.5,383.4 L 628.9,385.6 L 629.2,387.8 L 629.6,390.0 L 629.9,392.2 L 630.3,394.5 L 630.6,396.8 L 630.9,399.1 L 631.3,401.5 L 631.6,403.9 L 632.0,406.3 L 632.3,408.8 L 632.7,411.3 L 633.0,413.8 L 633.4,416.4 L 633.7,419.0 L 634.1,421.6 L 634.4,424.3 L 634.8,427.0 L 635.1,429.7 L 635.4,432.5 L 635.8,435.3" fill="none" stroke="#a8312a" stroke-width="1.5" opacity="0.9"/>
<line x1="571.6" y1="283.7" x2="744.6" y2="223.9" stroke="#142331" stroke-width="1.1" stroke-dasharray="5 4" opacity="0.6"/>
<path d="M 560.0,172.6 L 560.4,172.5 L 560.7,172.4 L 561.1,172.2 L 561.4,172.1 L 561.7,171.9 L 562.1,171.8 L 562.4,171.7 L 562.8,171.5 L 563.1,171.4 L 563.5,171.3 L 563.8,171.1 L 564.2,171.0 L 564.5,170.9 L 564.9,170.7 L 565.2,170.6 L 565.6,170.5 L 565.9,170.4 L 566.2,170.2 L 566.6,170.1 L 566.9,170.0 L 567.3,169.8 L 567.6,169.7 L 568.0,169.6 L 568.3,169.5 L 568.7,169.3 L 569.0,169.2 L 569.4,169.1 L 569.7,169.0 L 570.1,168.9 L 570.4,168.7 L 570.7,168.6 L 571.1,168.5 L 571.4,168.4 L 571.8,168.2 L 572.1,168.1 L 572.5,168.0 L 572.8,167.9 L 573.2,167.8 L 573.5,167.6 L 573.9,167.5 L 574.2,167.4 L 574.6,167.3 L 574.9,167.2 L 575.2,167.0 L 575.6,166.9 L 575.9,166.8 L 576.3,166.7 L 576.6,166.6 L 577.0,166.4 L 577.3,166.3 L 577.7,166.2 L 578.0,166.1 L 578.4,166.0 L 578.7,165.8 L 579.0,165.7 L 579.4,165.6 L 579.7,165.5 L 580.1,165.4 L 580.4,165.3 L 580.8,165.1 L 581.1,165.0 L 581.5,164.9 L 581.8,164.8 L 582.2,164.7 L 582.5,164.5 L 582.9,164.4 L 583.2,164.3 L 583.5,164.2 L 583.9,164.1 L 584.2,164.0 L 584.6,163.8 L 584.9,163.7 L 585.3,163.6 L 585.6,163.5 L 586.0,163.4 L 586.3,163.2 L 586.7,163.1 L 587.0,163.0 L 587.4,162.9 L 587.7,162.8 L 588.0,162.7 L 588.4,162.5 L 588.7,162.4 L 589.1,162.3 L 589.4,162.2 L 589.8,162.1 L 590.1,162.0 L 590.5,161.8 L 590.8,161.7 L 591.2,161.6 L 591.5,161.5 L 591.8,161.4 L 592.2,161.3 L 592.5,161.1 L 592.9,161.0 L 593.2,160.9 L 593.6,160.8 L 593.9,160.7 L 594.3,160.5 L 594.6,160.4 L 595.0,160.3 L 595.3,160.2 L 595.7,160.1 L 596.0,160.0 L 596.3,159.8 L 596.7,159.7 L 597.0,159.6 L 597.4,159.5 L 597.7,159.4 L 598.1,159.3 L 598.4,159.1 L 598.8,159.0 L 599.1,158.9 L 599.5,158.8 L 599.8,158.7 L 600.2,158.6 L 600.5,158.5 L 600.8,158.3 L 601.2,158.2 L 601.5,158.1 L 601.9,158.0 L 602.2,157.9 L 602.6,157.8 L 602.9,157.6 L 603.3,157.5 L 603.6,157.4 L 604.0,157.3 L 604.3,157.2 L 604.7,157.1 L 605.0,156.9 L 605.3,156.8 L 605.7,156.7 L 606.0,156.6 L 606.4,156.5 L 606.7,156.4 L 607.1,156.2 L 607.4,156.1 L 607.8,156.0 L 608.1,155.9 L 608.5,155.8 L 608.8,155.7 L 609.1,155.6 L 609.5,155.4 L 609.8,155.3 L 610.2,155.2 L 610.5,155.1 L 610.9,155.0 L 611.2,154.9 L 611.6,154.8 L 611.9,154.6 L 612.3,154.5 L 612.6,154.4 L 613.0,154.3 L 613.3,154.2 L 613.6,154.1 L 614.0,154.0 L 614.3,153.8 L 614.7,153.7 L 615.0,153.6 L 615.4,153.5 L 615.7,153.4 L 616.1,153.3 L 616.4,153.2 L 616.8,153.0 L 617.1,152.9 L 617.5,152.8 L 617.8,152.7 L 618.1,152.6 L 618.5,152.5 L 618.8,152.4 L 619.2,152.3 L 619.5,152.1 L 619.9,152.0 L 620.2,151.9 L 620.6,151.8 L 620.9,151.7 L 621.3,151.6 L 621.6,151.5 L 622.0,151.4 L 622.3,151.2 L 622.6,151.1 L 623.0,151.0 L 623.3,150.9 L 623.7,150.8 L 624.0,150.7 L 624.4,150.6 L 624.7,150.5 L 625.1,150.3 L 625.4,150.2 L 625.8,150.1 L 626.1,150.0 L 626.4,149.9 L 626.8,149.8 L 627.1,149.7 L 627.5,149.6 L 627.8,149.5 L 628.2,149.4 L 628.5,149.2 L 628.9,149.1 L 629.2,149.0 L 629.6,148.9 L 629.9,148.8 L 630.3,148.7 L 630.6,148.6 L 630.9,148.5 L 631.3,148.4 L 631.6,148.3 L 632.0,148.1 L 632.3,148.0 L 632.7,147.9 L 633.0,147.8 L 633.4,147.7 L 633.7,147.6 L 634.1,147.5 L 634.4,147.4 L 634.8,147.3 L 635.1,147.2 L 635.4,147.1 L 635.8,147.0 L 636.1,146.9 L 636.5,146.8 L 636.8,146.6 L 637.2,146.5 L 637.5,146.4 L 637.9,146.3 L 638.2,146.2 L 638.6,146.1 L 638.9,146.0 L 639.3,145.9 L 639.6,145.8 L 639.9,145.7 L 640.3,145.6 L 640.6,145.5 L 641.0,145.4 L 641.3,145.3 L 641.7,145.2 L 642.0,145.1 L 642.4,145.0 L 642.7,144.9 L 643.1,144.8 L 643.4,144.7 L 643.7,144.6 L 644.1,144.5 L 644.4,144.4 L 644.8,144.3 L 645.1,144.2 L 645.5,144.1 L 645.8,144.0 L 646.2,143.9 L 646.5,143.8 L 646.9,143.7 L 647.2,143.6 L 647.6,143.5 L 647.9,143.4 L 648.2,143.3 L 648.6,143.2 L 648.9,143.1 L 649.3,143.0 L 649.6,142.9 L 650.0,142.8 L 650.3,142.7 L 650.7,142.6 L 651.0,142.5 L 651.4,142.4 L 651.7,142.3 L 652.1,142.2 L 652.4,142.1 L 652.7,142.0 L 653.1,141.9 L 653.4,141.8 L 653.8,141.8 L 654.1,141.7 L 654.5,141.6 L 654.8,141.5 L 655.2,141.4 L 655.5,141.3 L 655.9,141.2 L 656.2,141.1 L 656.5,141.0 L 656.9,140.9 L 657.2,140.9 L 657.6,140.8 L 657.9,140.7 L 658.3,140.6 L 658.6,140.5 L 659.0,140.4 L 659.3,140.3 L 659.7,140.3 L 660.0,140.2 L 660.4,140.1 L 660.7,140.0 L 661.0,139.9 L 661.4,139.8 L 661.7,139.8 L 662.1,139.7 L 662.4,139.6 L 662.8,139.5 L 663.1,139.4 L 663.5,139.4 L 663.8,139.3 L 664.2,139.2 L 664.5,139.1 L 664.9,139.0 L 665.2,139.0 L 665.5,138.9 L 665.9,138.8 L 666.2,138.7 L 666.6,138.7 L 666.9,138.6 L 667.3,138.5 L 667.6,138.5 L 668.0,138.4 L 668.3,138.3 L 668.7,138.2 L 669.0,138.2 L 669.4,138.1 L 669.7,138.0 L 670.0,138.0 L 670.4,137.9 L 670.7,137.8 L 671.1,137.8 L 671.4,137.7 L 671.8,137.6 L 672.1,137.6 L 672.5,137.5 L 672.8,137.5 L 673.2,137.4 L 673.5,137.3 L 673.8,137.3 L 674.2,137.2 L 674.5,137.2 L 674.9,137.1 L 675.2,137.1 L 675.6,137.0 L 675.9,137.0 L 676.3,136.9 L 676.6,136.9 L 677.0,136.8 L 677.3,136.8 L 677.7,136.7 L 678.0,136.7 L 678.3,136.6 L 678.7,136.6 L 679.0,136.5 L 679.4,136.5 L 679.7,136.5 L 680.1,136.4 L 680.4,136.4 L 680.8,136.3 L 681.1,136.3 L 681.5,136.3 L 681.8,136.2 L 682.2,136.2 L 682.5,136.2 L 682.8,136.1 L 683.2,136.1 L 683.5,136.1 L 683.9,136.1 L 684.2,136.0 L 684.6,136.0 L 684.9,136.0 L 685.3,136.0 L 685.6,135.9 L 686.0,135.9 L 686.3,135.9 L 686.7,135.9 L 687.0,135.9 L 687.3,135.9 L 687.7,135.9 L 688.0,135.8 L 688.4,135.8 L 688.7,135.8 L 689.1,135.8 L 689.4,135.8 L 689.8,135.8 L 690.1,135.8 L 690.5,135.8 L 690.8,135.8 L 691.1,135.8 L 691.5,135.8 L 691.8,135.8 L 692.2,135.9 L 692.5,135.9 L 692.9,135.9 L 693.2,135.9 L 693.6,135.9 L 693.9,135.9 L 694.3,136.0 L 694.6,136.0 L 695.0,136.0 L 695.3,136.0 L 695.6,136.1 L 696.0,136.1 L 696.3,136.1 L 696.7,136.2 L 697.0,136.2 L 697.4,136.2 L 697.7,136.3 L 698.1,136.3 L 698.4,136.4 L 698.8,136.4 L 699.1,136.5 L 699.5,136.5 L 699.8,136.6 L 700.1,136.6 L 700.5,136.7 L 700.8,136.8 L 701.2,136.8 L 701.5,136.9 L 701.9,137.0 L 702.2,137.0 L 702.6,137.1 L 702.9,137.2 L 703.3,137.3 L 703.6,137.4 L 704.0,137.4 L 704.3,137.5 L 704.6,137.6 L 705.0,137.7 L 705.3,137.8 L 705.7,137.9 L 706.0,138.0 L 706.4,138.1 L 706.7,138.2 L 707.1,138.3 L 707.4,138.5 L 707.8,138.6 L 708.1,138.7 L 708.4,138.8 L 708.8,139.0 L 709.1,139.1 L 709.5,139.2 L 709.8,139.4 L 710.2,139.5 L 710.5,139.7 L 710.9,139.8 L 711.2,140.0 L 711.6,140.1 L 711.9,140.3 L 712.3,140.4 L 712.6,140.6 L 712.9,140.8 L 713.3,141.0 L 713.6,141.1 L 714.0,141.3 L 714.3,141.5 L 714.7,141.7 L 715.0,141.9 L 715.4,142.1 L 715.7,142.3 L 716.1,142.5 L 716.4,142.7 L 716.8,143.0 L 717.1,143.2 L 717.4,143.4 L 717.8,143.6 L 718.1,143.9 L 718.5,144.1 L 718.8,144.4 L 719.2,144.6 L 719.5,144.9 L 719.9,145.1 L 720.2,145.4 L 720.6,145.7 L 720.9,146.0 L 721.2,146.2 L 721.6,146.5 L 721.9,146.8 L 722.3,147.1 L 722.6,147.4 L 723.0,147.7 L 723.3,148.0 L 723.7,148.4 L 724.0,148.7 L 724.4,149.0 L 724.7,149.4 L 725.1,149.7 L 725.4,150.0 L 725.7,150.4 L 726.1,150.8 L 726.4,151.1 L 726.8,151.5 L 727.1,151.9 L 727.5,152.3 L 727.8,152.7 L 728.2,153.1 L 728.5,153.5 L 728.9,153.9 L 729.2,154.3 L 729.6,154.8 L 729.9,155.2 L 730.2,155.6 L 730.6,156.1 L 730.9,156.5 L 731.3,157.0 L 731.6,157.5 L 732.0,158.0 L 732.3,158.5 L 732.7,158.9 L 733.0,159.5 L 733.4,160.0 L 733.7,160.5 L 734.1,161.0 L 734.4,161.6 L 734.7,162.1 L 735.1,162.7 L 735.4,163.2 L 735.8,163.8 L 736.1,164.4 L 736.5,165.0 L 736.8,165.6 L 737.2,166.2 L 737.5,166.8 L 737.9,167.4 L 738.2,168.0 L 738.5,168.7 L 738.9,169.3 L 739.2,170.0 L 739.6,170.7 L 739.9,171.4 L 740.3,172.1 L 740.6,172.8 L 741.0,173.5 L 741.3,174.2 L 741.7,175.0 L 742.0,175.7 L 742.4,176.5 L 742.7,177.2 L 743.0,178.0 L 743.4,178.8 L 743.7,179.6 L 744.1,180.4 L 744.4,181.2 L 744.8,182.1 L 745.1,182.9 L 745.5,183.8 L 745.8,184.7 L 746.2,185.6 L 746.5,186.5 L 746.9,187.4 L 747.2,188.3 L 747.5,189.2 L 747.9,190.2 L 748.2,191.2 L 748.6,192.1 L 748.9,193.1 L 749.3,194.1 L 749.6,195.1 L 750.0,196.2 L 750.3,197.2 L 750.7,198.3 L 751.0,199.4 L 751.4,200.5 L 751.7,201.6 L 752.0,202.7 L 752.4,203.8 L 752.7,205.0 L 753.1,206.1 L 753.4,207.3 L 753.8,208.5 L 754.1,209.7 L 754.5,211.0 L 754.8,212.2 L 755.2,213.5 L 755.5,214.7 L 755.8,216.0 L 756.2,217.3 L 756.5,218.7 L 756.9,220.0 L 757.2,221.4 L 757.6,222.8 L 757.9,224.2 L 758.3,225.6 L 758.6,227.0 L 759.0,228.5 L 759.3,229.9 L 759.7,231.4 L 760.0,232.9 L 760.3,234.5 L 760.7,236.0 L 761.0,237.6 L 761.4,239.2 L 761.7,240.8 L 762.1,242.4 L 762.4,244.1 L 762.8,245.7 L 763.1,247.4 L 763.5,249.1 L 763.8,250.9 L 764.2,252.6 L 764.5,254.4 L 764.8,256.2 L 765.2,258.0 L 765.5,259.9 L 765.9,261.7 L 766.2,263.6 L 766.6,265.5 L 766.9,267.5 L 767.3,269.4 L 767.6,271.4 L 768.0,273.4 L 768.3,275.4 L 768.6,277.5 L 769.0,279.6 L 769.3,281.7 L 769.7,283.8 L 770.0,286.0 L 770.4,288.1 L 770.7,290.3 L 771.1,292.6 L 771.4,294.8 L 771.8,297.1 L 772.1,299.4 L 772.5,301.8 L 772.8,304.2 L 773.1,306.5 L 773.5,309.0 L 773.8,311.4 L 774.2,313.9 L 774.5,316.4 L 774.9,319.0 L 775.2,321.5 L 775.6,324.1 L 775.9,326.8 L 776.3,329.4 L 776.6,332.1 L 777.0,334.8 L 777.3,337.6 L 777.6,340.4 L 778.0,343.2 L 778.3,346.0 L 778.7,348.9 L 779.0,351.8 L 779.4,354.8 L 779.7,357.8 L 780.1,360.8 L 780.4,363.8 L 780.8,366.9 L 781.1,370.0 L 781.5,373.2 L 781.8,376.4 L 782.1,379.6 L 782.5,382.9 L 782.8,386.2 L 783.2,389.5 L 783.5,392.9 L 783.9,396.3 L 784.2,399.7 L 784.6,403.2 L 784.9,406.8 L 785.3,410.3 L 785.6,413.9 L 785.9,417.6 L 786.3,421.3 L 786.6,425.0 L 787.0,428.8 L 787.3,432.6" fill="none" stroke="#142331" stroke-width="3.3"/>
</g>


<!-- region labels -->
<text x="566" y="338" font-size="13" fill="#7a2417" text-anchor="start">&#957;<tspan font-size="9" dy="-6">2</tspan></text>
<text x="560" y="354" font-size="9.5" fill="#7a2417" text-anchor="start">RJ裾</text>
<text x="560" y="365" font-size="8.5" fill="#9a8478" text-anchor="start">(最も冷たい外縁)</text>

<text x="690" y="170" font-size="14" fill="#142331" text-anchor="middle" font-weight="700">&#957;<tspan font-size="10" dy="-7">1/3</tspan><tspan dy="7"> べき則</tspan></text>
<text x="690" y="186" font-size="10" fill="#52606e" text-anchor="middle">多温度のつなぎ（中間帯）</text>
<text x="640" y="205" font-size="9.5" fill="#52606e" text-anchor="middle" font-style="italic">破線＝各黒体ピークの軌跡</text>

<text x="836" y="300" font-size="11.5" fill="#1f4e79" text-anchor="middle">指数カットオフ</text>
<text x="836" y="314" font-size="9.5" fill="#52606e" text-anchor="middle">Wien</text>
<text x="836" y="325" font-size="8.5" fill="#90a0ad" text-anchor="middle">(最も熱い内縁)</text>

<!-- legend -->
<g font-size="10" fill="#52606e">
<rect x="556" y="116" width="13" height="9" fill="#1f5fb0"/><text x="574" y="124">内縁（高温）</text>
<rect x="556" y="130" width="13" height="9" fill="#5aa0b8"/><text x="574" y="138">&#8595; 温度</text>
<rect x="556" y="144" width="13" height="9" fill="#a8312a"/><text x="574" y="152">外縁（低温）</text>
</g>

<text x="460" y="512" font-size="11.5" fill="#52606e" text-anchor="middle">各半径の黒体（細線：左は傾き2のRJ裾、右はWien急落）を足すと、包絡線（太線）が中間帯で &#957;<tspan font-size="8" dy="-5">1/3</tspan><tspan dy="5"> になる</tspan></text>
</svg>