<?xml version="1.0" encoding="UTF-8"?>
<svg xmlns="http://www.w3.org/2000/svg" viewBox="0 0 900 540" width="900" height="540" font-family="-apple-system, BlinkMacSystemFont, 'Segoe UI', 'Hiragino Sans', 'Noto Sans JP', sans-serif">
<!-- Equivalent width | Style matched to planck-map.svg | License: CC BY 4.0 -->
<rect width="900" height="540" fill="#fafbfc"/>
<text x="450.0" y="40" text-anchor="middle" font-size="25" font-weight="700" fill="#0a1929" letter-spacing="0.06em">等価幅 W の定義</text>
<text x="450.0" y="66" text-anchor="middle" font-size="17" fill="#5a6a7a">吸収線が連続光から引き抜いた光を、同じ面積の長方形で測る（第20章 §20.1）</text>
<path d="M 100.0 153.0 L 101.2 153.0 L 102.3 153.0 L 103.5 153.0 L 104.6 153.0 L 105.8 153.0 L 106.9 153.0 L 108.1 153.0 L 109.2 153.0 L 110.4 153.0 L 111.5 153.0 L 112.7 153.0 L 113.8 153.0 L 115.0 153.0 L 116.1 153.0 L 117.3 153.0 L 118.4 153.0 L 119.6 153.0 L 120.8 153.0 L 121.9 153.0 L 123.1 153.0 L 124.2 153.0 L 125.4 153.0 L 126.5 153.0 L 127.7 153.0 L 128.8 153.0 L 130.0 153.0 L 131.1 153.0 L 132.3 153.0 L 133.4 153.0 L 134.6 153.0 L 135.7 153.0 L 136.9 153.0 L 138.0 153.0 L 139.2 153.0 L 140.4 153.0 L 141.5 153.0 L 142.7 153.0 L 143.8 153.0 L 145.0 153.1 L 146.1 153.1 L 147.3 153.1 L 148.4 153.1 L 149.6 153.1 L 150.7 153.1 L 151.9 153.1 L 153.0 153.1 L 154.2 153.1 L 155.3 153.1 L 156.5 153.1 L 157.6 153.1 L 158.8 153.1 L 159.9 153.1 L 161.1 153.1 L 162.3 153.1 L 163.4 153.1 L 164.6 153.1 L 165.7 153.1 L 166.9 153.1 L 168.0 153.1 L 169.2 153.1 L 170.3 153.1 L 171.5 153.2 L 172.6 153.2 L 173.8 153.2 L 174.9 153.2 L 176.1 153.2 L 177.2 153.2 L 178.4 153.3 L 179.5 153.3 L 180.7 153.3 L 181.9 153.3 L 183.0 153.4 L 184.2 153.4 L 185.3 153.5 L 186.5 153.5 L 187.6 153.5 L 188.8 153.6 L 189.9 153.7 L 191.1 153.7 L 192.2 153.8 L 193.4 153.9 L 194.5 153.9 L 195.7 154.0 L 196.8 154.1 L 198.0 154.2 L 199.1 154.3 L 200.3 154.5 L 201.5 154.6 L 202.6 154.7 L 203.8 154.9 L 204.9 155.1 L 206.1 155.2 L 207.2 155.4 L 208.4 155.7 L 209.5 155.9 L 210.7 156.1 L 211.8 156.4 L 213.0 156.7 L 214.1 157.0 L 215.3 157.3 L 216.4 157.7 L 217.6 158.1 L 218.7 158.5 L 219.9 158.9 L 221.1 159.4 L 222.2 159.9 L 223.4 160.4 L 224.5 161.0 L 225.7 161.6 L 226.8 162.2 L 228.0 162.9 L 229.1 163.6 L 230.3 164.4 L 231.4 165.2 L 232.6 166.1 L 233.7 167.0 L 234.9 167.9 L 236.0 168.9 L 237.2 170.0 L 238.3 171.1 L 239.5 172.3 L 240.7 173.6 L 241.8 174.9 L 243.0 176.3 L 244.1 177.7 L 245.3 179.2 L 246.4 180.8 L 247.6 182.4 L 248.7 184.2 L 249.9 186.0 L 251.0 187.9 L 252.2 189.8 L 253.3 191.8 L 254.5 194.0 L 255.6 196.2 L 256.8 198.4 L 257.9 200.8 L 259.1 203.2 L 260.3 205.7 L 261.4 208.4 L 262.6 211.0 L 263.7 213.8 L 264.9 216.7 L 266.0 219.6 L 267.2 222.6 L 268.3 225.7 L 269.5 228.8 L 270.6 232.1 L 271.8 235.4 L 272.9 238.8 L 274.1 242.2 L 275.2 245.7 L 276.4 249.3 L 277.5 252.9 L 278.7 256.6 L 279.8 260.3 L 281.0 264.1 L 282.2 267.9 L 283.3 271.8 L 284.5 275.6 L 285.6 279.6 L 286.8 283.5 L 287.9 287.4 L 289.1 291.4 L 290.2 295.3 L 291.4 299.3 L 292.5 303.2 L 293.7 307.1 L 294.8 311.0 L 296.0 314.8 L 297.1 318.7 L 298.3 322.4 L 299.4 326.1 L 300.6 329.8 L 301.8 333.4 L 302.9 336.9 L 304.1 340.3 L 305.2 343.7 L 306.4 346.9 L 307.5 350.1 L 308.7 353.1 L 309.8 356.0 L 311.0 358.8 L 312.1 361.5 L 313.3 364.0 L 314.4 366.4 L 315.6 368.6 L 316.7 370.7 L 317.9 372.7 L 319.0 374.4 L 320.2 376.0 L 321.4 377.5 L 322.5 378.7 L 323.7 379.8 L 324.8 380.7 L 326.0 381.5 L 327.1 382.0 L 328.3 382.4 L 329.4 382.6 L 330.6 382.6 L 331.7 382.4 L 332.9 382.0 L 334.0 381.5 L 335.2 380.7 L 336.3 379.8 L 337.5 378.7 L 338.6 377.5 L 339.8 376.0 L 341.0 374.4 L 342.1 372.7 L 343.3 370.7 L 344.4 368.6 L 345.6 366.4 L 346.7 364.0 L 347.9 361.5 L 349.0 358.8 L 350.2 356.0 L 351.3 353.1 L 352.5 350.1 L 353.6 346.9 L 354.8 343.7 L 355.9 340.3 L 357.1 336.9 L 358.2 333.4 L 359.4 329.8 L 360.6 326.1 L 361.7 322.4 L 362.9 318.7 L 364.0 314.8 L 365.2 311.0 L 366.3 307.1 L 367.5 303.2 L 368.6 299.3 L 369.8 295.3 L 370.9 291.4 L 372.1 287.4 L 373.2 283.5 L 374.4 279.6 L 375.5 275.6 L 376.7 271.8 L 377.8 267.9 L 379.0 264.1 L 380.2 260.3 L 381.3 256.6 L 382.5 252.9 L 383.6 249.3 L 384.8 245.7 L 385.9 242.2 L 387.1 238.8 L 388.2 235.4 L 389.4 232.1 L 390.5 228.8 L 391.7 225.7 L 392.8 222.6 L 394.0 219.6 L 395.1 216.7 L 396.3 213.8 L 397.4 211.0 L 398.6 208.4 L 399.7 205.7 L 400.9 203.2 L 402.1 200.8 L 403.2 198.4 L 404.4 196.2 L 405.5 194.0 L 406.7 191.8 L 407.8 189.8 L 409.0 187.9 L 410.1 186.0 L 411.3 184.2 L 412.4 182.4 L 413.6 180.8 L 414.7 179.2 L 415.9 177.7 L 417.0 176.3 L 418.2 174.9 L 419.3 173.6 L 420.5 172.3 L 421.7 171.1 L 422.8 170.0 L 424.0 168.9 L 425.1 167.9 L 426.3 167.0 L 427.4 166.1 L 428.6 165.2 L 429.7 164.4 L 430.9 163.6 L 432.0 162.9 L 433.2 162.2 L 434.3 161.6 L 435.5 161.0 L 436.6 160.4 L 437.8 159.9 L 438.9 159.4 L 440.1 158.9 L 441.3 158.5 L 442.4 158.1 L 443.6 157.7 L 444.7 157.3 L 445.9 157.0 L 447.0 156.7 L 448.2 156.4 L 449.3 156.1 L 450.5 155.9 L 451.6 155.7 L 452.8 155.4 L 453.9 155.2 L 455.1 155.1 L 456.2 154.9 L 457.4 154.7 L 458.5 154.6 L 459.7 154.5 L 460.9 154.3 L 462.0 154.2 L 463.2 154.1 L 464.3 154.0 L 465.5 153.9 L 466.6 153.9 L 467.8 153.8 L 468.9 153.7 L 470.1 153.7 L 471.2 153.6 L 472.4 153.5 L 473.5 153.5 L 474.7 153.5 L 475.8 153.4 L 477.0 153.4 L 478.1 153.3 L 479.3 153.3 L 480.5 153.3 L 481.6 153.3 L 482.8 153.2 L 483.9 153.2 L 485.1 153.2 L 486.2 153.2 L 487.4 153.2 L 488.5 153.2 L 489.7 153.1 L 490.8 153.1 L 492.0 153.1 L 493.1 153.1 L 494.3 153.1 L 495.4 153.1 L 496.6 153.1 L 497.7 153.1 L 498.9 153.1 L 500.1 153.1 L 501.2 153.1 L 502.4 153.1 L 503.5 153.1 L 504.7 153.1 L 505.8 153.1 L 507.0 153.1 L 508.1 153.1 L 509.3 153.1 L 510.4 153.1 L 511.6 153.1 L 512.7 153.1 L 513.9 153.1 L 515.0 153.1 L 516.2 153.0 L 517.3 153.0 L 518.5 153.0 L 519.6 153.0 L 520.8 153.0 L 522.0 153.0 L 523.1 153.0 L 524.3 153.0 L 525.4 153.0 L 526.6 153.0 L 527.7 153.0 L 528.9 153.0 L 530.0 153.0 L 531.2 153.0 L 532.3 153.0 L 533.5 153.0 L 534.6 153.0 L 535.8 153.0 L 536.9 153.0 L 538.1 153.0 L 539.2 153.0 L 540.4 153.0 L 541.6 153.0 L 542.7 153.0 L 543.9 153.0 L 545.0 153.0 L 546.2 153.0 L 547.3 153.0 L 548.5 153.0 L 549.6 153.0 L 550.8 153.0 L 551.9 153.0 L 553.1 153.0 L 554.2 153.0 L 555.4 153.0 L 556.5 153.0 L 557.7 153.0 L 558.8 153.0 L 560.0 153.0 L 560.0 153.0 L 100.0 153.0 Z" fill="#1f4e79" fill-opacity="0.15" stroke="none"/>
<rect x="289.2" y="153.0" width="81.5" height="287.0" fill="#c43f6b" fill-opacity="0.13" stroke="#c43f6b" stroke-width="1.5" stroke-dasharray="5,4"/>
<path d="M 100.0 153.0 L 560.0 153.0" fill="none" stroke="#5a6a7a" stroke-width="1.5" stroke-dasharray="6,4" opacity="1"/>
<text x="111.5" y="145.04347826086956" text-anchor="start" font-size="15" fill="#5a6a7a">連続光（基準レベル）</text>
<path d="M 100.0 153.0 L 101.2 153.0 L 102.3 153.0 L 103.5 153.0 L 104.6 153.0 L 105.8 153.0 L 106.9 153.0 L 108.1 153.0 L 109.2 153.0 L 110.4 153.0 L 111.5 153.0 L 112.7 153.0 L 113.8 153.0 L 115.0 153.0 L 116.1 153.0 L 117.3 153.0 L 118.4 153.0 L 119.6 153.0 L 120.8 153.0 L 121.9 153.0 L 123.1 153.0 L 124.2 153.0 L 125.4 153.0 L 126.5 153.0 L 127.7 153.0 L 128.8 153.0 L 130.0 153.0 L 131.1 153.0 L 132.3 153.0 L 133.4 153.0 L 134.6 153.0 L 135.7 153.0 L 136.9 153.0 L 138.0 153.0 L 139.2 153.0 L 140.4 153.0 L 141.5 153.0 L 142.7 153.0 L 143.8 153.0 L 145.0 153.1 L 146.1 153.1 L 147.3 153.1 L 148.4 153.1 L 149.6 153.1 L 150.7 153.1 L 151.9 153.1 L 153.0 153.1 L 154.2 153.1 L 155.3 153.1 L 156.5 153.1 L 157.6 153.1 L 158.8 153.1 L 159.9 153.1 L 161.1 153.1 L 162.3 153.1 L 163.4 153.1 L 164.6 153.1 L 165.7 153.1 L 166.9 153.1 L 168.0 153.1 L 169.2 153.1 L 170.3 153.1 L 171.5 153.2 L 172.6 153.2 L 173.8 153.2 L 174.9 153.2 L 176.1 153.2 L 177.2 153.2 L 178.4 153.3 L 179.5 153.3 L 180.7 153.3 L 181.9 153.3 L 183.0 153.4 L 184.2 153.4 L 185.3 153.5 L 186.5 153.5 L 187.6 153.5 L 188.8 153.6 L 189.9 153.7 L 191.1 153.7 L 192.2 153.8 L 193.4 153.9 L 194.5 153.9 L 195.7 154.0 L 196.8 154.1 L 198.0 154.2 L 199.1 154.3 L 200.3 154.5 L 201.5 154.6 L 202.6 154.7 L 203.8 154.9 L 204.9 155.1 L 206.1 155.2 L 207.2 155.4 L 208.4 155.7 L 209.5 155.9 L 210.7 156.1 L 211.8 156.4 L 213.0 156.7 L 214.1 157.0 L 215.3 157.3 L 216.4 157.7 L 217.6 158.1 L 218.7 158.5 L 219.9 158.9 L 221.1 159.4 L 222.2 159.9 L 223.4 160.4 L 224.5 161.0 L 225.7 161.6 L 226.8 162.2 L 228.0 162.9 L 229.1 163.6 L 230.3 164.4 L 231.4 165.2 L 232.6 166.1 L 233.7 167.0 L 234.9 167.9 L 236.0 168.9 L 237.2 170.0 L 238.3 171.1 L 239.5 172.3 L 240.7 173.6 L 241.8 174.9 L 243.0 176.3 L 244.1 177.7 L 245.3 179.2 L 246.4 180.8 L 247.6 182.4 L 248.7 184.2 L 249.9 186.0 L 251.0 187.9 L 252.2 189.8 L 253.3 191.8 L 254.5 194.0 L 255.6 196.2 L 256.8 198.4 L 257.9 200.8 L 259.1 203.2 L 260.3 205.7 L 261.4 208.4 L 262.6 211.0 L 263.7 213.8 L 264.9 216.7 L 266.0 219.6 L 267.2 222.6 L 268.3 225.7 L 269.5 228.8 L 270.6 232.1 L 271.8 235.4 L 272.9 238.8 L 274.1 242.2 L 275.2 245.7 L 276.4 249.3 L 277.5 252.9 L 278.7 256.6 L 279.8 260.3 L 281.0 264.1 L 282.2 267.9 L 283.3 271.8 L 284.5 275.6 L 285.6 279.6 L 286.8 283.5 L 287.9 287.4 L 289.1 291.4 L 290.2 295.3 L 291.4 299.3 L 292.5 303.2 L 293.7 307.1 L 294.8 311.0 L 296.0 314.8 L 297.1 318.7 L 298.3 322.4 L 299.4 326.1 L 300.6 329.8 L 301.8 333.4 L 302.9 336.9 L 304.1 340.3 L 305.2 343.7 L 306.4 346.9 L 307.5 350.1 L 308.7 353.1 L 309.8 356.0 L 311.0 358.8 L 312.1 361.5 L 313.3 364.0 L 314.4 366.4 L 315.6 368.6 L 316.7 370.7 L 317.9 372.7 L 319.0 374.4 L 320.2 376.0 L 321.4 377.5 L 322.5 378.7 L 323.7 379.8 L 324.8 380.7 L 326.0 381.5 L 327.1 382.0 L 328.3 382.4 L 329.4 382.6 L 330.6 382.6 L 331.7 382.4 L 332.9 382.0 L 334.0 381.5 L 335.2 380.7 L 336.3 379.8 L 337.5 378.7 L 338.6 377.5 L 339.8 376.0 L 341.0 374.4 L 342.1 372.7 L 343.3 370.7 L 344.4 368.6 L 345.6 366.4 L 346.7 364.0 L 347.9 361.5 L 349.0 358.8 L 350.2 356.0 L 351.3 353.1 L 352.5 350.1 L 353.6 346.9 L 354.8 343.7 L 355.9 340.3 L 357.1 336.9 L 358.2 333.4 L 359.4 329.8 L 360.6 326.1 L 361.7 322.4 L 362.9 318.7 L 364.0 314.8 L 365.2 311.0 L 366.3 307.1 L 367.5 303.2 L 368.6 299.3 L 369.8 295.3 L 370.9 291.4 L 372.1 287.4 L 373.2 283.5 L 374.4 279.6 L 375.5 275.6 L 376.7 271.8 L 377.8 267.9 L 379.0 264.1 L 380.2 260.3 L 381.3 256.6 L 382.5 252.9 L 383.6 249.3 L 384.8 245.7 L 385.9 242.2 L 387.1 238.8 L 388.2 235.4 L 389.4 232.1 L 390.5 228.8 L 391.7 225.7 L 392.8 222.6 L 394.0 219.6 L 395.1 216.7 L 396.3 213.8 L 397.4 211.0 L 398.6 208.4 L 399.7 205.7 L 400.9 203.2 L 402.1 200.8 L 403.2 198.4 L 404.4 196.2 L 405.5 194.0 L 406.7 191.8 L 407.8 189.8 L 409.0 187.9 L 410.1 186.0 L 411.3 184.2 L 412.4 182.4 L 413.6 180.8 L 414.7 179.2 L 415.9 177.7 L 417.0 176.3 L 418.2 174.9 L 419.3 173.6 L 420.5 172.3 L 421.7 171.1 L 422.8 170.0 L 424.0 168.9 L 425.1 167.9 L 426.3 167.0 L 427.4 166.1 L 428.6 165.2 L 429.7 164.4 L 430.9 163.6 L 432.0 162.9 L 433.2 162.2 L 434.3 161.6 L 435.5 161.0 L 436.6 160.4 L 437.8 159.9 L 438.9 159.4 L 440.1 158.9 L 441.3 158.5 L 442.4 158.1 L 443.6 157.7 L 444.7 157.3 L 445.9 157.0 L 447.0 156.7 L 448.2 156.4 L 449.3 156.1 L 450.5 155.9 L 451.6 155.7 L 452.8 155.4 L 453.9 155.2 L 455.1 155.1 L 456.2 154.9 L 457.4 154.7 L 458.5 154.6 L 459.7 154.5 L 460.9 154.3 L 462.0 154.2 L 463.2 154.1 L 464.3 154.0 L 465.5 153.9 L 466.6 153.9 L 467.8 153.8 L 468.9 153.7 L 470.1 153.7 L 471.2 153.6 L 472.4 153.5 L 473.5 153.5 L 474.7 153.5 L 475.8 153.4 L 477.0 153.4 L 478.1 153.3 L 479.3 153.3 L 480.5 153.3 L 481.6 153.3 L 482.8 153.2 L 483.9 153.2 L 485.1 153.2 L 486.2 153.2 L 487.4 153.2 L 488.5 153.2 L 489.7 153.1 L 490.8 153.1 L 492.0 153.1 L 493.1 153.1 L 494.3 153.1 L 495.4 153.1 L 496.6 153.1 L 497.7 153.1 L 498.9 153.1 L 500.1 153.1 L 501.2 153.1 L 502.4 153.1 L 503.5 153.1 L 504.7 153.1 L 505.8 153.1 L 507.0 153.1 L 508.1 153.1 L 509.3 153.1 L 510.4 153.1 L 511.6 153.1 L 512.7 153.1 L 513.9 153.1 L 515.0 153.1 L 516.2 153.0 L 517.3 153.0 L 518.5 153.0 L 519.6 153.0 L 520.8 153.0 L 522.0 153.0 L 523.1 153.0 L 524.3 153.0 L 525.4 153.0 L 526.6 153.0 L 527.7 153.0 L 528.9 153.0 L 530.0 153.0 L 531.2 153.0 L 532.3 153.0 L 533.5 153.0 L 534.6 153.0 L 535.8 153.0 L 536.9 153.0 L 538.1 153.0 L 539.2 153.0 L 540.4 153.0 L 541.6 153.0 L 542.7 153.0 L 543.9 153.0 L 545.0 153.0 L 546.2 153.0 L 547.3 153.0 L 548.5 153.0 L 549.6 153.0 L 550.8 153.0 L 551.9 153.0 L 553.1 153.0 L 554.2 153.0 L 555.4 153.0 L 556.5 153.0 L 557.7 153.0 L 558.8 153.0 L 560.0 153.0" fill="none" stroke="#1f4e79" stroke-width="3" opacity="1"/>
<text x="429.6666666666667" y="262.0869565217391" text-anchor="start" font-size="16" fill="#1f4e79" font-weight="700">吸収線の輪郭</text>
<text x="138.33333333333331" y="319.47826086956525" text-anchor="start" font-size="15" fill="#1f4e79" font-weight="600">青い面積</text>
<text x="138.33333333333331" y="335.47826086956525" text-anchor="start" font-size="14" fill="#5a6a7a">= 吸われた光の総量</text>
<line x1="199.66666666666669" y1="305.1304347826087" x2="280.16666666666663" y2="262.0869565217391" stroke="#1f4e79" stroke-width="1" stroke-dasharray="3,3"/>
<line x1="289.23356142917316" y1="428.0" x2="370.76643857082684" y2="428.0" stroke="#c43f6b" stroke-width="1.8"/>
<line x1="289.23356142917316" y1="423.0" x2="289.23356142917316" y2="433.0" stroke="#c43f6b" stroke-width="1.8"/>
<line x1="370.76643857082684" y1="423.0" x2="370.76643857082684" y2="433.0" stroke="#c43f6b" stroke-width="1.8"/>
<text x="330.0" y="419.0" text-anchor="middle" font-size="16" fill="#c43f6b" font-weight="700">等価幅 W</text>
<text x="330.0" y="474.0" text-anchor="middle" font-size="15" fill="#8a1f3e">赤い長方形（深さ 1 × 幅 W）の面積 ＝ 青い面積</text>
<line x1="100" y1="440" x2="560" y2="440" stroke="#0a1929" stroke-width="1.5"/>
<line x1="100" y1="440" x2="100" y2="110" stroke="#0a1929" stroke-width="1.5"/>
<text x="330.0" y="492" text-anchor="middle" font-size="16" fill="#0a1929">波長 λ</text>
<text x="36" y="275.0" text-anchor="middle" font-size="16" fill="#0a1929" transform="rotate(-90 36 275.0)">規格化した強度（連続光 = 1）</text>
<rect x="600" y="130" width="270" height="280" rx="10" fill="#ffffff" stroke="#d8e2ec" stroke-width="1.5"/>
<text x="735" y="160" text-anchor="middle" font-size="17" fill="#0a1929" font-weight="700">なぜ等価幅を使うか</text>
<g font-family="Georgia, 'STIX Two Text', 'Times New Roman', serif" font-style="italic" fill="#0a1929">
<text x="640" y="196" font-size="18">W</text>
<text x="658" y="195" font-size="16">=</text>
<text x="674" y="198" font-size="22">∫</text>
<text x="686" y="196" font-size="18">(</text>
<text x="694" y="196" font-size="18">I</text>
<text x="702" y="201" font-size="13">c</text>
<text x="714" y="196" font-size="18">−</text>
<text x="730" y="196" font-size="18">I</text>
<text x="738" y="201" font-size="13">λ</text>
<text x="746" y="196" font-size="18">)</text>
<text x="756" y="196" font-size="18">/</text>
<text x="766" y="196" font-size="18">I</text>
<text x="774" y="201" font-size="13">c</text>
<text x="786" y="196" font-size="18">dλ</text>
</g>
<text x="614" y="224" text-anchor="start" font-size="15" fill="#5a6a7a">・線形（profile）の詳細によらない積分量</text>
<text x="614" y="250" text-anchor="start" font-size="15" fill="#5a6a7a">・分光器の分解能が足りなくても測れる</text>
<text x="614" y="276" text-anchor="start" font-size="15" fill="#5a6a7a">・浅く広い線と深く狭い線が</text>
<text x="614" y="294" text-anchor="start" font-size="15" fill="#5a6a7a">　同じ W になりうる点には注意</text>
<text x="614" y="322" text-anchor="start" font-size="15" fill="#5a6a7a">・W → 柱密度 N の換算が成長曲線</text>
<text x="614" y="340" text-anchor="start" font-size="15" fill="#5a6a7a">　（curve of growth・§20.6）</text>
<text x="450.0" y="528" text-anchor="middle" font-size="14" fill="#8a99a8">観測される吸収線の最も基本的な観測量。第23章の組成決定はここから始まる</text>
</svg>
