<?xml version="1.0" encoding="utf-8" standalone="no"?>
<!DOCTYPE svg PUBLIC "-//W3C//DTD SVG 1.1//EN"
  "http://www.w3.org/Graphics/SVG/1.1/DTD/svg11.dtd">
<svg xmlns:xlink="http://www.w3.org/1999/xlink" width="525.888pt" height="360.070078pt" viewBox="0 0 525.888 360.070078" xmlns="http://www.w3.org/2000/svg" version="1.1">
 <metadata>
  <rdf:RDF xmlns:dc="http://purl.org/dc/elements/1.1/" xmlns:cc="http://creativecommons.org/ns#" xmlns:rdf="http://www.w3.org/1999/02/22-rdf-syntax-ns#">
   <cc:Work>
    <dc:type rdf:resource="http://purl.org/dc/dcmitype/StillImage"/>
    <dc:date>2026-06-25T21:03:43.746247</dc:date>
    <dc:format>image/svg+xml</dc:format>
    <dc:creator>
     <cc:Agent>
      <dc:title>Matplotlib v3.10.9, https://matplotlib.org/</dc:title>
     </cc:Agent>
    </dc:creator>
   </cc:Work>
  </rdf:RDF>
 </metadata>
 <defs>
  <style type="text/css">*{stroke-linejoin: round; stroke-linecap: butt}</style>
 </defs>
 <g id="figure_1">
  <g id="patch_1">
   <path d="M 0 360.070078 
L 525.888 360.070078 
L 525.888 0 
L 0 0 
z
" style="fill: #ffffff"/>
  </g>
  <g id="axes_1">
   <g id="patch_2">
    <path d="M 72.288 316.030313 
L 518.688 316.030313 
L 518.688 38.830313 
L 72.288 38.830313 
z
" style="fill: #ffffff"/>
   </g>
   <g id="axes_2">
    <g id="patch_3">
     <path d="M 72.288 38.830313 
L 518.688 38.830313 
L 518.688 38.830312 
L 72.288 38.830312 
z
" style="fill: #ffffff"/>
    </g>
    <g id="matplotlib.axis_1">
     <g id="xtick_1">
      <g id="line2d_1">
       <defs>
        <path id="mec4c7f2299" d="M 0 0 
L 0 -3.5 
" style="stroke: #000000; stroke-width: 0.8"/>
       </defs>
       <g>
        <use xlink:href="#mec4c7f2299" x="88.395065" y="38.830312" style="stroke: #000000; stroke-width: 0.8"/>
       </g>
      </g>
      <g id="text_1">
       <!-- 2.5 -->
       <g transform="translate(79.648346 29.542656) scale(0.11 -0.11)">
        <defs>
         <path id="DejaVuSans-32" d="M 1228 531 
L 3431 531 
L 3431 0 
L 469 0 
L 469 531 
Q 828 903 1448 1529 
Q 2069 2156 2228 2338 
Q 2531 2678 2651 2914 
Q 2772 3150 2772 3378 
Q 2772 3750 2511 3984 
Q 2250 4219 1831 4219 
Q 1534 4219 1204 4116 
Q 875 4013 500 3803 
L 500 4441 
Q 881 4594 1212 4672 
Q 1544 4750 1819 4750 
Q 2544 4750 2975 4387 
Q 3406 4025 3406 3419 
Q 3406 3131 3298 2873 
Q 3191 2616 2906 2266 
Q 2828 2175 2409 1742 
Q 1991 1309 1228 531 
z
" transform="scale(0.015625)"/>
         <path id="DejaVuSans-2e" d="M 684 794 
L 1344 794 
L 1344 0 
L 684 0 
L 684 794 
z
" transform="scale(0.015625)"/>
         <path id="DejaVuSans-35" d="M 691 4666 
L 3169 4666 
L 3169 4134 
L 1269 4134 
L 1269 2991 
Q 1406 3038 1543 3061 
Q 1681 3084 1819 3084 
Q 2600 3084 3056 2656 
Q 3513 2228 3513 1497 
Q 3513 744 3044 326 
Q 2575 -91 1722 -91 
Q 1428 -91 1123 -41 
Q 819 9 494 109 
L 494 744 
Q 775 591 1075 516 
Q 1375 441 1709 441 
Q 2250 441 2565 725 
Q 2881 1009 2881 1497 
Q 2881 1984 2565 2268 
Q 2250 2553 1709 2553 
Q 1456 2553 1204 2497 
Q 953 2441 691 2322 
L 691 4666 
z
" transform="scale(0.015625)"/>
        </defs>
        <use xlink:href="#DejaVuSans-32"/>
        <use xlink:href="#DejaVuSans-2e" transform="translate(63.623047 0)"/>
        <use xlink:href="#DejaVuSans-35" transform="translate(95.410156 0)"/>
       </g>
      </g>
     </g>
     <g id="xtick_2">
      <g id="line2d_2">
       <g>
        <use xlink:href="#mec4c7f2299" x="143.143609" y="38.830312" style="stroke: #000000; stroke-width: 0.8"/>
       </g>
      </g>
      <g id="text_2">
       <!-- 5.0 -->
       <g transform="translate(134.39689 29.542656) scale(0.11 -0.11)">
        <defs>
         <path id="DejaVuSans-30" d="M 2034 4250 
Q 1547 4250 1301 3770 
Q 1056 3291 1056 2328 
Q 1056 1369 1301 889 
Q 1547 409 2034 409 
Q 2525 409 2770 889 
Q 3016 1369 3016 2328 
Q 3016 3291 2770 3770 
Q 2525 4250 2034 4250 
z
M 2034 4750 
Q 2819 4750 3233 4129 
Q 3647 3509 3647 2328 
Q 3647 1150 3233 529 
Q 2819 -91 2034 -91 
Q 1250 -91 836 529 
Q 422 1150 422 2328 
Q 422 3509 836 4129 
Q 1250 4750 2034 4750 
z
" transform="scale(0.015625)"/>
        </defs>
        <use xlink:href="#DejaVuSans-35"/>
        <use xlink:href="#DejaVuSans-2e" transform="translate(63.623047 0)"/>
        <use xlink:href="#DejaVuSans-30" transform="translate(95.410156 0)"/>
       </g>
      </g>
     </g>
     <g id="xtick_3">
      <g id="line2d_3">
       <g>
        <use xlink:href="#mec4c7f2299" x="197.892152" y="38.830312" style="stroke: #000000; stroke-width: 0.8"/>
       </g>
      </g>
      <g id="text_3">
       <!-- 7.5 -->
       <g transform="translate(189.145433 29.542656) scale(0.11 -0.11)">
        <defs>
         <path id="DejaVuSans-37" d="M 525 4666 
L 3525 4666 
L 3525 4397 
L 1831 0 
L 1172 0 
L 2766 4134 
L 525 4134 
L 525 4666 
z
" transform="scale(0.015625)"/>
        </defs>
        <use xlink:href="#DejaVuSans-37"/>
        <use xlink:href="#DejaVuSans-2e" transform="translate(63.623047 0)"/>
        <use xlink:href="#DejaVuSans-35" transform="translate(95.410156 0)"/>
       </g>
      </g>
     </g>
     <g id="xtick_4">
      <g id="line2d_4">
       <g>
        <use xlink:href="#mec4c7f2299" x="252.640695" y="38.830312" style="stroke: #000000; stroke-width: 0.8"/>
       </g>
      </g>
      <g id="text_4">
       <!-- 10.0 -->
       <g transform="translate(240.394601 29.542656) scale(0.11 -0.11)">
        <defs>
         <path id="DejaVuSans-31" d="M 794 531 
L 1825 531 
L 1825 4091 
L 703 3866 
L 703 4441 
L 1819 4666 
L 2450 4666 
L 2450 531 
L 3481 531 
L 3481 0 
L 794 0 
L 794 531 
z
" transform="scale(0.015625)"/>
        </defs>
        <use xlink:href="#DejaVuSans-31"/>
        <use xlink:href="#DejaVuSans-30" transform="translate(63.623047 0)"/>
        <use xlink:href="#DejaVuSans-2e" transform="translate(127.246094 0)"/>
        <use xlink:href="#DejaVuSans-30" transform="translate(159.033203 0)"/>
       </g>
      </g>
     </g>
     <g id="xtick_5">
      <g id="line2d_5">
       <g>
        <use xlink:href="#mec4c7f2299" x="307.389238" y="38.830312" style="stroke: #000000; stroke-width: 0.8"/>
       </g>
      </g>
      <g id="text_5">
       <!-- 12.5 -->
       <g transform="translate(295.143145 29.542656) scale(0.11 -0.11)">
        <use xlink:href="#DejaVuSans-31"/>
        <use xlink:href="#DejaVuSans-32" transform="translate(63.623047 0)"/>
        <use xlink:href="#DejaVuSans-2e" transform="translate(127.246094 0)"/>
        <use xlink:href="#DejaVuSans-35" transform="translate(159.033203 0)"/>
       </g>
      </g>
     </g>
     <g id="xtick_6">
      <g id="line2d_6">
       <g>
        <use xlink:href="#mec4c7f2299" x="362.137782" y="38.830312" style="stroke: #000000; stroke-width: 0.8"/>
       </g>
      </g>
      <g id="text_6">
       <!-- 15.0 -->
       <g transform="translate(349.891688 29.542656) scale(0.11 -0.11)">
        <use xlink:href="#DejaVuSans-31"/>
        <use xlink:href="#DejaVuSans-35" transform="translate(63.623047 0)"/>
        <use xlink:href="#DejaVuSans-2e" transform="translate(127.246094 0)"/>
        <use xlink:href="#DejaVuSans-30" transform="translate(159.033203 0)"/>
       </g>
      </g>
     </g>
     <g id="xtick_7">
      <g id="line2d_7">
       <g>
        <use xlink:href="#mec4c7f2299" x="416.886325" y="38.830312" style="stroke: #000000; stroke-width: 0.8"/>
       </g>
      </g>
      <g id="text_7">
       <!-- 17.5 -->
       <g transform="translate(404.640231 29.542656) scale(0.11 -0.11)">
        <use xlink:href="#DejaVuSans-31"/>
        <use xlink:href="#DejaVuSans-37" transform="translate(63.623047 0)"/>
        <use xlink:href="#DejaVuSans-2e" transform="translate(127.246094 0)"/>
        <use xlink:href="#DejaVuSans-35" transform="translate(159.033203 0)"/>
       </g>
      </g>
     </g>
     <g id="xtick_8">
      <g id="line2d_8">
       <g>
        <use xlink:href="#mec4c7f2299" x="471.634868" y="38.830312" style="stroke: #000000; stroke-width: 0.8"/>
       </g>
      </g>
      <g id="text_8">
       <!-- 20.0 -->
       <g transform="translate(459.388774 29.542656) scale(0.11 -0.11)">
        <use xlink:href="#DejaVuSans-32"/>
        <use xlink:href="#DejaVuSans-30" transform="translate(63.623047 0)"/>
        <use xlink:href="#DejaVuSans-2e" transform="translate(127.246094 0)"/>
        <use xlink:href="#DejaVuSans-30" transform="translate(159.033203 0)"/>
       </g>
      </g>
     </g>
     <g id="text_9">
      <!-- Wavenumber  [cm$^{-1}$] -->
      <g transform="translate(231.108 17.184375) scale(0.12 -0.12)">
       <defs>
        <path id="DejaVuSans-57" d="M 213 4666 
L 850 4666 
L 1831 722 
L 2809 4666 
L 3519 4666 
L 4500 722 
L 5478 4666 
L 6119 4666 
L 4947 0 
L 4153 0 
L 3169 4050 
L 2175 0 
L 1381 0 
L 213 4666 
z
" transform="scale(0.015625)"/>
        <path id="DejaVuSans-61" d="M 2194 1759 
Q 1497 1759 1228 1600 
Q 959 1441 959 1056 
Q 959 750 1161 570 
Q 1363 391 1709 391 
Q 2188 391 2477 730 
Q 2766 1069 2766 1631 
L 2766 1759 
L 2194 1759 
z
M 3341 1997 
L 3341 0 
L 2766 0 
L 2766 531 
Q 2569 213 2275 61 
Q 1981 -91 1556 -91 
Q 1019 -91 701 211 
Q 384 513 384 1019 
Q 384 1609 779 1909 
Q 1175 2209 1959 2209 
L 2766 2209 
L 2766 2266 
Q 2766 2663 2505 2880 
Q 2244 3097 1772 3097 
Q 1472 3097 1187 3025 
Q 903 2953 641 2809 
L 641 3341 
Q 956 3463 1253 3523 
Q 1550 3584 1831 3584 
Q 2591 3584 2966 3190 
Q 3341 2797 3341 1997 
z
" transform="scale(0.015625)"/>
        <path id="DejaVuSans-76" d="M 191 3500 
L 800 3500 
L 1894 563 
L 2988 3500 
L 3597 3500 
L 2284 0 
L 1503 0 
L 191 3500 
z
" transform="scale(0.015625)"/>
        <path id="DejaVuSans-65" d="M 3597 1894 
L 3597 1613 
L 953 1613 
Q 991 1019 1311 708 
Q 1631 397 2203 397 
Q 2534 397 2845 478 
Q 3156 559 3463 722 
L 3463 178 
Q 3153 47 2828 -22 
Q 2503 -91 2169 -91 
Q 1331 -91 842 396 
Q 353 884 353 1716 
Q 353 2575 817 3079 
Q 1281 3584 2069 3584 
Q 2775 3584 3186 3129 
Q 3597 2675 3597 1894 
z
M 3022 2063 
Q 3016 2534 2758 2815 
Q 2500 3097 2075 3097 
Q 1594 3097 1305 2825 
Q 1016 2553 972 2059 
L 3022 2063 
z
" transform="scale(0.015625)"/>
        <path id="DejaVuSans-6e" d="M 3513 2113 
L 3513 0 
L 2938 0 
L 2938 2094 
Q 2938 2591 2744 2837 
Q 2550 3084 2163 3084 
Q 1697 3084 1428 2787 
Q 1159 2491 1159 1978 
L 1159 0 
L 581 0 
L 581 3500 
L 1159 3500 
L 1159 2956 
Q 1366 3272 1645 3428 
Q 1925 3584 2291 3584 
Q 2894 3584 3203 3211 
Q 3513 2838 3513 2113 
z
" transform="scale(0.015625)"/>
        <path id="DejaVuSans-75" d="M 544 1381 
L 544 3500 
L 1119 3500 
L 1119 1403 
Q 1119 906 1312 657 
Q 1506 409 1894 409 
Q 2359 409 2629 706 
Q 2900 1003 2900 1516 
L 2900 3500 
L 3475 3500 
L 3475 0 
L 2900 0 
L 2900 538 
Q 2691 219 2414 64 
Q 2138 -91 1772 -91 
Q 1169 -91 856 284 
Q 544 659 544 1381 
z
M 1991 3584 
L 1991 3584 
z
" transform="scale(0.015625)"/>
        <path id="DejaVuSans-6d" d="M 3328 2828 
Q 3544 3216 3844 3400 
Q 4144 3584 4550 3584 
Q 5097 3584 5394 3201 
Q 5691 2819 5691 2113 
L 5691 0 
L 5113 0 
L 5113 2094 
Q 5113 2597 4934 2840 
Q 4756 3084 4391 3084 
Q 3944 3084 3684 2787 
Q 3425 2491 3425 1978 
L 3425 0 
L 2847 0 
L 2847 2094 
Q 2847 2600 2669 2842 
Q 2491 3084 2119 3084 
Q 1678 3084 1418 2786 
Q 1159 2488 1159 1978 
L 1159 0 
L 581 0 
L 581 3500 
L 1159 3500 
L 1159 2956 
Q 1356 3278 1631 3431 
Q 1906 3584 2284 3584 
Q 2666 3584 2933 3390 
Q 3200 3197 3328 2828 
z
" transform="scale(0.015625)"/>
        <path id="DejaVuSans-62" d="M 3116 1747 
Q 3116 2381 2855 2742 
Q 2594 3103 2138 3103 
Q 1681 3103 1420 2742 
Q 1159 2381 1159 1747 
Q 1159 1113 1420 752 
Q 1681 391 2138 391 
Q 2594 391 2855 752 
Q 3116 1113 3116 1747 
z
M 1159 2969 
Q 1341 3281 1617 3432 
Q 1894 3584 2278 3584 
Q 2916 3584 3314 3078 
Q 3713 2572 3713 1747 
Q 3713 922 3314 415 
Q 2916 -91 2278 -91 
Q 1894 -91 1617 61 
Q 1341 213 1159 525 
L 1159 0 
L 581 0 
L 581 4863 
L 1159 4863 
L 1159 2969 
z
" transform="scale(0.015625)"/>
        <path id="DejaVuSans-72" d="M 2631 2963 
Q 2534 3019 2420 3045 
Q 2306 3072 2169 3072 
Q 1681 3072 1420 2755 
Q 1159 2438 1159 1844 
L 1159 0 
L 581 0 
L 581 3500 
L 1159 3500 
L 1159 2956 
Q 1341 3275 1631 3429 
Q 1922 3584 2338 3584 
Q 2397 3584 2469 3576 
Q 2541 3569 2628 3553 
L 2631 2963 
z
" transform="scale(0.015625)"/>
        <path id="DejaVuSans-20" transform="scale(0.015625)"/>
        <path id="DejaVuSans-5b" d="M 550 4863 
L 1875 4863 
L 1875 4416 
L 1125 4416 
L 1125 -397 
L 1875 -397 
L 1875 -844 
L 550 -844 
L 550 4863 
z
" transform="scale(0.015625)"/>
        <path id="DejaVuSans-63" d="M 3122 3366 
L 3122 2828 
Q 2878 2963 2633 3030 
Q 2388 3097 2138 3097 
Q 1578 3097 1268 2742 
Q 959 2388 959 1747 
Q 959 1106 1268 751 
Q 1578 397 2138 397 
Q 2388 397 2633 464 
Q 2878 531 3122 666 
L 3122 134 
Q 2881 22 2623 -34 
Q 2366 -91 2075 -91 
Q 1284 -91 818 406 
Q 353 903 353 1747 
Q 353 2603 823 3093 
Q 1294 3584 2113 3584 
Q 2378 3584 2631 3529 
Q 2884 3475 3122 3366 
z
" transform="scale(0.015625)"/>
        <path id="DejaVuSans-2212" d="M 678 2272 
L 4684 2272 
L 4684 1741 
L 678 1741 
L 678 2272 
z
" transform="scale(0.015625)"/>
        <path id="DejaVuSans-5d" d="M 1947 4863 
L 1947 -844 
L 622 -844 
L 622 -397 
L 1369 -397 
L 1369 4416 
L 622 4416 
L 622 4863 
L 1947 4863 
z
" transform="scale(0.015625)"/>
       </defs>
       <use xlink:href="#DejaVuSans-57" transform="translate(0 0.684375)"/>
       <use xlink:href="#DejaVuSans-61" transform="translate(98.876953 0.684375)"/>
       <use xlink:href="#DejaVuSans-76" transform="translate(160.15625 0.684375)"/>
       <use xlink:href="#DejaVuSans-65" transform="translate(219.335938 0.684375)"/>
       <use xlink:href="#DejaVuSans-6e" transform="translate(280.859375 0.684375)"/>
       <use xlink:href="#DejaVuSans-75" transform="translate(344.238281 0.684375)"/>
       <use xlink:href="#DejaVuSans-6d" transform="translate(407.617188 0.684375)"/>
       <use xlink:href="#DejaVuSans-62" transform="translate(505.029297 0.684375)"/>
       <use xlink:href="#DejaVuSans-65" transform="translate(568.505859 0.684375)"/>
       <use xlink:href="#DejaVuSans-72" transform="translate(630.029297 0.684375)"/>
       <use xlink:href="#DejaVuSans-20" transform="translate(671.142578 0.684375)"/>
       <use xlink:href="#DejaVuSans-20" transform="translate(702.929688 0.684375)"/>
       <use xlink:href="#DejaVuSans-5b" transform="translate(734.716797 0.684375)"/>
       <use xlink:href="#DejaVuSans-63" transform="translate(773.730469 0.684375)"/>
       <use xlink:href="#DejaVuSans-6d" transform="translate(828.710938 0.684375)"/>
       <use xlink:href="#DejaVuSans-2212" transform="translate(927.080078 38.965625) scale(0.7)"/>
       <use xlink:href="#DejaVuSans-31" transform="translate(985.732422 38.965625) scale(0.7)"/>
       <use xlink:href="#DejaVuSans-5d" transform="translate(1033.00293 0.684375)"/>
      </g>
     </g>
    </g>
    <g id="matplotlib.axis_2"/>
    <g id="patch_4">
     <path d="M 72.288 38.830312 
L 518.688 38.830312 
" style="fill: none; stroke: #000000; stroke-width: 0.8; stroke-linejoin: miter; stroke-linecap: square"/>
    </g>
   </g>
   <g id="matplotlib.axis_3">
    <g id="xtick_9">
     <g id="line2d_9">
      <path d="M 106.695115 316.030313 
L 106.695115 38.830313 
" clip-path="url(#p1fe5367986)" style="fill: none; stroke-dasharray: 0.6,0.99; stroke-dashoffset: 0; stroke: #b0b0b0; stroke-opacity: 0.5; stroke-width: 0.6"/>
     </g>
     <g id="line2d_10">
      <defs>
       <path id="m69686610ef" d="M 0 0 
L 0 3.5 
" style="stroke: #000000; stroke-width: 0.8"/>
      </defs>
      <g>
       <use xlink:href="#m69686610ef" x="106.695115" y="316.030313" style="stroke: #000000; stroke-width: 0.8"/>
      </g>
     </g>
     <g id="text_10">
      <!-- 100 -->
      <g transform="translate(96.19699 331.388594) scale(0.11 -0.11)">
       <use xlink:href="#DejaVuSans-31"/>
       <use xlink:href="#DejaVuSans-30" transform="translate(63.623047 0)"/>
       <use xlink:href="#DejaVuSans-30" transform="translate(127.246094 0)"/>
      </g>
     </g>
    </g>
    <g id="xtick_10">
     <g id="line2d_11">
      <path d="M 179.743708 316.030313 
L 179.743708 38.830313 
" clip-path="url(#p1fe5367986)" style="fill: none; stroke-dasharray: 0.6,0.99; stroke-dashoffset: 0; stroke: #b0b0b0; stroke-opacity: 0.5; stroke-width: 0.6"/>
     </g>
     <g id="line2d_12">
      <g>
       <use xlink:href="#m69686610ef" x="179.743708" y="316.030313" style="stroke: #000000; stroke-width: 0.8"/>
      </g>
     </g>
     <g id="text_11">
      <!-- 200 -->
      <g transform="translate(169.245583 331.388594) scale(0.11 -0.11)">
       <use xlink:href="#DejaVuSans-32"/>
       <use xlink:href="#DejaVuSans-30" transform="translate(63.623047 0)"/>
       <use xlink:href="#DejaVuSans-30" transform="translate(127.246094 0)"/>
      </g>
     </g>
    </g>
    <g id="xtick_11">
     <g id="line2d_13">
      <path d="M 252.792302 316.030313 
L 252.792302 38.830313 
" clip-path="url(#p1fe5367986)" style="fill: none; stroke-dasharray: 0.6,0.99; stroke-dashoffset: 0; stroke: #b0b0b0; stroke-opacity: 0.5; stroke-width: 0.6"/>
     </g>
     <g id="line2d_14">
      <g>
       <use xlink:href="#m69686610ef" x="252.792302" y="316.030313" style="stroke: #000000; stroke-width: 0.8"/>
      </g>
     </g>
     <g id="text_12">
      <!-- 300 -->
      <g transform="translate(242.294177 331.388594) scale(0.11 -0.11)">
       <defs>
        <path id="DejaVuSans-33" d="M 2597 2516 
Q 3050 2419 3304 2112 
Q 3559 1806 3559 1356 
Q 3559 666 3084 287 
Q 2609 -91 1734 -91 
Q 1441 -91 1130 -33 
Q 819 25 488 141 
L 488 750 
Q 750 597 1062 519 
Q 1375 441 1716 441 
Q 2309 441 2620 675 
Q 2931 909 2931 1356 
Q 2931 1769 2642 2001 
Q 2353 2234 1838 2234 
L 1294 2234 
L 1294 2753 
L 1863 2753 
Q 2328 2753 2575 2939 
Q 2822 3125 2822 3475 
Q 2822 3834 2567 4026 
Q 2313 4219 1838 4219 
Q 1578 4219 1281 4162 
Q 984 4106 628 3988 
L 628 4550 
Q 988 4650 1302 4700 
Q 1616 4750 1894 4750 
Q 2613 4750 3031 4423 
Q 3450 4097 3450 3541 
Q 3450 3153 3228 2886 
Q 3006 2619 2597 2516 
z
" transform="scale(0.015625)"/>
       </defs>
       <use xlink:href="#DejaVuSans-33"/>
       <use xlink:href="#DejaVuSans-30" transform="translate(63.623047 0)"/>
       <use xlink:href="#DejaVuSans-30" transform="translate(127.246094 0)"/>
      </g>
     </g>
    </g>
    <g id="xtick_12">
     <g id="line2d_15">
      <path d="M 325.840895 316.030313 
L 325.840895 38.830313 
" clip-path="url(#p1fe5367986)" style="fill: none; stroke-dasharray: 0.6,0.99; stroke-dashoffset: 0; stroke: #b0b0b0; stroke-opacity: 0.5; stroke-width: 0.6"/>
     </g>
     <g id="line2d_16">
      <g>
       <use xlink:href="#m69686610ef" x="325.840895" y="316.030313" style="stroke: #000000; stroke-width: 0.8"/>
      </g>
     </g>
     <g id="text_13">
      <!-- 400 -->
      <g transform="translate(315.34277 331.388594) scale(0.11 -0.11)">
       <defs>
        <path id="DejaVuSans-34" d="M 2419 4116 
L 825 1625 
L 2419 1625 
L 2419 4116 
z
M 2253 4666 
L 3047 4666 
L 3047 1625 
L 3713 1625 
L 3713 1100 
L 3047 1100 
L 3047 0 
L 2419 0 
L 2419 1100 
L 313 1100 
L 313 1709 
L 2253 4666 
z
" transform="scale(0.015625)"/>
       </defs>
       <use xlink:href="#DejaVuSans-34"/>
       <use xlink:href="#DejaVuSans-30" transform="translate(63.623047 0)"/>
       <use xlink:href="#DejaVuSans-30" transform="translate(127.246094 0)"/>
      </g>
     </g>
    </g>
    <g id="xtick_13">
     <g id="line2d_17">
      <path d="M 398.889488 316.030313 
L 398.889488 38.830313 
" clip-path="url(#p1fe5367986)" style="fill: none; stroke-dasharray: 0.6,0.99; stroke-dashoffset: 0; stroke: #b0b0b0; stroke-opacity: 0.5; stroke-width: 0.6"/>
     </g>
     <g id="line2d_18">
      <g>
       <use xlink:href="#m69686610ef" x="398.889488" y="316.030313" style="stroke: #000000; stroke-width: 0.8"/>
      </g>
     </g>
     <g id="text_14">
      <!-- 500 -->
      <g transform="translate(388.391363 331.388594) scale(0.11 -0.11)">
       <use xlink:href="#DejaVuSans-35"/>
       <use xlink:href="#DejaVuSans-30" transform="translate(63.623047 0)"/>
       <use xlink:href="#DejaVuSans-30" transform="translate(127.246094 0)"/>
      </g>
     </g>
    </g>
    <g id="xtick_14">
     <g id="line2d_19">
      <path d="M 471.938081 316.030313 
L 471.938081 38.830313 
" clip-path="url(#p1fe5367986)" style="fill: none; stroke-dasharray: 0.6,0.99; stroke-dashoffset: 0; stroke: #b0b0b0; stroke-opacity: 0.5; stroke-width: 0.6"/>
     </g>
     <g id="line2d_20">
      <g>
       <use xlink:href="#m69686610ef" x="471.938081" y="316.030313" style="stroke: #000000; stroke-width: 0.8"/>
      </g>
     </g>
     <g id="text_15">
      <!-- 600 -->
      <g transform="translate(461.439956 331.388594) scale(0.11 -0.11)">
       <defs>
        <path id="DejaVuSans-36" d="M 2113 2584 
Q 1688 2584 1439 2293 
Q 1191 2003 1191 1497 
Q 1191 994 1439 701 
Q 1688 409 2113 409 
Q 2538 409 2786 701 
Q 3034 994 3034 1497 
Q 3034 2003 2786 2293 
Q 2538 2584 2113 2584 
z
M 3366 4563 
L 3366 3988 
Q 3128 4100 2886 4159 
Q 2644 4219 2406 4219 
Q 1781 4219 1451 3797 
Q 1122 3375 1075 2522 
Q 1259 2794 1537 2939 
Q 1816 3084 2150 3084 
Q 2853 3084 3261 2657 
Q 3669 2231 3669 1497 
Q 3669 778 3244 343 
Q 2819 -91 2113 -91 
Q 1303 -91 875 529 
Q 447 1150 447 2328 
Q 447 3434 972 4092 
Q 1497 4750 2381 4750 
Q 2619 4750 2861 4703 
Q 3103 4656 3366 4563 
z
" transform="scale(0.015625)"/>
       </defs>
       <use xlink:href="#DejaVuSans-36"/>
       <use xlink:href="#DejaVuSans-30" transform="translate(63.623047 0)"/>
       <use xlink:href="#DejaVuSans-30" transform="translate(127.246094 0)"/>
      </g>
     </g>
    </g>
    <g id="text_16">
     <!-- Frequency  [GHz] -->
     <g transform="translate(243.686438 346.794375) scale(0.12 -0.12)">
      <defs>
       <path id="DejaVuSans-46" d="M 628 4666 
L 3309 4666 
L 3309 4134 
L 1259 4134 
L 1259 2759 
L 3109 2759 
L 3109 2228 
L 1259 2228 
L 1259 0 
L 628 0 
L 628 4666 
z
" transform="scale(0.015625)"/>
       <path id="DejaVuSans-71" d="M 947 1747 
Q 947 1113 1208 752 
Q 1469 391 1925 391 
Q 2381 391 2643 752 
Q 2906 1113 2906 1747 
Q 2906 2381 2643 2742 
Q 2381 3103 1925 3103 
Q 1469 3103 1208 2742 
Q 947 2381 947 1747 
z
M 2906 525 
Q 2725 213 2448 61 
Q 2172 -91 1784 -91 
Q 1150 -91 751 415 
Q 353 922 353 1747 
Q 353 2572 751 3078 
Q 1150 3584 1784 3584 
Q 2172 3584 2448 3432 
Q 2725 3281 2906 2969 
L 2906 3500 
L 3481 3500 
L 3481 -1331 
L 2906 -1331 
L 2906 525 
z
" transform="scale(0.015625)"/>
       <path id="DejaVuSans-79" d="M 2059 -325 
Q 1816 -950 1584 -1140 
Q 1353 -1331 966 -1331 
L 506 -1331 
L 506 -850 
L 844 -850 
Q 1081 -850 1212 -737 
Q 1344 -625 1503 -206 
L 1606 56 
L 191 3500 
L 800 3500 
L 1894 763 
L 2988 3500 
L 3597 3500 
L 2059 -325 
z
" transform="scale(0.015625)"/>
       <path id="DejaVuSans-47" d="M 3809 666 
L 3809 1919 
L 2778 1919 
L 2778 2438 
L 4434 2438 
L 4434 434 
Q 4069 175 3628 42 
Q 3188 -91 2688 -91 
Q 1594 -91 976 548 
Q 359 1188 359 2328 
Q 359 3472 976 4111 
Q 1594 4750 2688 4750 
Q 3144 4750 3555 4637 
Q 3966 4525 4313 4306 
L 4313 3634 
Q 3963 3931 3569 4081 
Q 3175 4231 2741 4231 
Q 1884 4231 1454 3753 
Q 1025 3275 1025 2328 
Q 1025 1384 1454 906 
Q 1884 428 2741 428 
Q 3075 428 3337 486 
Q 3600 544 3809 666 
z
" transform="scale(0.015625)"/>
       <path id="DejaVuSans-48" d="M 628 4666 
L 1259 4666 
L 1259 2753 
L 3553 2753 
L 3553 4666 
L 4184 4666 
L 4184 0 
L 3553 0 
L 3553 2222 
L 1259 2222 
L 1259 0 
L 628 0 
L 628 4666 
z
" transform="scale(0.015625)"/>
       <path id="DejaVuSans-7a" d="M 353 3500 
L 3084 3500 
L 3084 2975 
L 922 459 
L 3084 459 
L 3084 0 
L 275 0 
L 275 525 
L 2438 3041 
L 353 3041 
L 353 3500 
z
" transform="scale(0.015625)"/>
      </defs>
      <use xlink:href="#DejaVuSans-46"/>
      <use xlink:href="#DejaVuSans-72" transform="translate(50.269531 0)"/>
      <use xlink:href="#DejaVuSans-65" transform="translate(89.132812 0)"/>
      <use xlink:href="#DejaVuSans-71" transform="translate(150.65625 0)"/>
      <use xlink:href="#DejaVuSans-75" transform="translate(214.132812 0)"/>
      <use xlink:href="#DejaVuSans-65" transform="translate(277.511719 0)"/>
      <use xlink:href="#DejaVuSans-6e" transform="translate(339.035156 0)"/>
      <use xlink:href="#DejaVuSans-63" transform="translate(402.414062 0)"/>
      <use xlink:href="#DejaVuSans-79" transform="translate(457.394531 0)"/>
      <use xlink:href="#DejaVuSans-20" transform="translate(516.574219 0)"/>
      <use xlink:href="#DejaVuSans-20" transform="translate(548.361328 0)"/>
      <use xlink:href="#DejaVuSans-5b" transform="translate(580.148438 0)"/>
      <use xlink:href="#DejaVuSans-47" transform="translate(619.162109 0)"/>
      <use xlink:href="#DejaVuSans-48" transform="translate(696.652344 0)"/>
      <use xlink:href="#DejaVuSans-7a" transform="translate(771.847656 0)"/>
      <use xlink:href="#DejaVuSans-5d" transform="translate(824.337891 0)"/>
     </g>
    </g>
   </g>
   <g id="matplotlib.axis_4">
    <g id="ytick_1">
     <g id="line2d_21">
      <path d="M 72.288 280.53348 
L 518.688 280.53348 
" clip-path="url(#p1fe5367986)" style="fill: none; stroke-dasharray: 0.6,0.99; stroke-dashoffset: 0; stroke: #b0b0b0; stroke-opacity: 0.5; stroke-width: 0.6"/>
     </g>
     <g id="line2d_22">
      <defs>
       <path id="m1944da3338" d="M 0 0 
L -3.5 0 
" style="stroke: #000000; stroke-width: 0.8"/>
      </defs>
      <g>
       <use xlink:href="#m1944da3338" x="72.288" y="280.53348" style="stroke: #000000; stroke-width: 0.8"/>
      </g>
     </g>
     <g id="text_17">
      <!-- 0 -->
      <g transform="translate(58.28925 284.71262) scale(0.11 -0.11)">
       <use xlink:href="#DejaVuSans-30"/>
      </g>
     </g>
    </g>
    <g id="ytick_2">
     <g id="line2d_23">
      <path d="M 72.288 221.891468 
L 518.688 221.891468 
" clip-path="url(#p1fe5367986)" style="fill: none; stroke-dasharray: 0.6,0.99; stroke-dashoffset: 0; stroke: #b0b0b0; stroke-opacity: 0.5; stroke-width: 0.6"/>
     </g>
     <g id="line2d_24">
      <g>
       <use xlink:href="#m1944da3338" x="72.288" y="221.891468" style="stroke: #000000; stroke-width: 0.8"/>
      </g>
     </g>
     <g id="text_18">
      <!-- 100 -->
      <g transform="translate(44.29175 226.070609) scale(0.11 -0.11)">
       <use xlink:href="#DejaVuSans-31"/>
       <use xlink:href="#DejaVuSans-30" transform="translate(63.623047 0)"/>
       <use xlink:href="#DejaVuSans-30" transform="translate(127.246094 0)"/>
      </g>
     </g>
    </g>
    <g id="ytick_3">
     <g id="line2d_25">
      <path d="M 72.288 163.249456 
L 518.688 163.249456 
" clip-path="url(#p1fe5367986)" style="fill: none; stroke-dasharray: 0.6,0.99; stroke-dashoffset: 0; stroke: #b0b0b0; stroke-opacity: 0.5; stroke-width: 0.6"/>
     </g>
     <g id="line2d_26">
      <g>
       <use xlink:href="#m1944da3338" x="72.288" y="163.249456" style="stroke: #000000; stroke-width: 0.8"/>
      </g>
     </g>
     <g id="text_19">
      <!-- 200 -->
      <g transform="translate(44.29175 167.428597) scale(0.11 -0.11)">
       <use xlink:href="#DejaVuSans-32"/>
       <use xlink:href="#DejaVuSans-30" transform="translate(63.623047 0)"/>
       <use xlink:href="#DejaVuSans-30" transform="translate(127.246094 0)"/>
      </g>
     </g>
    </g>
    <g id="ytick_4">
     <g id="line2d_27">
      <path d="M 72.288 104.607445 
L 518.688 104.607445 
" clip-path="url(#p1fe5367986)" style="fill: none; stroke-dasharray: 0.6,0.99; stroke-dashoffset: 0; stroke: #b0b0b0; stroke-opacity: 0.5; stroke-width: 0.6"/>
     </g>
     <g id="line2d_28">
      <g>
       <use xlink:href="#m1944da3338" x="72.288" y="104.607445" style="stroke: #000000; stroke-width: 0.8"/>
      </g>
     </g>
     <g id="text_20">
      <!-- 300 -->
      <g transform="translate(44.29175 108.786585) scale(0.11 -0.11)">
       <use xlink:href="#DejaVuSans-33"/>
       <use xlink:href="#DejaVuSans-30" transform="translate(63.623047 0)"/>
       <use xlink:href="#DejaVuSans-30" transform="translate(127.246094 0)"/>
      </g>
     </g>
    </g>
    <g id="ytick_5">
     <g id="line2d_29">
      <path d="M 72.288 45.965433 
L 518.688 45.965433 
" clip-path="url(#p1fe5367986)" style="fill: none; stroke-dasharray: 0.6,0.99; stroke-dashoffset: 0; stroke: #b0b0b0; stroke-opacity: 0.5; stroke-width: 0.6"/>
     </g>
     <g id="line2d_30">
      <g>
       <use xlink:href="#m1944da3338" x="72.288" y="45.965433" style="stroke: #000000; stroke-width: 0.8"/>
      </g>
     </g>
     <g id="text_21">
      <!-- 400 -->
      <g transform="translate(44.29175 50.144574) scale(0.11 -0.11)">
       <use xlink:href="#DejaVuSans-34"/>
       <use xlink:href="#DejaVuSans-30" transform="translate(63.623047 0)"/>
       <use xlink:href="#DejaVuSans-30" transform="translate(127.246094 0)"/>
      </g>
     </g>
    </g>
    <g id="text_22">
     <!-- Intensity  $I_\nu$  [MJy sr$^{-1}$] -->
     <g transform="translate(37.77175 244.570313) rotate(-90) scale(0.12 -0.12)">
      <defs>
       <path id="DejaVuSans-49" d="M 628 4666 
L 1259 4666 
L 1259 0 
L 628 0 
L 628 4666 
z
" transform="scale(0.015625)"/>
       <path id="DejaVuSans-74" d="M 1172 4494 
L 1172 3500 
L 2356 3500 
L 2356 3053 
L 1172 3053 
L 1172 1153 
Q 1172 725 1289 603 
Q 1406 481 1766 481 
L 2356 481 
L 2356 0 
L 1766 0 
Q 1100 0 847 248 
Q 594 497 594 1153 
L 594 3053 
L 172 3053 
L 172 3500 
L 594 3500 
L 594 4494 
L 1172 4494 
z
" transform="scale(0.015625)"/>
       <path id="DejaVuSans-73" d="M 2834 3397 
L 2834 2853 
Q 2591 2978 2328 3040 
Q 2066 3103 1784 3103 
Q 1356 3103 1142 2972 
Q 928 2841 928 2578 
Q 928 2378 1081 2264 
Q 1234 2150 1697 2047 
L 1894 2003 
Q 2506 1872 2764 1633 
Q 3022 1394 3022 966 
Q 3022 478 2636 193 
Q 2250 -91 1575 -91 
Q 1294 -91 989 -36 
Q 684 19 347 128 
L 347 722 
Q 666 556 975 473 
Q 1284 391 1588 391 
Q 1994 391 2212 530 
Q 2431 669 2431 922 
Q 2431 1156 2273 1281 
Q 2116 1406 1581 1522 
L 1381 1569 
Q 847 1681 609 1914 
Q 372 2147 372 2553 
Q 372 3047 722 3315 
Q 1072 3584 1716 3584 
Q 2034 3584 2315 3537 
Q 2597 3491 2834 3397 
z
" transform="scale(0.015625)"/>
       <path id="DejaVuSans-69" d="M 603 3500 
L 1178 3500 
L 1178 0 
L 603 0 
L 603 3500 
z
M 603 4863 
L 1178 4863 
L 1178 4134 
L 603 4134 
L 603 4863 
z
" transform="scale(0.015625)"/>
       <path id="DejaVuSans-Oblique-49" d="M 1081 4666 
L 1716 4666 
L 806 0 
L 172 0 
L 1081 4666 
z
" transform="scale(0.015625)"/>
       <path id="DejaVuSans-Oblique-3bd" d="M 959 0 
L 572 3500 
L 1191 3500 
L 1522 563 
Q 1972 950 2391 1488 
Q 2706 1891 2788 2241 
Q 2825 2406 2809 2719 
Q 2794 3091 2544 3500 
L 3125 3500 
L 3125 3500 
Q 3288 3222 3353 2834 
Q 3416 2478 3369 2234 
Q 3250 1622 2719 1075 
Q 2025 363 1572 0 
L 959 0 
z
" transform="scale(0.015625)"/>
       <path id="DejaVuSans-4d" d="M 628 4666 
L 1569 4666 
L 2759 1491 
L 3956 4666 
L 4897 4666 
L 4897 0 
L 4281 0 
L 4281 4097 
L 3078 897 
L 2444 897 
L 1241 4097 
L 1241 0 
L 628 0 
L 628 4666 
z
" transform="scale(0.015625)"/>
       <path id="DejaVuSans-4a" d="M 628 4666 
L 1259 4666 
L 1259 325 
Q 1259 -519 939 -900 
Q 619 -1281 -91 -1281 
L -331 -1281 
L -331 -750 
L -134 -750 
Q 284 -750 456 -515 
Q 628 -281 628 325 
L 628 4666 
z
" transform="scale(0.015625)"/>
      </defs>
      <use xlink:href="#DejaVuSans-49" transform="translate(0 0.684375)"/>
      <use xlink:href="#DejaVuSans-6e" transform="translate(29.492188 0.684375)"/>
      <use xlink:href="#DejaVuSans-74" transform="translate(92.871094 0.684375)"/>
      <use xlink:href="#DejaVuSans-65" transform="translate(132.080078 0.684375)"/>
      <use xlink:href="#DejaVuSans-6e" transform="translate(193.603516 0.684375)"/>
      <use xlink:href="#DejaVuSans-73" transform="translate(256.982422 0.684375)"/>
      <use xlink:href="#DejaVuSans-69" transform="translate(309.082031 0.684375)"/>
      <use xlink:href="#DejaVuSans-74" transform="translate(336.865234 0.684375)"/>
      <use xlink:href="#DejaVuSans-79" transform="translate(376.074219 0.684375)"/>
      <use xlink:href="#DejaVuSans-20" transform="translate(435.253906 0.684375)"/>
      <use xlink:href="#DejaVuSans-20" transform="translate(467.041016 0.684375)"/>
      <use xlink:href="#DejaVuSans-Oblique-49" transform="translate(498.828125 0.684375)"/>
      <use xlink:href="#DejaVuSans-Oblique-3bd" transform="translate(528.320312 -15.721875) scale(0.7)"/>
      <use xlink:href="#DejaVuSans-20" transform="translate(570.15625 0.684375)"/>
      <use xlink:href="#DejaVuSans-20" transform="translate(601.943359 0.684375)"/>
      <use xlink:href="#DejaVuSans-5b" transform="translate(633.730469 0.684375)"/>
      <use xlink:href="#DejaVuSans-4d" transform="translate(672.744141 0.684375)"/>
      <use xlink:href="#DejaVuSans-4a" transform="translate(759.023438 0.684375)"/>
      <use xlink:href="#DejaVuSans-79" transform="translate(788.515625 0.684375)"/>
      <use xlink:href="#DejaVuSans-20" transform="translate(847.695312 0.684375)"/>
      <use xlink:href="#DejaVuSans-73" transform="translate(879.482422 0.684375)"/>
      <use xlink:href="#DejaVuSans-72" transform="translate(931.582031 0.684375)"/>
      <use xlink:href="#DejaVuSans-2212" transform="translate(973.652344 38.965625) scale(0.7)"/>
      <use xlink:href="#DejaVuSans-31" transform="translate(1032.304688 38.965625) scale(0.7)"/>
      <use xlink:href="#DejaVuSans-5d" transform="translate(1079.575195 0.684375)"/>
     </g>
    </g>
   </g>
   <g id="line2d_31">
    <path d="M 80.872615 170.448207 
L 86.605247 153.086684 
L 91.621299 138.63242 
L 95.920773 126.945069 
L 99.503667 117.775495 
L 103.086562 109.172331 
L 106.669456 101.171285 
L 110.252351 93.799632 
L 113.118666 88.368834 
L 115.984982 83.360174 
L 118.851298 78.777661 
L 121.717613 74.622823 
L 124.583929 70.894909 
L 127.450245 67.591088 
L 130.31656 64.706639 
L 132.466297 62.814708 
L 134.616034 61.151806 
L 136.765771 59.714205 
L 138.915507 58.497772 
L 141.065244 57.498008 
L 143.214981 56.710082 
L 145.364718 56.128866 
L 147.514454 55.748971 
L 149.664191 55.564775 
L 151.813928 55.570454 
L 153.963665 55.760014 
L 156.113401 56.127315 
L 158.979717 56.882702 
L 161.846033 57.927851 
L 164.712348 59.247474 
L 167.578664 60.826174 
L 170.44498 62.648522 
L 173.311295 64.699137 
L 176.89419 67.560159 
L 180.477084 70.724577 
L 184.059979 74.163557 
L 188.359452 78.613248 
L 192.658926 83.370973 
L 197.674978 89.251195 
L 203.40761 96.323765 
L 210.573399 105.556821 
L 219.888925 117.959453 
L 242.81945 148.66404 
L 251.418397 159.733289 
L 258.584186 168.62725 
L 265.749975 177.167921 
L 272.199185 184.522113 
L 278.648396 191.541575 
L 285.097606 198.213729 
L 290.830237 203.847142 
L 296.562868 209.198691 
L 302.2955 214.269132 
L 308.028131 219.061399 
L 313.760762 223.58027 
L 319.493394 227.832048 
L 325.226025 231.824284 
L 330.958656 235.565522 
L 336.691288 239.065077 
L 343.140498 242.725513 
L 349.589708 246.107243 
L 356.038918 249.22529 
L 362.488128 252.094807 
L 368.937339 254.730893 
L 376.103128 257.404189 
L 383.268917 259.827577 
L 390.434706 262.020282 
L 398.317074 264.187768 
L 406.199442 266.121628 
L 414.798389 267.990458 
L 423.397336 269.633562 
L 432.712862 271.186971 
L 442.744967 272.627648 
L 453.49365 273.938926 
L 464.958913 275.110558 
L 477.857334 276.192728 
L 491.472333 277.111038 
L 507.237069 277.943042 
L 510.103385 278.071854 
L 510.103385 278.071854 
" clip-path="url(#p1fe5367986)" style="fill: none; stroke: #1f4e79; stroke-width: 2.2; stroke-linecap: square"/>
   </g>
   <g id="patch_5">
    <path d="M 72.288 316.030313 
L 72.288 38.830313 
" style="fill: none; stroke: #000000; stroke-width: 0.8; stroke-linejoin: miter; stroke-linecap: square"/>
   </g>
   <g id="patch_6">
    <path d="M 518.688 316.030313 
L 518.688 38.830313 
" style="fill: none; stroke: #000000; stroke-width: 0.8; stroke-linejoin: miter; stroke-linecap: square"/>
   </g>
   <g id="patch_7">
    <path d="M 72.288 316.030313 
L 518.688 316.030313 
" style="fill: none; stroke: #000000; stroke-width: 0.8; stroke-linejoin: miter; stroke-linecap: square"/>
   </g>
   <g id="patch_8">
    <path d="M 72.288 38.830313 
L 518.688 38.830313 
" style="fill: none; stroke: #000000; stroke-width: 0.8; stroke-linejoin: miter; stroke-linecap: square"/>
   </g>
   <g id="LineCollection_1">
    <path d="M 83.358199 166.113634 
L 83.358199 159.545729 
" clip-path="url(#p1fe5367986)" style="fill: none; stroke: #c43f6b; stroke-width: 1.1"/>
    <path d="M 93.212937 138.680767 
L 93.212937 129.767181 
" clip-path="url(#p1fe5367986)" style="fill: none; stroke: #c43f6b; stroke-width: 1.1"/>
    <path d="M 103.286669 114.573503 
L 103.286669 102.8451 
" clip-path="url(#p1fe5367986)" style="fill: none; stroke: #c43f6b; stroke-width: 1.1"/>
    <path d="M 113.141407 93.722494 
L 113.141407 82.932364 
" clip-path="url(#p1fe5367986)" style="fill: none; stroke: #c43f6b; stroke-width: 1.1"/>
    <path d="M 122.996145 78.067848 
L 122.996145 67.746854 
" clip-path="url(#p1fe5367986)" style="fill: none; stroke: #c43f6b; stroke-width: 1.1"/>
    <path d="M 133.069877 67.250774 
L 133.069877 57.398916 
" clip-path="url(#p1fe5367986)" style="fill: none; stroke: #c43f6b; stroke-width: 1.1"/>
    <path d="M 142.924614 61.026541 
L 142.924614 52.582092 
" clip-path="url(#p1fe5367986)" style="fill: none; stroke: #c43f6b; stroke-width: 1.1"/>
    <path d="M 152.998346 59.874762 
L 152.998346 51.430313 
" clip-path="url(#p1fe5367986)" style="fill: none; stroke: #c43f6b; stroke-width: 1.1"/>
    <path d="M 162.853084 62.114089 
L 162.853084 54.607911 
" clip-path="url(#p1fe5367986)" style="fill: none; stroke: #c43f6b; stroke-width: 1.1"/>
    <path d="M 172.707822 67.533142 
L 172.707822 60.965237 
" clip-path="url(#p1fe5367986)" style="fill: none; stroke: #c43f6b; stroke-width: 1.1"/>
    <path d="M 182.781554 75.956145 
L 182.781554 69.857376 
" clip-path="url(#p1fe5367986)" style="fill: none; stroke: #c43f6b; stroke-width: 1.1"/>
    <path d="M 192.636292 86.160015 
L 192.636292 80.530382 
" clip-path="url(#p1fe5367986)" style="fill: none; stroke: #c43f6b; stroke-width: 1.1"/>
    <path d="M 202.491029 97.751627 
L 202.491029 92.59113 
" clip-path="url(#p1fe5367986)" style="fill: none; stroke: #c43f6b; stroke-width: 1.1"/>
    <path d="M 212.564761 110.525078 
L 212.564761 105.833717 
" clip-path="url(#p1fe5367986)" style="fill: none; stroke: #c43f6b; stroke-width: 1.1"/>
    <path d="M 222.419499 123.949176 
L 222.419499 118.788679 
" clip-path="url(#p1fe5367986)" style="fill: none; stroke: #c43f6b; stroke-width: 1.1"/>
    <path d="M 232.493231 137.767317 
L 232.493231 132.137684 
" clip-path="url(#p1fe5367986)" style="fill: none; stroke: #c43f6b; stroke-width: 1.1"/>
    <path d="M 242.347969 151.330473 
L 242.347969 144.762567 
" clip-path="url(#p1fe5367986)" style="fill: none; stroke: #c43f6b; stroke-width: 1.1"/>
    <path d="M 252.202707 164.475669 
L 252.202707 156.969491 
" clip-path="url(#p1fe5367986)" style="fill: none; stroke: #c43f6b; stroke-width: 1.1"/>
    <path d="M 262.276439 177.296844 
L 262.276439 168.852394 
" clip-path="url(#p1fe5367986)" style="fill: none; stroke: #c43f6b; stroke-width: 1.1"/>
    <path d="M 272.131176 189.606777 
L 272.131176 179.285783 
" clip-path="url(#p1fe5367986)" style="fill: none; stroke: #c43f6b; stroke-width: 1.1"/>
    <path d="M 281.985914 200.198892 
L 281.985914 189.877898 
" clip-path="url(#p1fe5367986)" style="fill: none; stroke: #c43f6b; stroke-width: 1.1"/>
    <path d="M 292.059646 210.413643 
L 292.059646 199.623513 
" clip-path="url(#p1fe5367986)" style="fill: none; stroke: #c43f6b; stroke-width: 1.1"/>
    <path d="M 301.914384 219.33578 
L 301.914384 208.545649 
" clip-path="url(#p1fe5367986)" style="fill: none; stroke: #c43f6b; stroke-width: 1.1"/>
    <path d="M 311.988116 227.606855 
L 311.988116 216.816725 
" clip-path="url(#p1fe5367986)" style="fill: none; stroke: #c43f6b; stroke-width: 1.1"/>
    <path d="M 321.842854 234.425076 
L 321.842854 224.573218 
" clip-path="url(#p1fe5367986)" style="fill: none; stroke: #c43f6b; stroke-width: 1.1"/>
    <path d="M 331.697592 240.72134 
L 331.697592 231.338618 
" clip-path="url(#p1fe5367986)" style="fill: none; stroke: #c43f6b; stroke-width: 1.1"/>
    <path d="M 341.771324 246.428997 
L 341.771324 237.515411 
" clip-path="url(#p1fe5367986)" style="fill: none; stroke: #c43f6b; stroke-width: 1.1"/>
    <path d="M 351.626061 251.576335 
L 351.626061 242.662749 
" clip-path="url(#p1fe5367986)" style="fill: none; stroke: #c43f6b; stroke-width: 1.1"/>
    <path d="M 361.480799 256.588299 
L 361.480799 246.736441 
" clip-path="url(#p1fe5367986)" style="fill: none; stroke: #c43f6b; stroke-width: 1.1"/>
    <path d="M 371.554531 260.663415 
L 371.554531 250.811557 
" clip-path="url(#p1fe5367986)" style="fill: none; stroke: #c43f6b; stroke-width: 1.1"/>
    <path d="M 381.409269 264.616657 
L 381.409269 253.826527 
" clip-path="url(#p1fe5367986)" style="fill: none; stroke: #c43f6b; stroke-width: 1.1"/>
    <path d="M 391.483001 268.421599 
L 391.483001 256.224061 
" clip-path="url(#p1fe5367986)" style="fill: none; stroke: #c43f6b; stroke-width: 1.1"/>
    <path d="M 401.337739 271.523152 
L 401.337739 258.387341 
" clip-path="url(#p1fe5367986)" style="fill: none; stroke: #c43f6b; stroke-width: 1.1"/>
    <path d="M 411.192476 274.27277 
L 411.192476 260.198687 
" clip-path="url(#p1fe5367986)" style="fill: none; stroke: #c43f6b; stroke-width: 1.1"/>
    <path d="M 421.266208 277.455906 
L 421.266208 261.036143 
" clip-path="url(#p1fe5367986)" style="fill: none; stroke: #c43f6b; stroke-width: 1.1"/>
    <path d="M 431.120946 280.085166 
L 431.120946 261.788858 
" clip-path="url(#p1fe5367986)" style="fill: none; stroke: #c43f6b; stroke-width: 1.1"/>
    <path d="M 441.194678 282.975053 
L 441.194678 261.863928 
" clip-path="url(#p1fe5367986)" style="fill: none; stroke: #c43f6b; stroke-width: 1.1"/>
    <path d="M 451.049416 285.388471 
L 451.049416 261.931666 
" clip-path="url(#p1fe5367986)" style="fill: none; stroke: #c43f6b; stroke-width: 1.1"/>
    <path d="M 460.904154 287.856498 
L 460.904154 261.584877 
" clip-path="url(#p1fe5367986)" style="fill: none; stroke: #c43f6b; stroke-width: 1.1"/>
    <path d="M 470.977886 290.421768 
L 470.977886 260.866194 
" clip-path="url(#p1fe5367986)" style="fill: none; stroke: #c43f6b; stroke-width: 1.1"/>
    <path d="M 480.832623 294.238649 
L 480.832623 258.584306 
" clip-path="url(#p1fe5367986)" style="fill: none; stroke: #c43f6b; stroke-width: 1.1"/>
    <path d="M 490.687361 297.940114 
L 490.687361 256.187002 
" clip-path="url(#p1fe5367986)" style="fill: none; stroke: #c43f6b; stroke-width: 1.1"/>
    <path d="M 500.761093 303.430313 
L 500.761093 251.825342 
" clip-path="url(#p1fe5367986)" style="fill: none; stroke: #c43f6b; stroke-width: 1.1"/>
   </g>
   <g id="line2d_32">
    <defs>
     <path id="m00240ab9e6" d="M 2.5 0 
L -2.5 -0 
" style="stroke: #c43f6b"/>
    </defs>
    <g clip-path="url(#p1fe5367986)">
     <use xlink:href="#m00240ab9e6" x="83.358199" y="166.113634" style="fill: #c43f6b; stroke: #c43f6b"/>
     <use xlink:href="#m00240ab9e6" x="93.212937" y="138.680767" style="fill: #c43f6b; stroke: #c43f6b"/>
     <use xlink:href="#m00240ab9e6" x="103.286669" y="114.573503" style="fill: #c43f6b; stroke: #c43f6b"/>
     <use xlink:href="#m00240ab9e6" x="113.141407" y="93.722494" style="fill: #c43f6b; stroke: #c43f6b"/>
     <use xlink:href="#m00240ab9e6" x="122.996145" y="78.067848" style="fill: #c43f6b; stroke: #c43f6b"/>
     <use xlink:href="#m00240ab9e6" x="133.069877" y="67.250774" style="fill: #c43f6b; stroke: #c43f6b"/>
     <use xlink:href="#m00240ab9e6" x="142.924614" y="61.026541" style="fill: #c43f6b; stroke: #c43f6b"/>
     <use xlink:href="#m00240ab9e6" x="152.998346" y="59.874762" style="fill: #c43f6b; stroke: #c43f6b"/>
     <use xlink:href="#m00240ab9e6" x="162.853084" y="62.114089" style="fill: #c43f6b; stroke: #c43f6b"/>
     <use xlink:href="#m00240ab9e6" x="172.707822" y="67.533142" style="fill: #c43f6b; stroke: #c43f6b"/>
     <use xlink:href="#m00240ab9e6" x="182.781554" y="75.956145" style="fill: #c43f6b; stroke: #c43f6b"/>
     <use xlink:href="#m00240ab9e6" x="192.636292" y="86.160015" style="fill: #c43f6b; stroke: #c43f6b"/>
     <use xlink:href="#m00240ab9e6" x="202.491029" y="97.751627" style="fill: #c43f6b; stroke: #c43f6b"/>
     <use xlink:href="#m00240ab9e6" x="212.564761" y="110.525078" style="fill: #c43f6b; stroke: #c43f6b"/>
     <use xlink:href="#m00240ab9e6" x="222.419499" y="123.949176" style="fill: #c43f6b; stroke: #c43f6b"/>
     <use xlink:href="#m00240ab9e6" x="232.493231" y="137.767317" style="fill: #c43f6b; stroke: #c43f6b"/>
     <use xlink:href="#m00240ab9e6" x="242.347969" y="151.330473" style="fill: #c43f6b; stroke: #c43f6b"/>
     <use xlink:href="#m00240ab9e6" x="252.202707" y="164.475669" style="fill: #c43f6b; stroke: #c43f6b"/>
     <use xlink:href="#m00240ab9e6" x="262.276439" y="177.296844" style="fill: #c43f6b; stroke: #c43f6b"/>
     <use xlink:href="#m00240ab9e6" x="272.131176" y="189.606777" style="fill: #c43f6b; stroke: #c43f6b"/>
     <use xlink:href="#m00240ab9e6" x="281.985914" y="200.198892" style="fill: #c43f6b; stroke: #c43f6b"/>
     <use xlink:href="#m00240ab9e6" x="292.059646" y="210.413643" style="fill: #c43f6b; stroke: #c43f6b"/>
     <use xlink:href="#m00240ab9e6" x="301.914384" y="219.33578" style="fill: #c43f6b; stroke: #c43f6b"/>
     <use xlink:href="#m00240ab9e6" x="311.988116" y="227.606855" style="fill: #c43f6b; stroke: #c43f6b"/>
     <use xlink:href="#m00240ab9e6" x="321.842854" y="234.425076" style="fill: #c43f6b; stroke: #c43f6b"/>
     <use xlink:href="#m00240ab9e6" x="331.697592" y="240.72134" style="fill: #c43f6b; stroke: #c43f6b"/>
     <use xlink:href="#m00240ab9e6" x="341.771324" y="246.428997" style="fill: #c43f6b; stroke: #c43f6b"/>
     <use xlink:href="#m00240ab9e6" x="351.626061" y="251.576335" style="fill: #c43f6b; stroke: #c43f6b"/>
     <use xlink:href="#m00240ab9e6" x="361.480799" y="256.588299" style="fill: #c43f6b; stroke: #c43f6b"/>
     <use xlink:href="#m00240ab9e6" x="371.554531" y="260.663415" style="fill: #c43f6b; stroke: #c43f6b"/>
     <use xlink:href="#m00240ab9e6" x="381.409269" y="264.616657" style="fill: #c43f6b; stroke: #c43f6b"/>
     <use xlink:href="#m00240ab9e6" x="391.483001" y="268.421599" style="fill: #c43f6b; stroke: #c43f6b"/>
     <use xlink:href="#m00240ab9e6" x="401.337739" y="271.523152" style="fill: #c43f6b; stroke: #c43f6b"/>
     <use xlink:href="#m00240ab9e6" x="411.192476" y="274.27277" style="fill: #c43f6b; stroke: #c43f6b"/>
     <use xlink:href="#m00240ab9e6" x="421.266208" y="277.455906" style="fill: #c43f6b; stroke: #c43f6b"/>
     <use xlink:href="#m00240ab9e6" x="431.120946" y="280.085166" style="fill: #c43f6b; stroke: #c43f6b"/>
     <use xlink:href="#m00240ab9e6" x="441.194678" y="282.975053" style="fill: #c43f6b; stroke: #c43f6b"/>
     <use xlink:href="#m00240ab9e6" x="451.049416" y="285.388471" style="fill: #c43f6b; stroke: #c43f6b"/>
     <use xlink:href="#m00240ab9e6" x="460.904154" y="287.856498" style="fill: #c43f6b; stroke: #c43f6b"/>
     <use xlink:href="#m00240ab9e6" x="470.977886" y="290.421768" style="fill: #c43f6b; stroke: #c43f6b"/>
     <use xlink:href="#m00240ab9e6" x="480.832623" y="294.238649" style="fill: #c43f6b; stroke: #c43f6b"/>
     <use xlink:href="#m00240ab9e6" x="490.687361" y="297.940114" style="fill: #c43f6b; stroke: #c43f6b"/>
     <use xlink:href="#m00240ab9e6" x="500.761093" y="303.430313" style="fill: #c43f6b; stroke: #c43f6b"/>
    </g>
   </g>
   <g id="line2d_33">
    <g clip-path="url(#p1fe5367986)">
     <use xlink:href="#m00240ab9e6" x="83.358199" y="159.545729" style="fill: #c43f6b; stroke: #c43f6b"/>
     <use xlink:href="#m00240ab9e6" x="93.212937" y="129.767181" style="fill: #c43f6b; stroke: #c43f6b"/>
     <use xlink:href="#m00240ab9e6" x="103.286669" y="102.8451" style="fill: #c43f6b; stroke: #c43f6b"/>
     <use xlink:href="#m00240ab9e6" x="113.141407" y="82.932364" style="fill: #c43f6b; stroke: #c43f6b"/>
     <use xlink:href="#m00240ab9e6" x="122.996145" y="67.746854" style="fill: #c43f6b; stroke: #c43f6b"/>
     <use xlink:href="#m00240ab9e6" x="133.069877" y="57.398916" style="fill: #c43f6b; stroke: #c43f6b"/>
     <use xlink:href="#m00240ab9e6" x="142.924614" y="52.582092" style="fill: #c43f6b; stroke: #c43f6b"/>
     <use xlink:href="#m00240ab9e6" x="152.998346" y="51.430313" style="fill: #c43f6b; stroke: #c43f6b"/>
     <use xlink:href="#m00240ab9e6" x="162.853084" y="54.607911" style="fill: #c43f6b; stroke: #c43f6b"/>
     <use xlink:href="#m00240ab9e6" x="172.707822" y="60.965237" style="fill: #c43f6b; stroke: #c43f6b"/>
     <use xlink:href="#m00240ab9e6" x="182.781554" y="69.857376" style="fill: #c43f6b; stroke: #c43f6b"/>
     <use xlink:href="#m00240ab9e6" x="192.636292" y="80.530382" style="fill: #c43f6b; stroke: #c43f6b"/>
     <use xlink:href="#m00240ab9e6" x="202.491029" y="92.59113" style="fill: #c43f6b; stroke: #c43f6b"/>
     <use xlink:href="#m00240ab9e6" x="212.564761" y="105.833717" style="fill: #c43f6b; stroke: #c43f6b"/>
     <use xlink:href="#m00240ab9e6" x="222.419499" y="118.788679" style="fill: #c43f6b; stroke: #c43f6b"/>
     <use xlink:href="#m00240ab9e6" x="232.493231" y="132.137684" style="fill: #c43f6b; stroke: #c43f6b"/>
     <use xlink:href="#m00240ab9e6" x="242.347969" y="144.762567" style="fill: #c43f6b; stroke: #c43f6b"/>
     <use xlink:href="#m00240ab9e6" x="252.202707" y="156.969491" style="fill: #c43f6b; stroke: #c43f6b"/>
     <use xlink:href="#m00240ab9e6" x="262.276439" y="168.852394" style="fill: #c43f6b; stroke: #c43f6b"/>
     <use xlink:href="#m00240ab9e6" x="272.131176" y="179.285783" style="fill: #c43f6b; stroke: #c43f6b"/>
     <use xlink:href="#m00240ab9e6" x="281.985914" y="189.877898" style="fill: #c43f6b; stroke: #c43f6b"/>
     <use xlink:href="#m00240ab9e6" x="292.059646" y="199.623513" style="fill: #c43f6b; stroke: #c43f6b"/>
     <use xlink:href="#m00240ab9e6" x="301.914384" y="208.545649" style="fill: #c43f6b; stroke: #c43f6b"/>
     <use xlink:href="#m00240ab9e6" x="311.988116" y="216.816725" style="fill: #c43f6b; stroke: #c43f6b"/>
     <use xlink:href="#m00240ab9e6" x="321.842854" y="224.573218" style="fill: #c43f6b; stroke: #c43f6b"/>
     <use xlink:href="#m00240ab9e6" x="331.697592" y="231.338618" style="fill: #c43f6b; stroke: #c43f6b"/>
     <use xlink:href="#m00240ab9e6" x="341.771324" y="237.515411" style="fill: #c43f6b; stroke: #c43f6b"/>
     <use xlink:href="#m00240ab9e6" x="351.626061" y="242.662749" style="fill: #c43f6b; stroke: #c43f6b"/>
     <use xlink:href="#m00240ab9e6" x="361.480799" y="246.736441" style="fill: #c43f6b; stroke: #c43f6b"/>
     <use xlink:href="#m00240ab9e6" x="371.554531" y="250.811557" style="fill: #c43f6b; stroke: #c43f6b"/>
     <use xlink:href="#m00240ab9e6" x="381.409269" y="253.826527" style="fill: #c43f6b; stroke: #c43f6b"/>
     <use xlink:href="#m00240ab9e6" x="391.483001" y="256.224061" style="fill: #c43f6b; stroke: #c43f6b"/>
     <use xlink:href="#m00240ab9e6" x="401.337739" y="258.387341" style="fill: #c43f6b; stroke: #c43f6b"/>
     <use xlink:href="#m00240ab9e6" x="411.192476" y="260.198687" style="fill: #c43f6b; stroke: #c43f6b"/>
     <use xlink:href="#m00240ab9e6" x="421.266208" y="261.036143" style="fill: #c43f6b; stroke: #c43f6b"/>
     <use xlink:href="#m00240ab9e6" x="431.120946" y="261.788858" style="fill: #c43f6b; stroke: #c43f6b"/>
     <use xlink:href="#m00240ab9e6" x="441.194678" y="261.863928" style="fill: #c43f6b; stroke: #c43f6b"/>
     <use xlink:href="#m00240ab9e6" x="451.049416" y="261.931666" style="fill: #c43f6b; stroke: #c43f6b"/>
     <use xlink:href="#m00240ab9e6" x="460.904154" y="261.584877" style="fill: #c43f6b; stroke: #c43f6b"/>
     <use xlink:href="#m00240ab9e6" x="470.977886" y="260.866194" style="fill: #c43f6b; stroke: #c43f6b"/>
     <use xlink:href="#m00240ab9e6" x="480.832623" y="258.584306" style="fill: #c43f6b; stroke: #c43f6b"/>
     <use xlink:href="#m00240ab9e6" x="490.687361" y="256.187002" style="fill: #c43f6b; stroke: #c43f6b"/>
     <use xlink:href="#m00240ab9e6" x="500.761093" y="251.825342" style="fill: #c43f6b; stroke: #c43f6b"/>
    </g>
   </g>
   <g id="patch_9">
    <path d="M 257.627188 79.396311 
Q 206.288235 67.74579 156.039592 56.342698 
" style="fill: none; stroke: #1f4e79; stroke-linecap: round"/>
    <path d="M 159.497797 59.178332 
L 156.039592 56.342698 
L 160.383022 55.277514 
" style="fill: none; stroke: #1f4e79; stroke-linecap: round"/>
   </g>
   <g id="text_23">
    <!-- peak $\approx$ 160 GHz (5.45 cm$^{-1}$) -->
    <g style="fill: #1f4e79" transform="translate(218.74208 90.837744) scale(0.1 -0.1)">
     <defs>
      <path id="DejaVuSans-70" d="M 1159 525 
L 1159 -1331 
L 581 -1331 
L 581 3500 
L 1159 3500 
L 1159 2969 
Q 1341 3281 1617 3432 
Q 1894 3584 2278 3584 
Q 2916 3584 3314 3078 
Q 3713 2572 3713 1747 
Q 3713 922 3314 415 
Q 2916 -91 2278 -91 
Q 1894 -91 1617 61 
Q 1341 213 1159 525 
z
M 3116 1747 
Q 3116 2381 2855 2742 
Q 2594 3103 2138 3103 
Q 1681 3103 1420 2742 
Q 1159 2381 1159 1747 
Q 1159 1113 1420 752 
Q 1681 391 2138 391 
Q 2594 391 2855 752 
Q 3116 1113 3116 1747 
z
" transform="scale(0.015625)"/>
      <path id="DejaVuSans-6b" d="M 581 4863 
L 1159 4863 
L 1159 1991 
L 2875 3500 
L 3609 3500 
L 1753 1863 
L 3688 0 
L 2938 0 
L 1159 1709 
L 1159 0 
L 581 0 
L 581 4863 
z
" transform="scale(0.015625)"/>
      <path id="DejaVuSans-2248" d="M 4684 1947 
L 4684 1388 
Q 4356 1144 4076 1036 
Q 3797 928 3494 928 
Q 3150 928 2694 1113 
Q 2663 1125 2641 1134 
Q 2622 1141 2575 1159 
Q 2091 1350 1797 1350 
Q 1522 1350 1253 1231 
Q 984 1113 678 850 
L 678 1409 
Q 1006 1653 1286 1761 
Q 1566 1869 1869 1869 
Q 2213 1869 2672 1684 
Q 2706 1669 2722 1663 
Q 2741 1656 2788 1638 
Q 3272 1447 3566 1447 
Q 3834 1447 4098 1564 
Q 4363 1681 4684 1947 
z
M 4684 3163 
L 4684 2606 
Q 4356 2359 4076 2251 
Q 3797 2144 3494 2144 
Q 3150 2144 2694 2328 
Q 2663 2341 2641 2350 
Q 2622 2356 2575 2375 
Q 2091 2566 1797 2566 
Q 1522 2566 1253 2447 
Q 984 2328 678 2069 
L 678 2625 
Q 1006 2869 1286 2976 
Q 1566 3084 1869 3084 
Q 2213 3084 2672 2900 
Q 2703 2888 2719 2881 
Q 2741 2872 2788 2853 
Q 3272 2663 3566 2663 
Q 3834 2663 4098 2780 
Q 4363 2897 4684 3163 
z
" transform="scale(0.015625)"/>
      <path id="DejaVuSans-28" d="M 1984 4856 
Q 1566 4138 1362 3434 
Q 1159 2731 1159 2009 
Q 1159 1288 1364 580 
Q 1569 -128 1984 -844 
L 1484 -844 
Q 1016 -109 783 600 
Q 550 1309 550 2009 
Q 550 2706 781 3412 
Q 1013 4119 1484 4856 
L 1984 4856 
z
" transform="scale(0.015625)"/>
      <path id="DejaVuSans-29" d="M 513 4856 
L 1013 4856 
Q 1481 4119 1714 3412 
Q 1947 2706 1947 2009 
Q 1947 1309 1714 600 
Q 1481 -109 1013 -844 
L 513 -844 
Q 928 -128 1133 580 
Q 1338 1288 1338 2009 
Q 1338 2731 1133 3434 
Q 928 4138 513 4856 
z
" transform="scale(0.015625)"/>
     </defs>
     <use xlink:href="#DejaVuSans-70" transform="translate(0 0.684375)"/>
     <use xlink:href="#DejaVuSans-65" transform="translate(63.476562 0.684375)"/>
     <use xlink:href="#DejaVuSans-61" transform="translate(125 0.684375)"/>
     <use xlink:href="#DejaVuSans-6b" transform="translate(186.279297 0.684375)"/>
     <use xlink:href="#DejaVuSans-20" transform="translate(244.189453 0.684375)"/>
     <use xlink:href="#DejaVuSans-2248" transform="translate(295.458984 0.684375)"/>
     <use xlink:href="#DejaVuSans-20" transform="translate(398.730469 0.684375)"/>
     <use xlink:href="#DejaVuSans-31" transform="translate(430.517578 0.684375)"/>
     <use xlink:href="#DejaVuSans-36" transform="translate(494.140625 0.684375)"/>
     <use xlink:href="#DejaVuSans-30" transform="translate(557.763672 0.684375)"/>
     <use xlink:href="#DejaVuSans-20" transform="translate(621.386719 0.684375)"/>
     <use xlink:href="#DejaVuSans-47" transform="translate(653.173828 0.684375)"/>
     <use xlink:href="#DejaVuSans-48" transform="translate(730.664062 0.684375)"/>
     <use xlink:href="#DejaVuSans-7a" transform="translate(805.859375 0.684375)"/>
     <use xlink:href="#DejaVuSans-20" transform="translate(858.349609 0.684375)"/>
     <use xlink:href="#DejaVuSans-28" transform="translate(890.136719 0.684375)"/>
     <use xlink:href="#DejaVuSans-35" transform="translate(929.150391 0.684375)"/>
     <use xlink:href="#DejaVuSans-2e" transform="translate(992.773438 0.684375)"/>
     <use xlink:href="#DejaVuSans-34" transform="translate(1024.560547 0.684375)"/>
     <use xlink:href="#DejaVuSans-35" transform="translate(1088.183594 0.684375)"/>
     <use xlink:href="#DejaVuSans-20" transform="translate(1151.806641 0.684375)"/>
     <use xlink:href="#DejaVuSans-63" transform="translate(1183.59375 0.684375)"/>
     <use xlink:href="#DejaVuSans-6d" transform="translate(1238.574219 0.684375)"/>
     <use xlink:href="#DejaVuSans-2212" transform="translate(1336.943359 38.965625) scale(0.7)"/>
     <use xlink:href="#DejaVuSans-31" transform="translate(1395.595703 38.965625) scale(0.7)"/>
     <use xlink:href="#DejaVuSans-29" transform="translate(1442.866211 0.684375)"/>
    </g>
   </g>
   <g id="line2d_34">
    <defs>
     <path id="mb30ec773b5" d="M 0 2.25 
C 0.596707 2.25 1.169055 2.012926 1.59099 1.59099 
C 2.012926 1.169055 2.25 0.596707 2.25 0 
C 2.25 -0.596707 2.012926 -1.169055 1.59099 -1.59099 
C 1.169055 -2.012926 0.596707 -2.25 0 -2.25 
C -0.596707 -2.25 -1.169055 -2.012926 -1.59099 -1.59099 
C -2.012926 -1.169055 -2.25 -0.596707 -2.25 0 
C -2.25 0.596707 -2.012926 1.169055 -1.59099 1.59099 
C -1.169055 2.012926 -0.596707 2.25 0 2.25 
z
" style="stroke: #c43f6b"/>
    </defs>
    <g clip-path="url(#p1fe5367986)">
     <use xlink:href="#mb30ec773b5" x="83.358199" y="162.829682" style="fill: #c43f6b; stroke: #c43f6b"/>
     <use xlink:href="#mb30ec773b5" x="93.212937" y="134.223974" style="fill: #c43f6b; stroke: #c43f6b"/>
     <use xlink:href="#mb30ec773b5" x="103.286669" y="108.709301" style="fill: #c43f6b; stroke: #c43f6b"/>
     <use xlink:href="#mb30ec773b5" x="113.141407" y="88.327429" style="fill: #c43f6b; stroke: #c43f6b"/>
     <use xlink:href="#mb30ec773b5" x="122.996145" y="72.907351" style="fill: #c43f6b; stroke: #c43f6b"/>
     <use xlink:href="#mb30ec773b5" x="133.069877" y="62.324845" style="fill: #c43f6b; stroke: #c43f6b"/>
     <use xlink:href="#mb30ec773b5" x="142.924614" y="56.804316" style="fill: #c43f6b; stroke: #c43f6b"/>
     <use xlink:href="#mb30ec773b5" x="152.998346" y="55.652537" style="fill: #c43f6b; stroke: #c43f6b"/>
     <use xlink:href="#mb30ec773b5" x="162.853084" y="58.361" style="fill: #c43f6b; stroke: #c43f6b"/>
     <use xlink:href="#mb30ec773b5" x="172.707822" y="64.24919" style="fill: #c43f6b; stroke: #c43f6b"/>
     <use xlink:href="#mb30ec773b5" x="182.781554" y="72.90676" style="fill: #c43f6b; stroke: #c43f6b"/>
     <use xlink:href="#mb30ec773b5" x="192.636292" y="83.345199" style="fill: #c43f6b; stroke: #c43f6b"/>
     <use xlink:href="#mb30ec773b5" x="202.491029" y="95.171378" style="fill: #c43f6b; stroke: #c43f6b"/>
     <use xlink:href="#mb30ec773b5" x="212.564761" y="108.179397" style="fill: #c43f6b; stroke: #c43f6b"/>
     <use xlink:href="#mb30ec773b5" x="222.419499" y="121.368927" style="fill: #c43f6b; stroke: #c43f6b"/>
     <use xlink:href="#mb30ec773b5" x="232.493231" y="134.9525" style="fill: #c43f6b; stroke: #c43f6b"/>
     <use xlink:href="#mb30ec773b5" x="242.347969" y="148.04652" style="fill: #c43f6b; stroke: #c43f6b"/>
     <use xlink:href="#mb30ec773b5" x="252.202707" y="160.72258" style="fill: #c43f6b; stroke: #c43f6b"/>
     <use xlink:href="#mb30ec773b5" x="262.276439" y="173.074619" style="fill: #c43f6b; stroke: #c43f6b"/>
     <use xlink:href="#mb30ec773b5" x="272.131176" y="184.44628" style="fill: #c43f6b; stroke: #c43f6b"/>
     <use xlink:href="#mb30ec773b5" x="281.985914" y="195.038395" style="fill: #c43f6b; stroke: #c43f6b"/>
     <use xlink:href="#mb30ec773b5" x="292.059646" y="205.018578" style="fill: #c43f6b; stroke: #c43f6b"/>
     <use xlink:href="#mb30ec773b5" x="301.914384" y="213.940714" style="fill: #c43f6b; stroke: #c43f6b"/>
     <use xlink:href="#mb30ec773b5" x="311.988116" y="222.21179" style="fill: #c43f6b; stroke: #c43f6b"/>
     <use xlink:href="#mb30ec773b5" x="321.842854" y="229.499147" style="fill: #c43f6b; stroke: #c43f6b"/>
     <use xlink:href="#mb30ec773b5" x="331.697592" y="236.029979" style="fill: #c43f6b; stroke: #c43f6b"/>
     <use xlink:href="#mb30ec773b5" x="341.771324" y="241.972204" style="fill: #c43f6b; stroke: #c43f6b"/>
     <use xlink:href="#mb30ec773b5" x="351.626061" y="247.119542" style="fill: #c43f6b; stroke: #c43f6b"/>
     <use xlink:href="#mb30ec773b5" x="361.480799" y="251.66237" style="fill: #c43f6b; stroke: #c43f6b"/>
     <use xlink:href="#mb30ec773b5" x="371.554531" y="255.737486" style="fill: #c43f6b; stroke: #c43f6b"/>
     <use xlink:href="#mb30ec773b5" x="381.409269" y="259.221592" style="fill: #c43f6b; stroke: #c43f6b"/>
     <use xlink:href="#mb30ec773b5" x="391.483001" y="262.32283" style="fill: #c43f6b; stroke: #c43f6b"/>
     <use xlink:href="#mb30ec773b5" x="401.337739" y="264.955247" style="fill: #c43f6b; stroke: #c43f6b"/>
     <use xlink:href="#mb30ec773b5" x="411.192476" y="267.235728" style="fill: #c43f6b; stroke: #c43f6b"/>
     <use xlink:href="#mb30ec773b5" x="421.266208" y="269.246024" style="fill: #c43f6b; stroke: #c43f6b"/>
     <use xlink:href="#mb30ec773b5" x="431.120946" y="270.937012" style="fill: #c43f6b; stroke: #c43f6b"/>
     <use xlink:href="#mb30ec773b5" x="441.194678" y="272.41949" style="fill: #c43f6b; stroke: #c43f6b"/>
     <use xlink:href="#mb30ec773b5" x="451.049416" y="273.660069" style="fill: #c43f6b; stroke: #c43f6b"/>
     <use xlink:href="#mb30ec773b5" x="460.904154" y="274.720687" style="fill: #c43f6b; stroke: #c43f6b"/>
     <use xlink:href="#mb30ec773b5" x="470.977886" y="275.643981" style="fill: #c43f6b; stroke: #c43f6b"/>
     <use xlink:href="#mb30ec773b5" x="480.832623" y="276.411478" style="fill: #c43f6b; stroke: #c43f6b"/>
     <use xlink:href="#mb30ec773b5" x="490.687361" y="277.063558" style="fill: #c43f6b; stroke: #c43f6b"/>
     <use xlink:href="#mb30ec773b5" x="500.761093" y="277.627827" style="fill: #c43f6b; stroke: #c43f6b"/>
    </g>
   </g>
   <g id="legend_1">
    <g id="line2d_35">
     <path d="M 339.747219 53.238594 
L 350.747219 53.238594 
L 361.747219 53.238594 
" style="fill: none; stroke: #1f4e79; stroke-width: 2.2; stroke-linecap: square"/>
    </g>
    <g id="text_24">
     <!-- Blackbody, T = 2.725 K -->
     <g transform="translate(370.547219 57.088594) scale(0.11 -0.11)">
      <defs>
       <path id="DejaVuSans-42" d="M 1259 2228 
L 1259 519 
L 2272 519 
Q 2781 519 3026 730 
Q 3272 941 3272 1375 
Q 3272 1813 3026 2020 
Q 2781 2228 2272 2228 
L 1259 2228 
z
M 1259 4147 
L 1259 2741 
L 2194 2741 
Q 2656 2741 2882 2914 
Q 3109 3088 3109 3444 
Q 3109 3797 2882 3972 
Q 2656 4147 2194 4147 
L 1259 4147 
z
M 628 4666 
L 2241 4666 
Q 2963 4666 3353 4366 
Q 3744 4066 3744 3513 
Q 3744 3084 3544 2831 
Q 3344 2578 2956 2516 
Q 3422 2416 3680 2098 
Q 3938 1781 3938 1306 
Q 3938 681 3513 340 
Q 3088 0 2303 0 
L 628 0 
L 628 4666 
z
" transform="scale(0.015625)"/>
       <path id="DejaVuSans-6c" d="M 603 4863 
L 1178 4863 
L 1178 0 
L 603 0 
L 603 4863 
z
" transform="scale(0.015625)"/>
       <path id="DejaVuSans-6f" d="M 1959 3097 
Q 1497 3097 1228 2736 
Q 959 2375 959 1747 
Q 959 1119 1226 758 
Q 1494 397 1959 397 
Q 2419 397 2687 759 
Q 2956 1122 2956 1747 
Q 2956 2369 2687 2733 
Q 2419 3097 1959 3097 
z
M 1959 3584 
Q 2709 3584 3137 3096 
Q 3566 2609 3566 1747 
Q 3566 888 3137 398 
Q 2709 -91 1959 -91 
Q 1206 -91 779 398 
Q 353 888 353 1747 
Q 353 2609 779 3096 
Q 1206 3584 1959 3584 
z
" transform="scale(0.015625)"/>
       <path id="DejaVuSans-64" d="M 2906 2969 
L 2906 4863 
L 3481 4863 
L 3481 0 
L 2906 0 
L 2906 525 
Q 2725 213 2448 61 
Q 2172 -91 1784 -91 
Q 1150 -91 751 415 
Q 353 922 353 1747 
Q 353 2572 751 3078 
Q 1150 3584 1784 3584 
Q 2172 3584 2448 3432 
Q 2725 3281 2906 2969 
z
M 947 1747 
Q 947 1113 1208 752 
Q 1469 391 1925 391 
Q 2381 391 2643 752 
Q 2906 1113 2906 1747 
Q 2906 2381 2643 2742 
Q 2381 3103 1925 3103 
Q 1469 3103 1208 2742 
Q 947 2381 947 1747 
z
" transform="scale(0.015625)"/>
       <path id="DejaVuSans-2c" d="M 750 794 
L 1409 794 
L 1409 256 
L 897 -744 
L 494 -744 
L 750 256 
L 750 794 
z
" transform="scale(0.015625)"/>
       <path id="DejaVuSans-54" d="M -19 4666 
L 3928 4666 
L 3928 4134 
L 2272 4134 
L 2272 0 
L 1638 0 
L 1638 4134 
L -19 4134 
L -19 4666 
z
" transform="scale(0.015625)"/>
       <path id="DejaVuSans-3d" d="M 678 2906 
L 4684 2906 
L 4684 2381 
L 678 2381 
L 678 2906 
z
M 678 1631 
L 4684 1631 
L 4684 1100 
L 678 1100 
L 678 1631 
z
" transform="scale(0.015625)"/>
       <path id="DejaVuSans-4b" d="M 628 4666 
L 1259 4666 
L 1259 2694 
L 3353 4666 
L 4166 4666 
L 1850 2491 
L 4331 0 
L 3500 0 
L 1259 2247 
L 1259 0 
L 628 0 
L 628 4666 
z
" transform="scale(0.015625)"/>
      </defs>
      <use xlink:href="#DejaVuSans-42"/>
      <use xlink:href="#DejaVuSans-6c" transform="translate(68.603516 0)"/>
      <use xlink:href="#DejaVuSans-61" transform="translate(96.386719 0)"/>
      <use xlink:href="#DejaVuSans-63" transform="translate(157.666016 0)"/>
      <use xlink:href="#DejaVuSans-6b" transform="translate(212.646484 0)"/>
      <use xlink:href="#DejaVuSans-62" transform="translate(270.556641 0)"/>
      <use xlink:href="#DejaVuSans-6f" transform="translate(334.033203 0)"/>
      <use xlink:href="#DejaVuSans-64" transform="translate(395.214844 0)"/>
      <use xlink:href="#DejaVuSans-79" transform="translate(458.691406 0)"/>
      <use xlink:href="#DejaVuSans-2c" transform="translate(517.871094 0)"/>
      <use xlink:href="#DejaVuSans-20" transform="translate(549.658203 0)"/>
      <use xlink:href="#DejaVuSans-54" transform="translate(581.445312 0)"/>
      <use xlink:href="#DejaVuSans-20" transform="translate(642.529297 0)"/>
      <use xlink:href="#DejaVuSans-3d" transform="translate(674.316406 0)"/>
      <use xlink:href="#DejaVuSans-20" transform="translate(758.105469 0)"/>
      <use xlink:href="#DejaVuSans-32" transform="translate(789.892578 0)"/>
      <use xlink:href="#DejaVuSans-2e" transform="translate(853.515625 0)"/>
      <use xlink:href="#DejaVuSans-37" transform="translate(885.302734 0)"/>
      <use xlink:href="#DejaVuSans-32" transform="translate(948.925781 0)"/>
      <use xlink:href="#DejaVuSans-35" transform="translate(1012.548828 0)"/>
      <use xlink:href="#DejaVuSans-20" transform="translate(1076.171875 0)"/>
      <use xlink:href="#DejaVuSans-4b" transform="translate(1107.958984 0)"/>
     </g>
    </g>
    <g id="LineCollection_2">
     <path d="M 350.747219 74.884531 
L 350.747219 63.884531 
" style="fill: none; stroke: #c43f6b; stroke-width: 1.1"/>
    </g>
    <g id="line2d_36">
     <g>
      <use xlink:href="#m00240ab9e6" x="350.747219" y="74.884531" style="fill: #c43f6b; stroke: #c43f6b"/>
     </g>
    </g>
    <g id="line2d_37">
     <g>
      <use xlink:href="#m00240ab9e6" x="350.747219" y="63.884531" style="fill: #c43f6b; stroke: #c43f6b"/>
     </g>
    </g>
    <g id="line2d_38"/>
    <g id="line2d_39">
     <g>
      <use xlink:href="#mb30ec773b5" x="350.747219" y="69.384531" style="fill: #c43f6b; stroke: #c43f6b"/>
     </g>
    </g>
    <g id="text_25">
     <!-- COBE/FIRAS (error ×400) -->
     <g transform="translate(370.547219 73.234531) scale(0.11 -0.11)">
      <defs>
       <path id="DejaVuSans-43" d="M 4122 4306 
L 4122 3641 
Q 3803 3938 3442 4084 
Q 3081 4231 2675 4231 
Q 1875 4231 1450 3742 
Q 1025 3253 1025 2328 
Q 1025 1406 1450 917 
Q 1875 428 2675 428 
Q 3081 428 3442 575 
Q 3803 722 4122 1019 
L 4122 359 
Q 3791 134 3420 21 
Q 3050 -91 2638 -91 
Q 1578 -91 968 557 
Q 359 1206 359 2328 
Q 359 3453 968 4101 
Q 1578 4750 2638 4750 
Q 3056 4750 3426 4639 
Q 3797 4528 4122 4306 
z
" transform="scale(0.015625)"/>
       <path id="DejaVuSans-4f" d="M 2522 4238 
Q 1834 4238 1429 3725 
Q 1025 3213 1025 2328 
Q 1025 1447 1429 934 
Q 1834 422 2522 422 
Q 3209 422 3611 934 
Q 4013 1447 4013 2328 
Q 4013 3213 3611 3725 
Q 3209 4238 2522 4238 
z
M 2522 4750 
Q 3503 4750 4090 4092 
Q 4678 3434 4678 2328 
Q 4678 1225 4090 567 
Q 3503 -91 2522 -91 
Q 1538 -91 948 565 
Q 359 1222 359 2328 
Q 359 3434 948 4092 
Q 1538 4750 2522 4750 
z
" transform="scale(0.015625)"/>
       <path id="DejaVuSans-45" d="M 628 4666 
L 3578 4666 
L 3578 4134 
L 1259 4134 
L 1259 2753 
L 3481 2753 
L 3481 2222 
L 1259 2222 
L 1259 531 
L 3634 531 
L 3634 0 
L 628 0 
L 628 4666 
z
" transform="scale(0.015625)"/>
       <path id="DejaVuSans-2f" d="M 1625 4666 
L 2156 4666 
L 531 -594 
L 0 -594 
L 1625 4666 
z
" transform="scale(0.015625)"/>
       <path id="DejaVuSans-52" d="M 2841 2188 
Q 3044 2119 3236 1894 
Q 3428 1669 3622 1275 
L 4263 0 
L 3584 0 
L 2988 1197 
Q 2756 1666 2539 1819 
Q 2322 1972 1947 1972 
L 1259 1972 
L 1259 0 
L 628 0 
L 628 4666 
L 2053 4666 
Q 2853 4666 3247 4331 
Q 3641 3997 3641 3322 
Q 3641 2881 3436 2590 
Q 3231 2300 2841 2188 
z
M 1259 4147 
L 1259 2491 
L 2053 2491 
Q 2509 2491 2742 2702 
Q 2975 2913 2975 3322 
Q 2975 3731 2742 3939 
Q 2509 4147 2053 4147 
L 1259 4147 
z
" transform="scale(0.015625)"/>
       <path id="DejaVuSans-41" d="M 2188 4044 
L 1331 1722 
L 3047 1722 
L 2188 4044 
z
M 1831 4666 
L 2547 4666 
L 4325 0 
L 3669 0 
L 3244 1197 
L 1141 1197 
L 716 0 
L 50 0 
L 1831 4666 
z
" transform="scale(0.015625)"/>
       <path id="DejaVuSans-53" d="M 3425 4513 
L 3425 3897 
Q 3066 4069 2747 4153 
Q 2428 4238 2131 4238 
Q 1616 4238 1336 4038 
Q 1056 3838 1056 3469 
Q 1056 3159 1242 3001 
Q 1428 2844 1947 2747 
L 2328 2669 
Q 3034 2534 3370 2195 
Q 3706 1856 3706 1288 
Q 3706 609 3251 259 
Q 2797 -91 1919 -91 
Q 1588 -91 1214 -16 
Q 841 59 441 206 
L 441 856 
Q 825 641 1194 531 
Q 1563 422 1919 422 
Q 2459 422 2753 634 
Q 3047 847 3047 1241 
Q 3047 1584 2836 1778 
Q 2625 1972 2144 2069 
L 1759 2144 
Q 1053 2284 737 2584 
Q 422 2884 422 3419 
Q 422 4038 858 4394 
Q 1294 4750 2059 4750 
Q 2388 4750 2728 4690 
Q 3069 4631 3425 4513 
z
" transform="scale(0.015625)"/>
       <path id="DejaVuSans-d7" d="M 4488 3438 
L 3059 2003 
L 4488 575 
L 4116 197 
L 2681 1631 
L 1247 197 
L 878 575 
L 2303 2003 
L 878 3438 
L 1247 3816 
L 2681 2381 
L 4116 3816 
L 4488 3438 
z
" transform="scale(0.015625)"/>
      </defs>
      <use xlink:href="#DejaVuSans-43"/>
      <use xlink:href="#DejaVuSans-4f" transform="translate(69.824219 0)"/>
      <use xlink:href="#DejaVuSans-42" transform="translate(148.535156 0)"/>
      <use xlink:href="#DejaVuSans-45" transform="translate(217.138672 0)"/>
      <use xlink:href="#DejaVuSans-2f" transform="translate(280.322266 0)"/>
      <use xlink:href="#DejaVuSans-46" transform="translate(314.013672 0)"/>
      <use xlink:href="#DejaVuSans-49" transform="translate(371.533203 0)"/>
      <use xlink:href="#DejaVuSans-52" transform="translate(401.025391 0)"/>
      <use xlink:href="#DejaVuSans-41" transform="translate(466.507812 0)"/>
      <use xlink:href="#DejaVuSans-53" transform="translate(534.916016 0)"/>
      <use xlink:href="#DejaVuSans-20" transform="translate(598.392578 0)"/>
      <use xlink:href="#DejaVuSans-28" transform="translate(630.179688 0)"/>
      <use xlink:href="#DejaVuSans-65" transform="translate(669.193359 0)"/>
      <use xlink:href="#DejaVuSans-72" transform="translate(730.716797 0)"/>
      <use xlink:href="#DejaVuSans-72" transform="translate(770.080078 0)"/>
      <use xlink:href="#DejaVuSans-6f" transform="translate(808.943359 0)"/>
      <use xlink:href="#DejaVuSans-72" transform="translate(870.125 0)"/>
      <use xlink:href="#DejaVuSans-20" transform="translate(911.238281 0)"/>
      <use xlink:href="#DejaVuSans-d7" transform="translate(943.025391 0)"/>
      <use xlink:href="#DejaVuSans-34" transform="translate(1026.814453 0)"/>
      <use xlink:href="#DejaVuSans-30" transform="translate(1090.4375 0)"/>
      <use xlink:href="#DejaVuSans-30" transform="translate(1154.060547 0)"/>
      <use xlink:href="#DejaVuSans-29" transform="translate(1217.683594 0)"/>
     </g>
    </g>
   </g>
  </g>
  <g id="text_26">
   <!-- Data: COBE/FIRAS monopole, Fixsen et al. 1996 (public domain, NASA) -->
   <g style="fill: #666666" transform="translate(7.2 351.310313) scale(0.075 -0.075)">
    <defs>
     <path id="DejaVuSans-44" d="M 1259 4147 
L 1259 519 
L 2022 519 
Q 2988 519 3436 956 
Q 3884 1394 3884 2338 
Q 3884 3275 3436 3711 
Q 2988 4147 2022 4147 
L 1259 4147 
z
M 628 4666 
L 1925 4666 
Q 3281 4666 3915 4102 
Q 4550 3538 4550 2338 
Q 4550 1131 3912 565 
Q 3275 0 1925 0 
L 628 0 
L 628 4666 
z
" transform="scale(0.015625)"/>
     <path id="DejaVuSans-3a" d="M 750 794 
L 1409 794 
L 1409 0 
L 750 0 
L 750 794 
z
M 750 3309 
L 1409 3309 
L 1409 2516 
L 750 2516 
L 750 3309 
z
" transform="scale(0.015625)"/>
     <path id="DejaVuSans-78" d="M 3513 3500 
L 2247 1797 
L 3578 0 
L 2900 0 
L 1881 1375 
L 863 0 
L 184 0 
L 1544 1831 
L 300 3500 
L 978 3500 
L 1906 2253 
L 2834 3500 
L 3513 3500 
z
" transform="scale(0.015625)"/>
     <path id="DejaVuSans-39" d="M 703 97 
L 703 672 
Q 941 559 1184 500 
Q 1428 441 1663 441 
Q 2288 441 2617 861 
Q 2947 1281 2994 2138 
Q 2813 1869 2534 1725 
Q 2256 1581 1919 1581 
Q 1219 1581 811 2004 
Q 403 2428 403 3163 
Q 403 3881 828 4315 
Q 1253 4750 1959 4750 
Q 2769 4750 3195 4129 
Q 3622 3509 3622 2328 
Q 3622 1225 3098 567 
Q 2575 -91 1691 -91 
Q 1453 -91 1209 -44 
Q 966 3 703 97 
z
M 1959 2075 
Q 2384 2075 2632 2365 
Q 2881 2656 2881 3163 
Q 2881 3666 2632 3958 
Q 2384 4250 1959 4250 
Q 1534 4250 1286 3958 
Q 1038 3666 1038 3163 
Q 1038 2656 1286 2365 
Q 1534 2075 1959 2075 
z
" transform="scale(0.015625)"/>
     <path id="DejaVuSans-4e" d="M 628 4666 
L 1478 4666 
L 3547 763 
L 3547 4666 
L 4159 4666 
L 4159 0 
L 3309 0 
L 1241 3903 
L 1241 0 
L 628 0 
L 628 4666 
z
" transform="scale(0.015625)"/>
    </defs>
    <use xlink:href="#DejaVuSans-44"/>
    <use xlink:href="#DejaVuSans-61" transform="translate(77.001953 0)"/>
    <use xlink:href="#DejaVuSans-74" transform="translate(138.28125 0)"/>
    <use xlink:href="#DejaVuSans-61" transform="translate(177.490234 0)"/>
    <use xlink:href="#DejaVuSans-3a" transform="translate(238.769531 0)"/>
    <use xlink:href="#DejaVuSans-20" transform="translate(272.460938 0)"/>
    <use xlink:href="#DejaVuSans-43" transform="translate(304.248047 0)"/>
    <use xlink:href="#DejaVuSans-4f" transform="translate(374.072266 0)"/>
    <use xlink:href="#DejaVuSans-42" transform="translate(452.783203 0)"/>
    <use xlink:href="#DejaVuSans-45" transform="translate(521.386719 0)"/>
    <use xlink:href="#DejaVuSans-2f" transform="translate(584.570312 0)"/>
    <use xlink:href="#DejaVuSans-46" transform="translate(618.261719 0)"/>
    <use xlink:href="#DejaVuSans-49" transform="translate(675.78125 0)"/>
    <use xlink:href="#DejaVuSans-52" transform="translate(705.273438 0)"/>
    <use xlink:href="#DejaVuSans-41" transform="translate(770.755859 0)"/>
    <use xlink:href="#DejaVuSans-53" transform="translate(839.164062 0)"/>
    <use xlink:href="#DejaVuSans-20" transform="translate(902.640625 0)"/>
    <use xlink:href="#DejaVuSans-6d" transform="translate(934.427734 0)"/>
    <use xlink:href="#DejaVuSans-6f" transform="translate(1031.839844 0)"/>
    <use xlink:href="#DejaVuSans-6e" transform="translate(1093.021484 0)"/>
    <use xlink:href="#DejaVuSans-6f" transform="translate(1156.400391 0)"/>
    <use xlink:href="#DejaVuSans-70" transform="translate(1217.582031 0)"/>
    <use xlink:href="#DejaVuSans-6f" transform="translate(1281.058594 0)"/>
    <use xlink:href="#DejaVuSans-6c" transform="translate(1342.240234 0)"/>
    <use xlink:href="#DejaVuSans-65" transform="translate(1370.023438 0)"/>
    <use xlink:href="#DejaVuSans-2c" transform="translate(1431.546875 0)"/>
    <use xlink:href="#DejaVuSans-20" transform="translate(1463.333984 0)"/>
    <use xlink:href="#DejaVuSans-46" transform="translate(1495.121094 0)"/>
    <use xlink:href="#DejaVuSans-69" transform="translate(1545.390625 0)"/>
    <use xlink:href="#DejaVuSans-78" transform="translate(1573.173828 0)"/>
    <use xlink:href="#DejaVuSans-73" transform="translate(1632.353516 0)"/>
    <use xlink:href="#DejaVuSans-65" transform="translate(1684.453125 0)"/>
    <use xlink:href="#DejaVuSans-6e" transform="translate(1745.976562 0)"/>
    <use xlink:href="#DejaVuSans-20" transform="translate(1809.355469 0)"/>
    <use xlink:href="#DejaVuSans-65" transform="translate(1841.142578 0)"/>
    <use xlink:href="#DejaVuSans-74" transform="translate(1902.666016 0)"/>
    <use xlink:href="#DejaVuSans-20" transform="translate(1941.875 0)"/>
    <use xlink:href="#DejaVuSans-61" transform="translate(1973.662109 0)"/>
    <use xlink:href="#DejaVuSans-6c" transform="translate(2034.941406 0)"/>
    <use xlink:href="#DejaVuSans-2e" transform="translate(2062.724609 0)"/>
    <use xlink:href="#DejaVuSans-20" transform="translate(2094.511719 0)"/>
    <use xlink:href="#DejaVuSans-31" transform="translate(2126.298828 0)"/>
    <use xlink:href="#DejaVuSans-39" transform="translate(2189.921875 0)"/>
    <use xlink:href="#DejaVuSans-39" transform="translate(2253.544922 0)"/>
    <use xlink:href="#DejaVuSans-36" transform="translate(2317.167969 0)"/>
    <use xlink:href="#DejaVuSans-20" transform="translate(2380.791016 0)"/>
    <use xlink:href="#DejaVuSans-28" transform="translate(2412.578125 0)"/>
    <use xlink:href="#DejaVuSans-70" transform="translate(2451.591797 0)"/>
    <use xlink:href="#DejaVuSans-75" transform="translate(2515.068359 0)"/>
    <use xlink:href="#DejaVuSans-62" transform="translate(2578.447266 0)"/>
    <use xlink:href="#DejaVuSans-6c" transform="translate(2641.923828 0)"/>
    <use xlink:href="#DejaVuSans-69" transform="translate(2669.707031 0)"/>
    <use xlink:href="#DejaVuSans-63" transform="translate(2697.490234 0)"/>
    <use xlink:href="#DejaVuSans-20" transform="translate(2752.470703 0)"/>
    <use xlink:href="#DejaVuSans-64" transform="translate(2784.257812 0)"/>
    <use xlink:href="#DejaVuSans-6f" transform="translate(2847.734375 0)"/>
    <use xlink:href="#DejaVuSans-6d" transform="translate(2908.916016 0)"/>
    <use xlink:href="#DejaVuSans-61" transform="translate(3006.328125 0)"/>
    <use xlink:href="#DejaVuSans-69" transform="translate(3067.607422 0)"/>
    <use xlink:href="#DejaVuSans-6e" transform="translate(3095.390625 0)"/>
    <use xlink:href="#DejaVuSans-2c" transform="translate(3158.769531 0)"/>
    <use xlink:href="#DejaVuSans-20" transform="translate(3190.556641 0)"/>
    <use xlink:href="#DejaVuSans-4e" transform="translate(3222.34375 0)"/>
    <use xlink:href="#DejaVuSans-41" transform="translate(3297.148438 0)"/>
    <use xlink:href="#DejaVuSans-53" transform="translate(3365.556641 0)"/>
    <use xlink:href="#DejaVuSans-41" transform="translate(3430.908203 0)"/>
    <use xlink:href="#DejaVuSans-29" transform="translate(3499.316406 0)"/>
   </g>
  </g>
 </g>
 <defs>
  <clipPath id="p1fe5367986">
   <rect x="72.288" y="38.830313" width="446.4" height="277.2"/>
  </clipPath>
 </defs>
</svg>
