<?xml version="1.0" encoding="UTF-8"?>
<svg xmlns="http://www.w3.org/2000/svg" viewBox="0 0 900 560" width="900" height="560" font-family="-apple-system, BlinkMacSystemFont, 'Segoe UI', 'Hiragino Sans', 'Noto Sans JP', sans-serif">
<rect width="900" height="560" fill="#fafbfc"/>
<defs><marker id="oc-ar" viewBox="0 0 10 10" refX="9" refY="5" markerWidth="7.5" markerHeight="7.5" orient="auto-start-reverse"><path d="M 0 0 L 10 5 L 0 10 z" fill="#0a1929"/></marker>
</defs>
<line x1="95" y1="475.0" x2="790" y2="475.0" stroke="#e3e9f0" stroke-width="1"/>
<text x="83" y="480.0" font-size="18" fill="#5a6a7a" text-anchor="end">10<tspan font-size="14" dy="-6">-2</tspan></text>
<line x1="95" y1="343.33333333333337" x2="790" y2="343.33333333333337" stroke="#e3e9f0" stroke-width="1"/>
<text x="83" y="348.33333333333337" font-size="18" fill="#5a6a7a" text-anchor="end">10<tspan font-size="14" dy="-6">-1</tspan></text>
<line x1="95" y1="211.66666666666669" x2="790" y2="211.66666666666669" stroke="#e3e9f0" stroke-width="1"/>
<text x="83" y="216.66666666666669" font-size="18" fill="#5a6a7a" text-anchor="end">1</text>
<line x1="95" y1="80.0" x2="790" y2="80.0" stroke="#e3e9f0" stroke-width="1"/>
<text x="83" y="85.0" font-size="18" fill="#5a6a7a" text-anchor="end">10<tspan font-size="14" dy="-6">1</tspan></text>
<line x1="95" y1="211.66666666666669" x2="790" y2="211.66666666666669" stroke="#8a99a8" stroke-width="1.2" stroke-dasharray="4,4"/>
<rect x="440.9" y="80" width="349.1" height="395" fill="#5a6a7a" fill-opacity="0.06"/>
<text x="615.4566210045662" y="106" font-size="20" fill="#5a6a7a" text-anchor="middle" font-weight="700">古典極限　n̄ ≪ 1</text>
<text x="615.4566210045662" y="126" font-size="17" fill="#5a6a7a" text-anchor="middle">三者が一致 → e^(−x)</text>
<path d="M 95.0 93.9 L 96.7 99.2 L 98.5 104.1 L 100.2 108.7 L 102.0 113.0 L 103.7 117.0 L 105.4 120.8 L 107.2 124.4 L 108.9 127.8 L 110.6 131.1 L 112.4 134.2 L 114.1 137.2 L 115.9 140.1 L 117.6 142.8 L 119.3 145.5 L 121.1 148.1 L 122.8 150.5 L 124.5 153.0 L 126.3 155.3 L 128.0 157.6 L 129.8 159.8 L 131.5 161.9 L 133.2 164.0 L 135.0 166.1 L 136.7 168.1 L 138.4 170.0 L 140.2 171.9 L 141.9 173.8 L 143.6 175.6 L 145.4 177.4 L 147.1 179.1 L 148.9 180.8 L 150.6 182.5 L 152.3 184.2 L 154.1 185.8 L 155.8 187.4 L 157.6 189.0 L 159.3 190.5 L 161.0 192.0 L 162.8 193.5 L 164.5 195.0 L 166.2 196.5 L 168.0 197.9 L 169.7 199.3 L 171.4 200.7 L 173.2 202.1 L 174.9 203.4 L 176.7 204.8 L 178.4 206.1 L 180.1 207.4 L 181.9 208.7 L 183.6 210.0 L 185.4 211.2 L 187.1 212.5 L 188.8 213.7 L 190.6 214.9 L 192.3 216.2 L 194.0 217.4 L 195.8 218.5 L 197.5 219.7 L 199.2 220.9 L 201.0 222.0 L 202.7 223.2 L 204.5 224.3 L 206.2 225.4 L 207.9 226.6 L 209.7 227.7 L 211.4 228.8 L 213.1 229.8 L 214.9 230.9 L 216.6 232.0 L 218.4 233.0 L 220.1 234.1 L 221.8 235.1 L 223.6 236.2 L 225.3 237.2 L 227.1 238.2 L 228.8 239.3 L 230.5 240.3 L 232.3 241.3 L 234.0 242.3 L 235.7 243.2 L 237.5 244.2 L 239.2 245.2 L 241.0 246.2 L 242.7 247.1 L 244.4 248.1 L 246.2 249.1 L 247.9 250.0 L 249.6 251.0 L 251.4 251.9 L 253.1 252.8 L 254.8 253.8 L 256.6 254.7 L 258.3 255.6 L 260.1 256.5 L 261.8 257.4 L 263.5 258.3 L 265.3 259.2 L 267.0 260.1 L 268.8 261.0 L 270.5 261.9 L 272.2 262.8 L 274.0 263.7 L 275.7 264.5 L 277.4 265.4 L 279.2 266.3 L 280.9 267.2 L 282.6 268.0 L 284.4 268.9 L 286.1 269.7 L 287.9 270.6 L 289.6 271.4 L 291.3 272.3 L 293.1 273.1 L 294.8 273.9 L 296.5 274.8 L 298.3 275.6 L 300.0 276.4 L 301.8 277.3 L 303.5 278.1 L 305.2 278.9 L 307.0 279.7 L 308.7 280.6 L 310.5 281.4 L 312.2 282.2 L 313.9 283.0 L 315.7 283.8 L 317.4 284.6 L 319.1 285.4 L 320.9 286.2 L 322.6 287.0 L 324.3 287.8 L 326.1 288.6 L 327.8 289.4 L 329.6 290.1 L 331.3 290.9 L 333.0 291.7 L 334.8 292.5 L 336.5 293.3 L 338.2 294.0 L 340.0 294.8 L 341.7 295.6 L 343.5 296.3 L 345.2 297.1 L 346.9 297.9 L 348.7 298.6 L 350.4 299.4 L 352.1 300.2 L 353.9 300.9 L 355.6 301.7 L 357.4 302.4 L 359.1 303.2 L 360.8 303.9 L 362.6 304.7 L 364.3 305.4 L 366.0 306.2 L 367.8 306.9 L 369.5 307.7 L 371.3 308.4 L 373.0 309.2 L 374.7 309.9 L 376.5 310.6 L 378.2 311.4 L 379.9 312.1 L 381.7 312.8 L 383.4 313.6 L 385.2 314.3 L 386.9 315.0 L 388.6 315.8 L 390.4 316.5 L 392.1 317.2 L 393.9 317.9 L 395.6 318.7 L 397.3 319.4 L 399.1 320.1 L 400.8 320.8 L 402.5 321.5 L 404.3 322.3 L 406.0 323.0 L 407.7 323.7 L 409.5 324.4 L 411.2 325.1 L 413.0 325.8 L 414.7 326.5 L 416.4 327.3 L 418.2 328.0 L 419.9 328.7 L 421.6 329.4 L 423.4 330.1 L 425.1 330.8 L 426.9 331.5 L 428.6 332.2 L 430.3 332.9 L 432.1 333.6 L 433.8 334.3 L 435.6 335.0 L 437.3 335.7 L 439.0 336.4 L 440.8 337.1 L 442.5 337.8 L 444.2 338.5 L 446.0 339.2 L 447.7 339.9 L 449.4 340.6 L 451.2 341.2 L 452.9 341.9 L 454.7 342.6 L 456.4 343.3 L 458.1 344.0 L 459.9 344.7 L 461.6 345.4 L 463.3 346.1 L 465.1 346.7 L 466.8 347.4 L 468.6 348.1 L 470.3 348.8 L 472.0 349.5 L 473.8 350.2 L 475.5 350.8 L 477.3 351.5 L 479.0 352.2 L 480.7 352.9 L 482.5 353.6 L 484.2 354.2 L 485.9 354.9 L 487.7 355.6 L 489.4 356.3 L 491.1 357.0 L 492.9 357.6 L 494.6 358.3 L 496.4 359.0 L 498.1 359.6 L 499.8 360.3 L 501.6 361.0 L 503.3 361.7 L 505.1 362.3 L 506.8 363.0 L 508.5 363.7 L 510.3 364.3 L 512.0 365.0 L 513.7 365.7 L 515.5 366.4 L 517.2 367.0 L 519.0 367.7 L 520.7 368.4 L 522.4 369.0 L 524.2 369.7 L 525.9 370.4 L 527.6 371.0 L 529.4 371.7 L 531.1 372.3 L 532.9 373.0 L 534.6 373.7 L 536.3 374.3 L 538.1 375.0 L 539.8 375.7 L 541.5 376.3 L 543.3 377.0 L 545.0 377.6 L 546.8 378.3 L 548.5 379.0 L 550.2 379.6 L 552.0 380.3 L 553.7 380.9 L 555.4 381.6 L 557.2 382.3 L 558.9 382.9 L 560.6 383.6 L 562.4 384.2 L 564.1 384.9 L 565.9 385.5 L 567.6 386.2 L 569.3 386.9 L 571.1 387.5 L 572.8 388.2 L 574.5 388.8 L 576.3 389.5 L 578.0 390.1 L 579.8 390.8 L 581.5 391.4 L 583.2 392.1 L 585.0 392.7 L 586.7 393.4 L 588.5 394.0 L 590.2 394.7 L 591.9 395.3 L 593.7 396.0 L 595.4 396.7 L 597.1 397.3 L 598.9 398.0 L 600.6 398.6 L 602.3 399.3 L 604.1 399.9 L 605.8 400.6 L 607.6 401.2 L 609.3 401.8 L 611.0 402.5 L 612.8 403.1 L 614.5 403.8 L 616.2 404.4 L 618.0 405.1 L 619.7 405.7 L 621.5 406.4 L 623.2 407.0 L 624.9 407.7 L 626.7 408.3 L 628.4 409.0 L 630.1 409.6 L 631.9 410.3 L 633.6 410.9 L 635.4 411.6 L 637.1 412.2 L 638.8 412.8 L 640.6 413.5 L 642.3 414.1 L 644.1 414.8 L 645.8 415.4 L 647.5 416.1 L 649.3 416.7 L 651.0 417.3 L 652.7 418.0 L 654.5 418.6 L 656.2 419.3 L 657.9 419.9 L 659.7 420.6 L 661.4 421.2 L 663.2 421.8 L 664.9 422.5 L 666.6 423.1 L 668.4 423.8 L 670.1 424.4 L 671.9 425.1 L 673.6 425.7 L 675.3 426.3 L 677.1 427.0 L 678.8 427.6 L 680.5 428.3 L 682.3 428.9 L 684.0 429.5 L 685.8 430.2 L 687.5 430.8 L 689.2 431.5 L 691.0 432.1 L 692.7 432.7 L 694.4 433.4 L 696.2 434.0 L 697.9 434.7 L 699.6 435.3 L 701.4 435.9 L 703.1 436.6 L 704.9 437.2 L 706.6 437.8 L 708.3 438.5 L 710.1 439.1 L 711.8 439.8 L 713.5 440.4 L 715.3 441.0 L 717.0 441.7 L 718.8 442.3 L 720.5 442.9 L 722.2 443.6 L 724.0 444.2 L 725.7 444.9 L 727.4 445.5 L 729.2 446.1 L 730.9 446.8 L 732.7 447.4 L 734.4 448.0 L 736.1 448.7 L 737.9 449.3 L 739.6 449.9 L 741.3 450.6 L 743.1 451.2 L 744.8 451.9 L 746.6 452.5 L 748.3 453.1 L 750.0 453.8 L 751.8 454.4 L 753.5 455.0 L 755.2 455.7 L 757.0 456.3 L 758.7 456.9 L 760.5 457.6 L 762.2 458.2 L 763.9 458.8 L 765.7 459.5 L 767.4 460.1 L 769.1 460.7 L 770.9 461.4 L 772.6 462.0 L 774.4 462.6 L 776.1 463.3 L 777.8 463.9 L 779.6 464.5 L 781.3 465.2 L 783.0 465.8 L 784.8 466.4 L 786.5 467.1 L 788.3 467.7 L 790.0 468.3" fill="none" stroke="#1f4e79" stroke-width="3.2" opacity="1"/>
<path d="M 95.0 218.5 L 96.7 219.2 L 98.5 219.8 L 100.2 220.4 L 102.0 221.0 L 103.7 221.7 L 105.4 222.3 L 107.2 222.9 L 108.9 223.5 L 110.6 224.2 L 112.4 224.8 L 114.1 225.4 L 115.9 226.0 L 117.6 226.7 L 119.3 227.3 L 121.1 227.9 L 122.8 228.5 L 124.5 229.2 L 126.3 229.8 L 128.0 230.4 L 129.8 231.1 L 131.5 231.7 L 133.2 232.3 L 135.0 232.9 L 136.7 233.6 L 138.4 234.2 L 140.2 234.8 L 141.9 235.4 L 143.6 236.1 L 145.4 236.7 L 147.1 237.3 L 148.9 237.9 L 150.6 238.6 L 152.3 239.2 L 154.1 239.8 L 155.8 240.4 L 157.6 241.1 L 159.3 241.7 L 161.0 242.3 L 162.8 242.9 L 164.5 243.6 L 166.2 244.2 L 168.0 244.8 L 169.7 245.5 L 171.4 246.1 L 173.2 246.7 L 174.9 247.3 L 176.7 248.0 L 178.4 248.6 L 180.1 249.2 L 181.9 249.8 L 183.6 250.5 L 185.4 251.1 L 187.1 251.7 L 188.8 252.3 L 190.6 253.0 L 192.3 253.6 L 194.0 254.2 L 195.8 254.8 L 197.5 255.5 L 199.2 256.1 L 201.0 256.7 L 202.7 257.3 L 204.5 258.0 L 206.2 258.6 L 207.9 259.2 L 209.7 259.9 L 211.4 260.5 L 213.1 261.1 L 214.9 261.7 L 216.6 262.4 L 218.4 263.0 L 220.1 263.6 L 221.8 264.2 L 223.6 264.9 L 225.3 265.5 L 227.1 266.1 L 228.8 266.7 L 230.5 267.4 L 232.3 268.0 L 234.0 268.6 L 235.7 269.2 L 237.5 269.9 L 239.2 270.5 L 241.0 271.1 L 242.7 271.8 L 244.4 272.4 L 246.2 273.0 L 247.9 273.6 L 249.6 274.3 L 251.4 274.9 L 253.1 275.5 L 254.8 276.1 L 256.6 276.8 L 258.3 277.4 L 260.1 278.0 L 261.8 278.6 L 263.5 279.3 L 265.3 279.9 L 267.0 280.5 L 268.8 281.1 L 270.5 281.8 L 272.2 282.4 L 274.0 283.0 L 275.7 283.6 L 277.4 284.3 L 279.2 284.9 L 280.9 285.5 L 282.6 286.2 L 284.4 286.8 L 286.1 287.4 L 287.9 288.0 L 289.6 288.7 L 291.3 289.3 L 293.1 289.9 L 294.8 290.5 L 296.5 291.2 L 298.3 291.8 L 300.0 292.4 L 301.8 293.0 L 303.5 293.7 L 305.2 294.3 L 307.0 294.9 L 308.7 295.5 L 310.5 296.2 L 312.2 296.8 L 313.9 297.4 L 315.7 298.0 L 317.4 298.7 L 319.1 299.3 L 320.9 299.9 L 322.6 300.6 L 324.3 301.2 L 326.1 301.8 L 327.8 302.4 L 329.6 303.1 L 331.3 303.7 L 333.0 304.3 L 334.8 304.9 L 336.5 305.6 L 338.2 306.2 L 340.0 306.8 L 341.7 307.4 L 343.5 308.1 L 345.2 308.7 L 346.9 309.3 L 348.7 309.9 L 350.4 310.6 L 352.1 311.2 L 353.9 311.8 L 355.6 312.5 L 357.4 313.1 L 359.1 313.7 L 360.8 314.3 L 362.6 315.0 L 364.3 315.6 L 366.0 316.2 L 367.8 316.8 L 369.5 317.5 L 371.3 318.1 L 373.0 318.7 L 374.7 319.3 L 376.5 320.0 L 378.2 320.6 L 379.9 321.2 L 381.7 321.8 L 383.4 322.5 L 385.2 323.1 L 386.9 323.7 L 388.6 324.3 L 390.4 325.0 L 392.1 325.6 L 393.9 326.2 L 395.6 326.9 L 397.3 327.5 L 399.1 328.1 L 400.8 328.7 L 402.5 329.4 L 404.3 330.0 L 406.0 330.6 L 407.7 331.2 L 409.5 331.9 L 411.2 332.5 L 413.0 333.1 L 414.7 333.7 L 416.4 334.4 L 418.2 335.0 L 419.9 335.6 L 421.6 336.2 L 423.4 336.9 L 425.1 337.5 L 426.9 338.1 L 428.6 338.7 L 430.3 339.4 L 432.1 340.0 L 433.8 340.6 L 435.6 341.3 L 437.3 341.9 L 439.0 342.5 L 440.8 343.1 L 442.5 343.8 L 444.2 344.4 L 446.0 345.0 L 447.7 345.6 L 449.4 346.3 L 451.2 346.9 L 452.9 347.5 L 454.7 348.1 L 456.4 348.8 L 458.1 349.4 L 459.9 350.0 L 461.6 350.6 L 463.3 351.3 L 465.1 351.9 L 466.8 352.5 L 468.6 353.1 L 470.3 353.8 L 472.0 354.4 L 473.8 355.0 L 475.5 355.7 L 477.3 356.3 L 479.0 356.9 L 480.7 357.5 L 482.5 358.2 L 484.2 358.8 L 485.9 359.4 L 487.7 360.0 L 489.4 360.7 L 491.1 361.3 L 492.9 361.9 L 494.6 362.5 L 496.4 363.2 L 498.1 363.8 L 499.8 364.4 L 501.6 365.0 L 503.3 365.7 L 505.1 366.3 L 506.8 366.9 L 508.5 367.6 L 510.3 368.2 L 512.0 368.8 L 513.7 369.4 L 515.5 370.1 L 517.2 370.7 L 519.0 371.3 L 520.7 371.9 L 522.4 372.6 L 524.2 373.2 L 525.9 373.8 L 527.6 374.4 L 529.4 375.1 L 531.1 375.7 L 532.9 376.3 L 534.6 376.9 L 536.3 377.6 L 538.1 378.2 L 539.8 378.8 L 541.5 379.4 L 543.3 380.1 L 545.0 380.7 L 546.8 381.3 L 548.5 382.0 L 550.2 382.6 L 552.0 383.2 L 553.7 383.8 L 555.4 384.5 L 557.2 385.1 L 558.9 385.7 L 560.6 386.3 L 562.4 387.0 L 564.1 387.6 L 565.9 388.2 L 567.6 388.8 L 569.3 389.5 L 571.1 390.1 L 572.8 390.7 L 574.5 391.3 L 576.3 392.0 L 578.0 392.6 L 579.8 393.2 L 581.5 393.8 L 583.2 394.5 L 585.0 395.1 L 586.7 395.7 L 588.5 396.4 L 590.2 397.0 L 591.9 397.6 L 593.7 398.2 L 595.4 398.9 L 597.1 399.5 L 598.9 400.1 L 600.6 400.7 L 602.3 401.4 L 604.1 402.0 L 605.8 402.6 L 607.6 403.2 L 609.3 403.9 L 611.0 404.5 L 612.8 405.1 L 614.5 405.7 L 616.2 406.4 L 618.0 407.0 L 619.7 407.6 L 621.5 408.3 L 623.2 408.9 L 624.9 409.5 L 626.7 410.1 L 628.4 410.8 L 630.1 411.4 L 631.9 412.0 L 633.6 412.6 L 635.4 413.3 L 637.1 413.9 L 638.8 414.5 L 640.6 415.1 L 642.3 415.8 L 644.1 416.4 L 645.8 417.0 L 647.5 417.6 L 649.3 418.3 L 651.0 418.9 L 652.7 419.5 L 654.5 420.1 L 656.2 420.8 L 657.9 421.4 L 659.7 422.0 L 661.4 422.7 L 663.2 423.3 L 664.9 423.9 L 666.6 424.5 L 668.4 425.2 L 670.1 425.8 L 671.9 426.4 L 673.6 427.0 L 675.3 427.7 L 677.1 428.3 L 678.8 428.9 L 680.5 429.5 L 682.3 430.2 L 684.0 430.8 L 685.8 431.4 L 687.5 432.0 L 689.2 432.7 L 691.0 433.3 L 692.7 433.9 L 694.4 434.5 L 696.2 435.2 L 697.9 435.8 L 699.6 436.4 L 701.4 437.1 L 703.1 437.7 L 704.9 438.3 L 706.6 438.9 L 708.3 439.6 L 710.1 440.2 L 711.8 440.8 L 713.5 441.4 L 715.3 442.1 L 717.0 442.7 L 718.8 443.3 L 720.5 443.9 L 722.2 444.6 L 724.0 445.2 L 725.7 445.8 L 727.4 446.4 L 729.2 447.1 L 730.9 447.7 L 732.7 448.3 L 734.4 448.9 L 736.1 449.6 L 737.9 450.2 L 739.6 450.8 L 741.3 451.5 L 743.1 452.1 L 744.8 452.7 L 746.6 453.3 L 748.3 454.0 L 750.0 454.6 L 751.8 455.2 L 753.5 455.8 L 755.2 456.5 L 757.0 457.1 L 758.7 457.7 L 760.5 458.3 L 762.2 459.0 L 763.9 459.6 L 765.7 460.2 L 767.4 460.8 L 769.1 461.5 L 770.9 462.1 L 772.6 462.7 L 774.4 463.4 L 776.1 464.0 L 777.8 464.6 L 779.6 465.2 L 781.3 465.9 L 783.0 466.5 L 784.8 467.1 L 786.5 467.7 L 788.3 468.4 L 790.0 469.0" fill="none" stroke="#0a1929" stroke-width="2.6" stroke-dasharray="7,4" opacity="1"/>
<path d="M 95.0 254.8 L 96.7 255.2 L 98.5 255.5 L 100.2 255.8 L 102.0 256.2 L 103.7 256.5 L 105.4 256.9 L 107.2 257.2 L 108.9 257.5 L 110.6 257.9 L 112.4 258.2 L 114.1 258.6 L 115.9 258.9 L 117.6 259.3 L 119.3 259.6 L 121.1 260.0 L 122.8 260.4 L 124.5 260.7 L 126.3 261.1 L 128.0 261.4 L 129.8 261.8 L 131.5 262.2 L 133.2 262.5 L 135.0 262.9 L 136.7 263.3 L 138.4 263.7 L 140.2 264.0 L 141.9 264.4 L 143.6 264.8 L 145.4 265.2 L 147.1 265.6 L 148.9 265.9 L 150.6 266.3 L 152.3 266.7 L 154.1 267.1 L 155.8 267.5 L 157.6 267.9 L 159.3 268.3 L 161.0 268.7 L 162.8 269.1 L 164.5 269.5 L 166.2 269.9 L 168.0 270.3 L 169.7 270.7 L 171.4 271.1 L 173.2 271.5 L 174.9 271.9 L 176.7 272.3 L 178.4 272.7 L 180.1 273.1 L 181.9 273.5 L 183.6 273.9 L 185.4 274.3 L 187.1 274.8 L 188.8 275.2 L 190.6 275.6 L 192.3 276.0 L 194.0 276.4 L 195.8 276.9 L 197.5 277.3 L 199.2 277.7 L 201.0 278.2 L 202.7 278.6 L 204.5 279.0 L 206.2 279.5 L 207.9 279.9 L 209.7 280.3 L 211.4 280.8 L 213.1 281.2 L 214.9 281.6 L 216.6 282.1 L 218.4 282.5 L 220.1 283.0 L 221.8 283.4 L 223.6 283.9 L 225.3 284.3 L 227.1 284.8 L 228.8 285.2 L 230.5 285.7 L 232.3 286.1 L 234.0 286.6 L 235.7 287.1 L 237.5 287.5 L 239.2 288.0 L 241.0 288.4 L 242.7 288.9 L 244.4 289.4 L 246.2 289.8 L 247.9 290.3 L 249.6 290.8 L 251.4 291.2 L 253.1 291.7 L 254.8 292.2 L 256.6 292.7 L 258.3 293.1 L 260.1 293.6 L 261.8 294.1 L 263.5 294.6 L 265.3 295.0 L 267.0 295.5 L 268.8 296.0 L 270.5 296.5 L 272.2 297.0 L 274.0 297.5 L 275.7 297.9 L 277.4 298.4 L 279.2 298.9 L 280.9 299.4 L 282.6 299.9 L 284.4 300.4 L 286.1 300.9 L 287.9 301.4 L 289.6 301.9 L 291.3 302.4 L 293.1 302.9 L 294.8 303.4 L 296.5 303.9 L 298.3 304.4 L 300.0 304.9 L 301.8 305.4 L 303.5 305.9 L 305.2 306.4 L 307.0 306.9 L 308.7 307.4 L 310.5 307.9 L 312.2 308.4 L 313.9 308.9 L 315.7 309.5 L 317.4 310.0 L 319.1 310.5 L 320.9 311.0 L 322.6 311.5 L 324.3 312.0 L 326.1 312.6 L 327.8 313.1 L 329.6 313.6 L 331.3 314.1 L 333.0 314.6 L 334.8 315.2 L 336.5 315.7 L 338.2 316.2 L 340.0 316.7 L 341.7 317.3 L 343.5 317.8 L 345.2 318.3 L 346.9 318.8 L 348.7 319.4 L 350.4 319.9 L 352.1 320.4 L 353.9 321.0 L 355.6 321.5 L 357.4 322.0 L 359.1 322.6 L 360.8 323.1 L 362.6 323.7 L 364.3 324.2 L 366.0 324.7 L 367.8 325.3 L 369.5 325.8 L 371.3 326.4 L 373.0 326.9 L 374.7 327.4 L 376.5 328.0 L 378.2 328.5 L 379.9 329.1 L 381.7 329.6 L 383.4 330.2 L 385.2 330.7 L 386.9 331.3 L 388.6 331.8 L 390.4 332.4 L 392.1 332.9 L 393.9 333.5 L 395.6 334.0 L 397.3 334.6 L 399.1 335.1 L 400.8 335.7 L 402.5 336.2 L 404.3 336.8 L 406.0 337.3 L 407.7 337.9 L 409.5 338.5 L 411.2 339.0 L 413.0 339.6 L 414.7 340.1 L 416.4 340.7 L 418.2 341.3 L 419.9 341.8 L 421.6 342.4 L 423.4 342.9 L 425.1 343.5 L 426.9 344.1 L 428.6 344.6 L 430.3 345.2 L 432.1 345.8 L 433.8 346.3 L 435.6 346.9 L 437.3 347.5 L 439.0 348.0 L 440.8 348.6 L 442.5 349.2 L 444.2 349.7 L 446.0 350.3 L 447.7 350.9 L 449.4 351.5 L 451.2 352.0 L 452.9 352.6 L 454.7 353.2 L 456.4 353.7 L 458.1 354.3 L 459.9 354.9 L 461.6 355.5 L 463.3 356.0 L 465.1 356.6 L 466.8 357.2 L 468.6 357.8 L 470.3 358.4 L 472.0 358.9 L 473.8 359.5 L 475.5 360.1 L 477.3 360.7 L 479.0 361.2 L 480.7 361.8 L 482.5 362.4 L 484.2 363.0 L 485.9 363.6 L 487.7 364.2 L 489.4 364.7 L 491.1 365.3 L 492.9 365.9 L 494.6 366.5 L 496.4 367.1 L 498.1 367.7 L 499.8 368.2 L 501.6 368.8 L 503.3 369.4 L 505.1 370.0 L 506.8 370.6 L 508.5 371.2 L 510.3 371.8 L 512.0 372.4 L 513.7 372.9 L 515.5 373.5 L 517.2 374.1 L 519.0 374.7 L 520.7 375.3 L 522.4 375.9 L 524.2 376.5 L 525.9 377.1 L 527.6 377.7 L 529.4 378.3 L 531.1 378.8 L 532.9 379.4 L 534.6 380.0 L 536.3 380.6 L 538.1 381.2 L 539.8 381.8 L 541.5 382.4 L 543.3 383.0 L 545.0 383.6 L 546.8 384.2 L 548.5 384.8 L 550.2 385.4 L 552.0 386.0 L 553.7 386.6 L 555.4 387.2 L 557.2 387.8 L 558.9 388.4 L 560.6 389.0 L 562.4 389.6 L 564.1 390.2 L 565.9 390.8 L 567.6 391.4 L 569.3 392.0 L 571.1 392.6 L 572.8 393.2 L 574.5 393.8 L 576.3 394.4 L 578.0 395.0 L 579.8 395.6 L 581.5 396.2 L 583.2 396.8 L 585.0 397.4 L 586.7 398.0 L 588.5 398.6 L 590.2 399.2 L 591.9 399.8 L 593.7 400.4 L 595.4 401.0 L 597.1 401.6 L 598.9 402.2 L 600.6 402.8 L 602.3 403.4 L 604.1 404.0 L 605.8 404.6 L 607.6 405.2 L 609.3 405.8 L 611.0 406.4 L 612.8 407.0 L 614.5 407.6 L 616.2 408.2 L 618.0 408.8 L 619.7 409.5 L 621.5 410.1 L 623.2 410.7 L 624.9 411.3 L 626.7 411.9 L 628.4 412.5 L 630.1 413.1 L 631.9 413.7 L 633.6 414.3 L 635.4 414.9 L 637.1 415.5 L 638.8 416.1 L 640.6 416.7 L 642.3 417.4 L 644.1 418.0 L 645.8 418.6 L 647.5 419.2 L 649.3 419.8 L 651.0 420.4 L 652.7 421.0 L 654.5 421.6 L 656.2 422.2 L 657.9 422.8 L 659.7 423.5 L 661.4 424.1 L 663.2 424.7 L 664.9 425.3 L 666.6 425.9 L 668.4 426.5 L 670.1 427.1 L 671.9 427.7 L 673.6 428.3 L 675.3 429.0 L 677.1 429.6 L 678.8 430.2 L 680.5 430.8 L 682.3 431.4 L 684.0 432.0 L 685.8 432.6 L 687.5 433.2 L 689.2 433.9 L 691.0 434.5 L 692.7 435.1 L 694.4 435.7 L 696.2 436.3 L 697.9 436.9 L 699.6 437.5 L 701.4 438.2 L 703.1 438.8 L 704.9 439.4 L 706.6 440.0 L 708.3 440.6 L 710.1 441.2 L 711.8 441.8 L 713.5 442.5 L 715.3 443.1 L 717.0 443.7 L 718.8 444.3 L 720.5 444.9 L 722.2 445.5 L 724.0 446.1 L 725.7 446.8 L 727.4 447.4 L 729.2 448.0 L 730.9 448.6 L 732.7 449.2 L 734.4 449.8 L 736.1 450.5 L 737.9 451.1 L 739.6 451.7 L 741.3 452.3 L 743.1 452.9 L 744.8 453.5 L 746.6 454.2 L 748.3 454.8 L 750.0 455.4 L 751.8 456.0 L 753.5 456.6 L 755.2 457.2 L 757.0 457.9 L 758.7 458.5 L 760.5 459.1 L 762.2 459.7 L 763.9 460.3 L 765.7 461.0 L 767.4 461.6 L 769.1 462.2 L 770.9 462.8 L 772.6 463.4 L 774.4 464.0 L 776.1 464.7 L 777.8 465.3 L 779.6 465.9 L 781.3 466.5 L 783.0 467.1 L 784.8 467.8 L 786.5 468.4 L 788.3 469.0 L 790.0 469.6" fill="none" stroke="#c43f6b" stroke-width="3.0" opacity="1"/>
<line x1="95" y1="475" x2="790" y2="475" stroke="#0a1929" stroke-width="1.8"/>
<line x1="95" y1="475" x2="95" y2="80" stroke="#0a1929" stroke-width="1.8"/>
<line x1="790" y1="475" x2="812" y2="475" stroke="#0a1929" stroke-width="1.8" marker-end="url(#oc-ar)"/>
<line x1="234.63470319634703" y1="475" x2="234.63470319634703" y2="481" stroke="#0a1929" stroke-width="1.4"/>
<text x="234.63470319634703" y="499" font-size="18" fill="#5a6a7a" text-anchor="middle">1</text>
<line x1="393.310502283105" y1="475" x2="393.310502283105" y2="481" stroke="#0a1929" stroke-width="1.4"/>
<text x="393.310502283105" y="499" font-size="18" fill="#5a6a7a" text-anchor="middle">2</text>
<line x1="551.986301369863" y1="475" x2="551.986301369863" y2="481" stroke="#0a1929" stroke-width="1.4"/>
<text x="551.986301369863" y="499" font-size="18" fill="#5a6a7a" text-anchor="middle">3</text>
<line x1="710.6621004566209" y1="475" x2="710.6621004566209" y2="481" stroke="#0a1929" stroke-width="1.4"/>
<text x="710.6621004566209" y="499" font-size="18" fill="#5a6a7a" text-anchor="middle">4</text>
<text x="159.29680365296804" y="174.92098818278333" font-size="21" fill="#1f4e79" text-anchor="start" font-weight="700">Bose–Einstein</text>
<text x="159.29680365296804" y="194.92098818278333" font-size="17" fill="#1f4e79" text-anchor="start" font-family="Georgia, 'STIX Two Text', 'Times New Roman', serif">1/(e^x − 1)</text>
<text x="321.906392694064" y="284.29893218175533" font-size="20" fill="#0a1929" text-anchor="start" font-weight="700">Maxwell–Boltzmann</text>
<text x="417.1118721461187" y="322.6081962521122" font-size="18" fill="#0a1929" text-anchor="start" font-family="Georgia, 'STIX Two Text', 'Times New Roman', serif">e^(−x)</text>
<text x="242.56849315068493" y="318.86585481271044" font-size="20" fill="#c43f6b" text-anchor="middle" font-weight="700">Fermi–Dirac</text>
<text x="242.56849315068493" y="338.86585481271044" font-size="17" fill="#c43f6b" text-anchor="middle" font-family="Georgia, 'STIX Two Text', 'Times New Roman', serif">1/(e^x + 1)</text>
<text x="103" y="203.66666666666669" font-size="17" fill="#8a99a8" text-anchor="start">n̄ = 1</text>
<text x="101.34703196347031" y="115.51134749949273" font-size="17" fill="#1f4e79" text-anchor="start">発散（Bose 側）</text>
<text x="442.5" y="525" font-size="21" fill="#0a1929" text-anchor="middle" font-style="italic" font-family="Georgia, 'STIX Two Text', 'Times New Roman', serif">x = (E − μ) / k_BT　→</text>
<text x="38" y="277.5" font-size="20" fill="#0a1929" text-anchor="middle" font-style="italic" font-family="Georgia, 'STIX Two Text', 'Times New Roman', serif" transform="rotate(-90 38 277.5)">平均占有数 n̄（対数）</text>
<text x="450.0" y="550" font-size="17" fill="#8a99a8" text-anchor="middle">占有数が小さい（高エネルギー側・希薄）と、量子統計はどちらも古典 Boltzmann 統計に帰着する ― 第8章 §8.3</text>
</svg>
