<?xml version="1.0" encoding="UTF-8"?>
<svg xmlns="http://www.w3.org/2000/svg" viewBox="0 0 900 560" width="900" height="560" font-family="-apple-system, BlinkMacSystemFont, 'Segoe UI', 'Hiragino Sans', 'Noto Sans JP', sans-serif">
<rect width="900" height="560" fill="#fafbfc"/>
<defs><marker id="pr-ar" viewBox="0 0 10 10" refX="9" refY="5" markerWidth="7.5" markerHeight="7.5" orient="auto-start-reverse"><path d="M 0 0 L 10 5 L 0 10 z" fill="#0a1929"/></marker>
<marker id="pr-wien" viewBox="0 0 10 10" refX="9" refY="5" markerWidth="7.5" markerHeight="7.5" orient="auto-start-reverse"><path d="M 0 0 L 10 5 L 0 10 z" fill="#5a6a7a"/></marker>
</defs>
<line x1="95" y1="470" x2="790" y2="470" stroke="#0a1929" stroke-width="1.8"/>
<line x1="95" y1="470" x2="95" y2="90" stroke="#0a1929" stroke-width="1.8"/>
<line x1="790" y1="470" x2="812" y2="470" stroke="#0a1929" stroke-width="1.8" marker-end="url(#pr-ar)"/>
<line x1="95" y1="90" x2="95" y2="68" stroke="#0a1929" stroke-width="1.8" marker-end="url(#pr-ar)"/>
<path d="M 97.1 470.0 L 97.1 469.9 L 99.3 469.7 L 101.4 469.3 L 103.6 468.8 L 105.7 468.1 L 107.8 467.3 L 110.0 466.4 L 112.1 465.4 L 114.2 464.3 L 116.4 463.0 L 118.5 461.6 L 120.7 460.2 L 122.8 458.7 L 124.9 457.0 L 127.1 455.3 L 129.2 453.5 L 131.4 451.7 L 133.5 449.8 L 135.6 447.8 L 137.8 445.7 L 139.9 443.6 L 142.0 441.5 L 144.2 439.3 L 146.3 437.0 L 148.5 434.7 L 150.6 432.4 L 152.7 430.1 L 154.9 427.7 L 157.0 425.3 L 159.2 422.9 L 161.3 420.4 L 163.4 418.0 L 165.6 415.5 L 167.7 413.1 L 169.8 410.6 L 172.0 408.1 L 174.1 405.6 L 176.3 403.1 L 178.4 400.6 L 180.5 398.2 L 182.7 395.7 L 184.8 393.3 L 187.0 390.8 L 189.1 388.4 L 191.2 386.0 L 193.4 383.6 L 195.5 381.3 L 197.6 378.9 L 199.8 376.6 L 201.9 374.3 L 204.1 372.0 L 206.2 369.8 L 208.3 367.6 L 210.5 365.4 L 212.6 363.3 L 214.8 361.2 L 216.9 359.1 L 219.0 357.1 L 221.2 355.1 L 223.3 353.1 L 225.4 351.2 L 227.6 349.3 L 229.7 347.5 L 231.9 345.7 L 234.0 343.9 L 236.1 342.2 L 238.3 340.6 L 240.4 338.9 L 242.6 337.4 L 244.7 335.8 L 246.8 334.3 L 249.0 332.9 L 251.1 331.5 L 253.2 330.1 L 255.4 328.8 L 257.5 327.5 L 259.7 326.3 L 261.8 325.1 L 263.9 324.0 L 266.1 322.9 L 268.2 321.8 L 270.4 320.8 L 272.5 319.9 L 274.6 319.0 L 276.8 318.1 L 278.9 317.3 L 281.0 316.5 L 283.2 315.8 L 285.3 315.1 L 287.5 314.5 L 289.6 313.8 L 291.7 313.3 L 293.9 312.8 L 296.0 312.3 L 298.2 311.9 L 300.3 311.5 L 302.4 311.1 L 304.6 310.8 L 306.7 310.5 L 308.8 310.3 L 311.0 310.1 L 313.1 309.9 L 315.3 309.8 L 317.4 309.7 L 319.5 309.7 L 321.7 309.7 L 323.8 309.7 L 326.0 309.8 L 328.1 309.9 L 330.2 310.0 L 332.4 310.2 L 334.5 310.3 L 336.6 310.6 L 338.8 310.8 L 340.9 311.1 L 343.1 311.4 L 345.2 311.8 L 347.3 312.1 L 349.5 312.5 L 351.6 313.0 L 353.8 313.4 L 355.9 313.9 L 358.0 314.4 L 360.2 314.9 L 362.3 315.5 L 364.4 316.0 L 366.6 316.6 L 368.7 317.3 L 370.9 317.9 L 373.0 318.6 L 375.1 319.3 L 377.3 320.0 L 379.4 320.7 L 381.6 321.4 L 383.7 322.2 L 385.8 323.0 L 388.0 323.8 L 390.1 324.6 L 392.2 325.4 L 394.4 326.2 L 396.5 327.1 L 398.7 327.9 L 400.8 328.8 L 402.9 329.7 L 405.1 330.6 L 407.2 331.5 L 409.4 332.5 L 411.5 333.4 L 413.6 334.4 L 415.8 335.3 L 417.9 336.3 L 420.0 337.3 L 422.2 338.3 L 424.3 339.3 L 426.5 340.3 L 428.6 341.3 L 430.7 342.3 L 432.9 343.3 L 435.0 344.3 L 437.2 345.4 L 439.3 346.4 L 441.4 347.4 L 443.6 348.5 L 445.7 349.5 L 447.8 350.6 L 450.0 351.6 L 452.1 352.7 L 454.3 353.8 L 456.4 354.8 L 458.5 355.9 L 460.7 356.9 L 462.8 358.0 L 465.0 359.1 L 467.1 360.1 L 469.2 361.2 L 471.4 362.3 L 473.5 363.3 L 475.6 364.4 L 477.8 365.4 L 479.9 366.5 L 482.1 367.6 L 484.2 368.6 L 486.3 369.7 L 488.5 370.7 L 490.6 371.8 L 492.8 372.8 L 494.9 373.8 L 497.0 374.9 L 499.2 375.9 L 501.3 376.9 L 503.4 378.0 L 505.6 379.0 L 507.7 380.0 L 509.9 381.0 L 512.0 382.0 L 514.1 383.0 L 516.3 384.0 L 518.4 385.0 L 520.6 386.0 L 522.7 387.0 L 524.8 388.0 L 527.0 388.9 L 529.1 389.9 L 531.2 390.9 L 533.4 391.8 L 535.5 392.8 L 537.7 393.7 L 539.8 394.6 L 541.9 395.6 L 544.1 396.5 L 546.2 397.4 L 548.4 398.3 L 550.5 399.2 L 552.6 400.1 L 554.8 401.0 L 556.9 401.9 L 559.0 402.7 L 561.2 403.6 L 563.3 404.5 L 565.5 405.3 L 567.6 406.2 L 569.7 407.0 L 571.9 407.8 L 574.0 408.7 L 576.2 409.5 L 578.3 410.3 L 580.4 411.1 L 582.6 411.9 L 584.7 412.7 L 586.8 413.4 L 589.0 414.2 L 591.1 415.0 L 593.3 415.7 L 595.4 416.5 L 597.5 417.2 L 599.7 417.9 L 601.8 418.7 L 604.0 419.4 L 606.1 420.1 L 608.2 420.8 L 610.4 421.5 L 612.5 422.2 L 614.6 422.9 L 616.8 423.5 L 618.9 424.2 L 621.1 424.9 L 623.2 425.5 L 625.3 426.2 L 627.5 426.8 L 629.6 427.4 L 631.8 428.0 L 633.9 428.7 L 636.0 429.3 L 638.2 429.9 L 640.3 430.5 L 642.4 431.0 L 644.6 431.6 L 646.7 432.2 L 648.9 432.8 L 651.0 433.3 L 653.1 433.9 L 655.3 434.4 L 657.4 435.0 L 659.6 435.5 L 661.7 436.0 L 663.8 436.5 L 666.0 437.1 L 668.1 437.6 L 670.2 438.1 L 672.4 438.5 L 674.5 439.0 L 676.7 439.5 L 678.8 440.0 L 680.9 440.5 L 683.1 440.9 L 685.2 441.4 L 687.4 441.8 L 689.5 442.3 L 691.6 442.7 L 693.8 443.1 L 695.9 443.6 L 698.0 444.0 L 700.2 444.4 L 702.3 444.8 L 704.5 445.2 L 706.6 445.6 L 708.7 446.0 L 710.9 446.4 L 713.0 446.8 L 715.2 447.1 L 717.3 447.5 L 719.4 447.9 L 721.6 448.2 L 723.7 448.6 L 725.8 448.9 L 728.0 449.3 L 730.1 449.6 L 732.3 450.0 L 734.4 450.3 L 736.5 450.6 L 738.7 450.9 L 740.8 451.3 L 743.0 451.6 L 745.1 451.9 L 747.2 452.2 L 749.4 452.5 L 751.5 452.8 L 753.6 453.1 L 755.8 453.3 L 757.9 453.6 L 760.1 453.9 L 762.2 454.2 L 764.3 454.4 L 766.5 454.7 L 768.6 455.0 L 770.8 455.2 L 772.9 455.5 L 775.0 455.7 L 777.2 456.0 L 779.3 456.2 L 781.4 456.4 L 783.6 456.7 L 785.7 456.9 L 787.9 457.1 L 790.0 457.4 L 790.0 470.0 Z" fill="#1f4e79" fill-opacity="0.10" stroke="none"/>
<path d="M 97.1 469.9 L 99.3 469.8 L 101.4 469.5 L 103.6 469.2 L 105.7 468.8 L 107.8 468.3 L 110.0 467.7 L 112.1 467.1 L 114.2 466.4 L 116.4 465.7 L 118.5 464.8 L 120.7 464.0 L 122.8 463.1 L 124.9 462.2 L 127.1 461.2 L 129.2 460.2 L 131.4 459.2 L 133.5 458.2 L 135.6 457.1 L 137.8 456.0 L 139.9 455.0 L 142.0 453.9 L 144.2 452.8 L 146.3 451.7 L 148.5 450.6 L 150.6 449.5 L 152.7 448.4 L 154.9 447.3 L 157.0 446.2 L 159.2 445.1 L 161.3 444.1 L 163.4 443.0 L 165.6 442.0 L 167.7 441.0 L 169.8 440.0 L 172.0 439.0 L 174.1 438.1 L 176.3 437.1 L 178.4 436.2 L 180.5 435.4 L 182.7 434.5 L 184.8 433.7 L 187.0 432.9 L 189.1 432.1 L 191.2 431.4 L 193.4 430.7 L 195.5 430.0 L 197.6 429.4 L 199.8 428.7 L 201.9 428.2 L 204.1 427.6 L 206.2 427.1 L 208.3 426.6 L 210.5 426.1 L 212.6 425.7 L 214.8 425.3 L 216.9 424.9 L 219.0 424.5 L 221.2 424.2 L 223.3 423.9 L 225.4 423.6 L 227.6 423.4 L 229.7 423.2 L 231.9 423.0 L 234.0 422.9 L 236.1 422.8 L 238.3 422.7 L 240.4 422.6 L 242.6 422.5 L 244.7 422.5 L 246.8 422.5 L 249.0 422.5 L 251.1 422.6 L 253.2 422.6 L 255.4 422.7 L 257.5 422.8 L 259.7 423.0 L 261.8 423.1 L 263.9 423.3 L 266.1 423.5 L 268.2 423.7 L 270.4 423.9 L 272.5 424.1 L 274.6 424.4 L 276.8 424.7 L 278.9 424.9 L 281.0 425.2 L 283.2 425.5 L 285.3 425.9 L 287.5 426.2 L 289.6 426.5 L 291.7 426.9 L 293.9 427.3 L 296.0 427.7 L 298.2 428.0 L 300.3 428.4 L 302.4 428.8 L 304.6 429.3 L 306.7 429.7 L 308.8 430.1 L 311.0 430.5 L 313.1 431.0 L 315.3 431.4 L 317.4 431.9 L 319.5 432.3 L 321.7 432.8 L 323.8 433.2 L 326.0 433.7 L 328.1 434.2 L 330.2 434.6 L 332.4 435.1 L 334.5 435.6 L 336.6 436.0 L 338.8 436.5 L 340.9 437.0 L 343.1 437.4 L 345.2 437.9 L 347.3 438.4 L 349.5 438.9 L 351.6 439.3 L 353.8 439.8 L 355.9 440.3 L 358.0 440.7 L 360.2 441.2 L 362.3 441.7 L 364.4 442.1 L 366.6 442.6 L 368.7 443.0 L 370.9 443.5 L 373.0 443.9 L 375.1 444.4 L 377.3 444.8 L 379.4 445.3 L 381.6 445.7 L 383.7 446.1 L 385.8 446.6 L 388.0 447.0 L 390.1 447.4 L 392.2 447.8 L 394.4 448.2 L 396.5 448.6 L 398.7 449.0 L 400.8 449.4 L 402.9 449.8 L 405.1 450.2 L 407.2 450.6 L 409.4 451.0 L 411.5 451.3 L 413.6 451.7 L 415.8 452.1 L 417.9 452.4 L 420.0 452.8 L 422.2 453.1 L 424.3 453.5 L 426.5 453.8 L 428.6 454.1 L 430.7 454.5 L 432.9 454.8 L 435.0 455.1 L 437.2 455.4 L 439.3 455.7 L 441.4 456.0 L 443.6 456.3 L 445.7 456.6 L 447.8 456.9 L 450.0 457.2 L 452.1 457.5 L 454.3 457.7 L 456.4 458.0 L 458.5 458.3 L 460.7 458.5 L 462.8 458.8 L 465.0 459.1 L 467.1 459.3 L 469.2 459.5 L 471.4 459.8 L 473.5 460.0 L 475.6 460.2 L 477.8 460.5 L 479.9 460.7 L 482.1 460.9 L 484.2 461.1 L 486.3 461.3 L 488.5 461.5 L 490.6 461.7 L 492.8 461.9 L 494.9 462.1 L 497.0 462.3 L 499.2 462.5 L 501.3 462.7 L 503.4 462.8 L 505.6 463.0 L 507.7 463.2 L 509.9 463.3 L 512.0 463.5 L 514.1 463.7 L 516.3 463.8 L 518.4 464.0 L 520.6 464.1 L 522.7 464.3 L 524.8 464.4 L 527.0 464.5 L 529.1 464.7 L 531.2 464.8 L 533.4 464.9 L 535.5 465.1 L 537.7 465.2 L 539.8 465.3 L 541.9 465.4 L 544.1 465.5 L 546.2 465.7 L 548.4 465.8 L 550.5 465.9 L 552.6 466.0 L 554.8 466.1 L 556.9 466.2 L 559.0 466.3 L 561.2 466.4 L 563.3 466.5 L 565.5 466.6 L 567.6 466.7 L 569.7 466.7 L 571.9 466.8 L 574.0 466.9 L 576.2 467.0 L 578.3 467.1 L 580.4 467.1 L 582.6 467.2 L 584.7 467.3 L 586.8 467.4 L 589.0 467.4 L 591.1 467.5 L 593.3 467.6 L 595.4 467.6 L 597.5 467.7 L 599.7 467.8 L 601.8 467.8 L 604.0 467.9 L 606.1 467.9 L 608.2 468.0 L 610.4 468.1 L 612.5 468.1 L 614.6 468.2 L 616.8 468.2 L 618.9 468.3 L 621.1 468.3 L 623.2 468.4 L 625.3 468.4 L 627.5 468.4 L 629.6 468.5 L 631.8 468.5 L 633.9 468.6 L 636.0 468.6 L 638.2 468.6 L 640.3 468.7 L 642.4 468.7 L 644.6 468.8 L 646.7 468.8 L 648.9 468.8 L 651.0 468.9 L 653.1 468.9 L 655.3 468.9 L 657.4 468.9 L 659.6 469.0 L 661.7 469.0 L 663.8 469.0 L 666.0 469.1 L 668.1 469.1 L 670.2 469.1 L 672.4 469.1 L 674.5 469.2 L 676.7 469.2 L 678.8 469.2 L 680.9 469.2 L 683.1 469.3 L 685.2 469.3 L 687.4 469.3 L 689.5 469.3 L 691.6 469.3 L 693.8 469.4 L 695.9 469.4 L 698.0 469.4 L 700.2 469.4 L 702.3 469.4 L 704.5 469.4 L 706.6 469.5 L 708.7 469.5 L 710.9 469.5 L 713.0 469.5 L 715.2 469.5 L 717.3 469.5 L 719.4 469.5 L 721.6 469.6 L 723.7 469.6 L 725.8 469.6 L 728.0 469.6 L 730.1 469.6 L 732.3 469.6 L 734.4 469.6 L 736.5 469.6 L 738.7 469.7 L 740.8 469.7 L 743.0 469.7 L 745.1 469.7 L 747.2 469.7 L 749.4 469.7 L 751.5 469.7 L 753.6 469.7 L 755.8 469.7 L 757.9 469.7 L 760.1 469.7 L 762.2 469.8 L 764.3 469.8 L 766.5 469.8 L 768.6 469.8 L 770.8 469.8 L 772.9 469.8 L 775.0 469.8 L 777.2 469.8 L 779.3 469.8 L 781.4 469.8 L 783.6 469.8 L 785.7 469.8 L 787.9 469.8 L 790.0 469.8" fill="none" stroke="#2e7d5b" stroke-width="3.2" opacity="1"/>
<path d="M 97.1 469.9 L 99.3 469.7 L 101.4 469.3 L 103.6 468.8 L 105.7 468.1 L 107.8 467.3 L 110.0 466.4 L 112.1 465.4 L 114.2 464.3 L 116.4 463.0 L 118.5 461.6 L 120.7 460.2 L 122.8 458.7 L 124.9 457.0 L 127.1 455.3 L 129.2 453.5 L 131.4 451.7 L 133.5 449.8 L 135.6 447.8 L 137.8 445.7 L 139.9 443.6 L 142.0 441.5 L 144.2 439.3 L 146.3 437.0 L 148.5 434.7 L 150.6 432.4 L 152.7 430.1 L 154.9 427.7 L 157.0 425.3 L 159.2 422.9 L 161.3 420.4 L 163.4 418.0 L 165.6 415.5 L 167.7 413.1 L 169.8 410.6 L 172.0 408.1 L 174.1 405.6 L 176.3 403.1 L 178.4 400.6 L 180.5 398.2 L 182.7 395.7 L 184.8 393.3 L 187.0 390.8 L 189.1 388.4 L 191.2 386.0 L 193.4 383.6 L 195.5 381.3 L 197.6 378.9 L 199.8 376.6 L 201.9 374.3 L 204.1 372.0 L 206.2 369.8 L 208.3 367.6 L 210.5 365.4 L 212.6 363.3 L 214.8 361.2 L 216.9 359.1 L 219.0 357.1 L 221.2 355.1 L 223.3 353.1 L 225.4 351.2 L 227.6 349.3 L 229.7 347.5 L 231.9 345.7 L 234.0 343.9 L 236.1 342.2 L 238.3 340.6 L 240.4 338.9 L 242.6 337.4 L 244.7 335.8 L 246.8 334.3 L 249.0 332.9 L 251.1 331.5 L 253.2 330.1 L 255.4 328.8 L 257.5 327.5 L 259.7 326.3 L 261.8 325.1 L 263.9 324.0 L 266.1 322.9 L 268.2 321.8 L 270.4 320.8 L 272.5 319.9 L 274.6 319.0 L 276.8 318.1 L 278.9 317.3 L 281.0 316.5 L 283.2 315.8 L 285.3 315.1 L 287.5 314.5 L 289.6 313.8 L 291.7 313.3 L 293.9 312.8 L 296.0 312.3 L 298.2 311.9 L 300.3 311.5 L 302.4 311.1 L 304.6 310.8 L 306.7 310.5 L 308.8 310.3 L 311.0 310.1 L 313.1 309.9 L 315.3 309.8 L 317.4 309.7 L 319.5 309.7 L 321.7 309.7 L 323.8 309.7 L 326.0 309.8 L 328.1 309.9 L 330.2 310.0 L 332.4 310.2 L 334.5 310.3 L 336.6 310.6 L 338.8 310.8 L 340.9 311.1 L 343.1 311.4 L 345.2 311.8 L 347.3 312.1 L 349.5 312.5 L 351.6 313.0 L 353.8 313.4 L 355.9 313.9 L 358.0 314.4 L 360.2 314.9 L 362.3 315.5 L 364.4 316.0 L 366.6 316.6 L 368.7 317.3 L 370.9 317.9 L 373.0 318.6 L 375.1 319.3 L 377.3 320.0 L 379.4 320.7 L 381.6 321.4 L 383.7 322.2 L 385.8 323.0 L 388.0 323.8 L 390.1 324.6 L 392.2 325.4 L 394.4 326.2 L 396.5 327.1 L 398.7 327.9 L 400.8 328.8 L 402.9 329.7 L 405.1 330.6 L 407.2 331.5 L 409.4 332.5 L 411.5 333.4 L 413.6 334.4 L 415.8 335.3 L 417.9 336.3 L 420.0 337.3 L 422.2 338.3 L 424.3 339.3 L 426.5 340.3 L 428.6 341.3 L 430.7 342.3 L 432.9 343.3 L 435.0 344.3 L 437.2 345.4 L 439.3 346.4 L 441.4 347.4 L 443.6 348.5 L 445.7 349.5 L 447.8 350.6 L 450.0 351.6 L 452.1 352.7 L 454.3 353.8 L 456.4 354.8 L 458.5 355.9 L 460.7 356.9 L 462.8 358.0 L 465.0 359.1 L 467.1 360.1 L 469.2 361.2 L 471.4 362.3 L 473.5 363.3 L 475.6 364.4 L 477.8 365.4 L 479.9 366.5 L 482.1 367.6 L 484.2 368.6 L 486.3 369.7 L 488.5 370.7 L 490.6 371.8 L 492.8 372.8 L 494.9 373.8 L 497.0 374.9 L 499.2 375.9 L 501.3 376.9 L 503.4 378.0 L 505.6 379.0 L 507.7 380.0 L 509.9 381.0 L 512.0 382.0 L 514.1 383.0 L 516.3 384.0 L 518.4 385.0 L 520.6 386.0 L 522.7 387.0 L 524.8 388.0 L 527.0 388.9 L 529.1 389.9 L 531.2 390.9 L 533.4 391.8 L 535.5 392.8 L 537.7 393.7 L 539.8 394.6 L 541.9 395.6 L 544.1 396.5 L 546.2 397.4 L 548.4 398.3 L 550.5 399.2 L 552.6 400.1 L 554.8 401.0 L 556.9 401.9 L 559.0 402.7 L 561.2 403.6 L 563.3 404.5 L 565.5 405.3 L 567.6 406.2 L 569.7 407.0 L 571.9 407.8 L 574.0 408.7 L 576.2 409.5 L 578.3 410.3 L 580.4 411.1 L 582.6 411.9 L 584.7 412.7 L 586.8 413.4 L 589.0 414.2 L 591.1 415.0 L 593.3 415.7 L 595.4 416.5 L 597.5 417.2 L 599.7 417.9 L 601.8 418.7 L 604.0 419.4 L 606.1 420.1 L 608.2 420.8 L 610.4 421.5 L 612.5 422.2 L 614.6 422.9 L 616.8 423.5 L 618.9 424.2 L 621.1 424.9 L 623.2 425.5 L 625.3 426.2 L 627.5 426.8 L 629.6 427.4 L 631.8 428.0 L 633.9 428.7 L 636.0 429.3 L 638.2 429.9 L 640.3 430.5 L 642.4 431.0 L 644.6 431.6 L 646.7 432.2 L 648.9 432.8 L 651.0 433.3 L 653.1 433.9 L 655.3 434.4 L 657.4 435.0 L 659.6 435.5 L 661.7 436.0 L 663.8 436.5 L 666.0 437.1 L 668.1 437.6 L 670.2 438.1 L 672.4 438.5 L 674.5 439.0 L 676.7 439.5 L 678.8 440.0 L 680.9 440.5 L 683.1 440.9 L 685.2 441.4 L 687.4 441.8 L 689.5 442.3 L 691.6 442.7 L 693.8 443.1 L 695.9 443.6 L 698.0 444.0 L 700.2 444.4 L 702.3 444.8 L 704.5 445.2 L 706.6 445.6 L 708.7 446.0 L 710.9 446.4 L 713.0 446.8 L 715.2 447.1 L 717.3 447.5 L 719.4 447.9 L 721.6 448.2 L 723.7 448.6 L 725.8 448.9 L 728.0 449.3 L 730.1 449.6 L 732.3 450.0 L 734.4 450.3 L 736.5 450.6 L 738.7 450.9 L 740.8 451.3 L 743.0 451.6 L 745.1 451.9 L 747.2 452.2 L 749.4 452.5 L 751.5 452.8 L 753.6 453.1 L 755.8 453.3 L 757.9 453.6 L 760.1 453.9 L 762.2 454.2 L 764.3 454.4 L 766.5 454.7 L 768.6 455.0 L 770.8 455.2 L 772.9 455.5 L 775.0 455.7 L 777.2 456.0 L 779.3 456.2 L 781.4 456.4 L 783.6 456.7 L 785.7 456.9 L 787.9 457.1 L 790.0 457.4" fill="none" stroke="#1f4e79" stroke-width="3.2" opacity="1"/>
<path d="M 97.1 469.9 L 99.3 469.6 L 101.4 469.1 L 103.6 468.4 L 105.7 467.5 L 107.8 466.4 L 110.0 465.1 L 112.1 463.7 L 114.2 462.1 L 116.4 460.3 L 118.5 458.4 L 120.7 456.4 L 122.8 454.2 L 124.9 451.8 L 127.1 449.4 L 129.2 446.8 L 131.4 444.1 L 133.5 441.2 L 135.6 438.3 L 137.8 435.2 L 139.9 432.1 L 142.0 428.8 L 144.2 425.4 L 146.3 422.0 L 148.5 418.5 L 150.6 414.9 L 152.7 411.2 L 154.9 407.5 L 157.0 403.6 L 159.2 399.8 L 161.3 395.8 L 163.4 391.8 L 165.6 387.8 L 167.7 383.7 L 169.8 379.5 L 172.0 375.4 L 174.1 371.2 L 176.3 366.9 L 178.4 362.6 L 180.5 358.3 L 182.7 354.0 L 184.8 349.6 L 187.0 345.3 L 189.1 340.9 L 191.2 336.5 L 193.4 332.1 L 195.5 327.7 L 197.6 323.2 L 199.8 318.8 L 201.9 314.4 L 204.1 310.0 L 206.2 305.6 L 208.3 301.2 L 210.5 296.8 L 212.6 292.5 L 214.8 288.1 L 216.9 283.8 L 219.0 279.5 L 221.2 275.2 L 223.3 270.9 L 225.4 266.6 L 227.6 262.4 L 229.7 258.2 L 231.9 254.1 L 234.0 250.0 L 236.1 245.9 L 238.3 241.8 L 240.4 237.8 L 242.6 233.8 L 244.7 229.9 L 246.8 226.0 L 249.0 222.1 L 251.1 218.3 L 253.2 214.6 L 255.4 210.9 L 257.5 207.2 L 259.7 203.6 L 261.8 200.0 L 263.9 196.5 L 266.1 193.0 L 268.2 189.6 L 270.4 186.2 L 272.5 182.9 L 274.6 179.6 L 276.8 176.4 L 278.9 173.3 L 281.0 170.2 L 283.2 167.1 L 285.3 164.2 L 287.5 161.2 L 289.6 158.4 L 291.7 155.6 L 293.9 152.8 L 296.0 150.1 L 298.2 147.5 L 300.3 144.9 L 302.4 142.4 L 304.6 140.0 L 306.7 137.6 L 308.8 135.3 L 311.0 133.0 L 313.1 130.8 L 315.3 128.6 L 317.4 126.5 L 319.5 124.5 L 321.7 122.5 L 323.8 120.6 L 326.0 118.8 L 328.1 117.0 L 330.2 115.3 L 332.4 113.6 L 334.5 112.0 L 336.6 110.5 L 338.8 109.0 L 340.9 107.6 L 343.1 106.2 L 345.2 104.9 L 347.3 103.6 L 349.5 102.4 L 351.6 101.3 L 353.8 100.2 L 355.9 99.2 L 358.0 98.2 L 360.2 97.3 L 362.3 96.5 L 364.4 95.7 L 366.6 94.9 L 368.7 94.2 L 370.9 93.6 L 373.0 93.0 L 375.1 92.5 L 377.3 92.0 L 379.4 91.6 L 381.6 91.2 L 383.7 90.9 L 385.8 90.6 L 388.0 90.4 L 390.1 90.2 L 392.2 90.1 L 394.4 90.0 L 396.5 90.0 L 398.7 90.0 L 400.8 90.1 L 402.9 90.2 L 405.1 90.4 L 407.2 90.6 L 409.4 90.8 L 411.5 91.1 L 413.6 91.4 L 415.8 91.8 L 417.9 92.2 L 420.0 92.7 L 422.2 93.2 L 424.3 93.7 L 426.5 94.3 L 428.6 94.9 L 430.7 95.6 L 432.9 96.3 L 435.0 97.0 L 437.2 97.7 L 439.3 98.5 L 441.4 99.4 L 443.6 100.2 L 445.7 101.2 L 447.8 102.1 L 450.0 103.1 L 452.1 104.0 L 454.3 105.1 L 456.4 106.1 L 458.5 107.2 L 460.7 108.3 L 462.8 109.5 L 465.0 110.7 L 467.1 111.9 L 469.2 113.1 L 471.4 114.4 L 473.5 115.6 L 475.6 116.9 L 477.8 118.3 L 479.9 119.6 L 482.1 121.0 L 484.2 122.4 L 486.3 123.8 L 488.5 125.3 L 490.6 126.7 L 492.8 128.2 L 494.9 129.7 L 497.0 131.2 L 499.2 132.8 L 501.3 134.3 L 503.4 135.9 L 505.6 137.5 L 507.7 139.1 L 509.9 140.7 L 512.0 142.4 L 514.1 144.0 L 516.3 145.7 L 518.4 147.4 L 520.6 149.1 L 522.7 150.8 L 524.8 152.5 L 527.0 154.2 L 529.1 156.0 L 531.2 157.7 L 533.4 159.5 L 535.5 161.3 L 537.7 163.1 L 539.8 164.9 L 541.9 166.7 L 544.1 168.5 L 546.2 170.3 L 548.4 172.1 L 550.5 173.9 L 552.6 175.8 L 554.8 177.6 L 556.9 179.5 L 559.0 181.3 L 561.2 183.2 L 563.3 185.1 L 565.5 186.9 L 567.6 188.8 L 569.7 190.7 L 571.9 192.6 L 574.0 194.4 L 576.2 196.3 L 578.3 198.2 L 580.4 200.1 L 582.6 202.0 L 584.7 203.9 L 586.8 205.8 L 589.0 207.7 L 591.1 209.6 L 593.3 211.5 L 595.4 213.3 L 597.5 215.2 L 599.7 217.1 L 601.8 219.0 L 604.0 220.9 L 606.1 222.8 L 608.2 224.7 L 610.4 226.5 L 612.5 228.4 L 614.6 230.3 L 616.8 232.2 L 618.9 234.0 L 621.1 235.9 L 623.2 237.8 L 625.3 239.6 L 627.5 241.5 L 629.6 243.3 L 631.8 245.2 L 633.9 247.0 L 636.0 248.8 L 638.2 250.6 L 640.3 252.5 L 642.4 254.3 L 644.6 256.1 L 646.7 257.9 L 648.9 259.7 L 651.0 261.5 L 653.1 263.3 L 655.3 265.0 L 657.4 266.8 L 659.6 268.6 L 661.7 270.3 L 663.8 272.1 L 666.0 273.8 L 668.1 275.6 L 670.2 277.3 L 672.4 279.0 L 674.5 280.7 L 676.7 282.4 L 678.8 284.1 L 680.9 285.8 L 683.1 287.5 L 685.2 289.2 L 687.4 290.8 L 689.5 292.5 L 691.6 294.1 L 693.8 295.7 L 695.9 297.4 L 698.0 299.0 L 700.2 300.6 L 702.3 302.2 L 704.5 303.8 L 706.6 305.4 L 708.7 306.9 L 710.9 308.5 L 713.0 310.1 L 715.2 311.6 L 717.3 313.1 L 719.4 314.7 L 721.6 316.2 L 723.7 317.7 L 725.8 319.2 L 728.0 320.7 L 730.1 322.1 L 732.3 323.6 L 734.4 325.1 L 736.5 326.5 L 738.7 327.9 L 740.8 329.4 L 743.0 330.8 L 745.1 332.2 L 747.2 333.6 L 749.4 335.0 L 751.5 336.4 L 753.6 337.7 L 755.8 339.1 L 757.9 340.4 L 760.1 341.8 L 762.2 343.1 L 764.3 344.4 L 766.5 345.7 L 768.6 347.0 L 770.8 348.3 L 772.9 349.6 L 775.0 350.9 L 777.2 352.1 L 779.3 353.4 L 781.4 354.6 L 783.6 355.8 L 785.7 357.0 L 787.9 358.3 L 790.0 359.5" fill="none" stroke="#c43f6b" stroke-width="3.2" opacity="1"/>
<path d="M 245.8 422.5 L 321.2 309.7 L 396.6 90.0" fill="none" stroke="#5a6a7a" stroke-width="2" stroke-dasharray="2,4" opacity="1"/>
<line x1="245.81500000000003" y1="422.4999861826528" x2="245.81500000000003" y2="470" stroke="#2e7d5b" stroke-width="1.4" stroke-dasharray="3,4"/>
<circle cx="245.8" cy="422.5" r="5" fill="#2e7d5b"/>
<text x="245.81500000000003" y="408.4999861826528" font-size="17" fill="#2e7d5b" text-anchor="middle" font-weight="700" font-style="italic" font-family="Georgia, 'STIX Two Text', 'Times New Roman', serif">T</text>
<line x1="321.22249999999997" y1="309.68745336645304" x2="321.22249999999997" y2="470" stroke="#1f4e79" stroke-width="1.4" stroke-dasharray="3,4"/>
<circle cx="321.2" cy="309.7" r="5" fill="#1f4e79"/>
<text x="321.22249999999997" y="295.68745336645304" font-size="17" fill="#1f4e79" text-anchor="middle" font-weight="700" font-style="italic" font-family="Georgia, 'STIX Two Text', 'Times New Roman', serif">1.5 T</text>
<line x1="396.63000000000005" y1="89.9998894612221" x2="396.63000000000005" y2="470" stroke="#c43f6b" stroke-width="1.4" stroke-dasharray="3,4"/>
<circle cx="396.6" cy="90.0" r="5" fill="#c43f6b"/>
<text x="396.63000000000005" y="75.9998894612221" font-size="17" fill="#c43f6b" text-anchor="middle" font-weight="700" font-style="italic" font-family="Georgia, 'STIX Two Text', 'Times New Roman', serif">2 T</text>
<text x="492.63000000000005" y="87.9998894612221" font-size="15" fill="#5a6a7a" text-anchor="start">ピーク位置 ν_peak ∝ T</text>
<text x="492.63000000000005" y="107.9998894612221" font-size="14" fill="#5a6a7a" text-anchor="start">（Wien の変位則）</text>
<text x="276.7692307692308" y="415" font-size="17" fill="#1f4e79" text-anchor="middle" font-weight="700">面積 = σT⁴</text>
<text x="276.7692307692308" y="436" font-size="14" fill="#5a6a7a" text-anchor="middle">（Stefan–Boltzmann）</text>
<text x="150" y="232" font-size="16" fill="#5a6a7a" text-anchor="start">低振動数側：∝ ν²</text>
<text x="150" y="253" font-size="14" fill="#5a6a7a" text-anchor="start">（Rayleigh–Jeans）</text>
<line x1="172" y1="268" x2="161.8" y2="388.8" stroke="#5a6a7a" stroke-width="1.3" stroke-dasharray="3,4"/>
<text x="645.6538461538462" y="148" font-size="16" fill="#c43f6b" text-anchor="middle">指数減衰</text>
<text x="645.6538461538462" y="168" font-size="14" fill="#5a6a7a" text-anchor="middle">（Wien 近似）</text>
<text x="442.5" y="520" font-size="18" fill="#0a1929" text-anchor="middle" font-style="italic" font-family="Georgia, 'STIX Two Text', 'Times New Roman', serif">振動数 ν　→</text>
<text x="40" y="280.0" font-size="18" fill="#0a1929" text-anchor="middle" font-style="italic" font-family="Georgia, 'STIX Two Text', 'Times New Roman', serif" transform="rotate(-90 40 280.0)">B_ν（黒体輝度）</text>
<text x="450.0" y="548" font-size="14" fill="#8a99a8" text-anchor="middle">温度が上がると ― ピークは高振動数側へ（Wien）、曲線下の面積は T⁴ で増える（Stefan–Boltzmann）</text>
</svg>
