<?xml version="1.0" encoding="UTF-8"?>
<svg xmlns="http://www.w3.org/2000/svg" viewBox="0 0 900 540" width="900" height="540" font-family="-apple-system, BlinkMacSystemFont, 'Segoe UI', 'Hiragino Sans', 'Noto Sans JP', sans-serif">
<!-- Mode freeze-out | Style matched to planck-map.svg | License: CC BY 4.0 -->
<rect width="900" height="540" fill="#fafbfc"/>
<text x="450.0" y="40" text-anchor="middle" font-size="25" font-weight="700" fill="#0a1929" letter-spacing="0.06em">高振動数モードの「凍結」</text>
<text x="450.0" y="66" text-anchor="middle" font-size="17" fill="#5a6a7a">量子化振動子 1 個の平均エネルギー（第7章 §7.2・第10章 §10.2）</text>
<line x1="110.0" y1="440" x2="110.0" y2="110" stroke="#e3e9f0" stroke-width="1"/>
<text x="110.0" y="460" text-anchor="middle" font-size="15" fill="#5a6a7a">0</text>
<line x1="198.75" y1="440" x2="198.75" y2="110" stroke="#e3e9f0" stroke-width="1"/>
<text x="198.75" y="460" text-anchor="middle" font-size="15" fill="#5a6a7a">1</text>
<line x1="287.5" y1="440" x2="287.5" y2="110" stroke="#e3e9f0" stroke-width="1"/>
<text x="287.5" y="460" text-anchor="middle" font-size="15" fill="#5a6a7a">2</text>
<line x1="376.25" y1="440" x2="376.25" y2="110" stroke="#e3e9f0" stroke-width="1"/>
<text x="376.25" y="460" text-anchor="middle" font-size="15" fill="#5a6a7a">3</text>
<line x1="465.0" y1="440" x2="465.0" y2="110" stroke="#e3e9f0" stroke-width="1"/>
<text x="465.0" y="460" text-anchor="middle" font-size="15" fill="#5a6a7a">4</text>
<line x1="553.75" y1="440" x2="553.75" y2="110" stroke="#e3e9f0" stroke-width="1"/>
<text x="553.75" y="460" text-anchor="middle" font-size="15" fill="#5a6a7a">5</text>
<line x1="642.5" y1="440" x2="642.5" y2="110" stroke="#e3e9f0" stroke-width="1"/>
<text x="642.5" y="460" text-anchor="middle" font-size="15" fill="#5a6a7a">6</text>
<line x1="731.25" y1="440" x2="731.25" y2="110" stroke="#e3e9f0" stroke-width="1"/>
<text x="731.25" y="460" text-anchor="middle" font-size="15" fill="#5a6a7a">7</text>
<line x1="820.0" y1="440" x2="820.0" y2="110" stroke="#e3e9f0" stroke-width="1"/>
<text x="820.0" y="460" text-anchor="middle" font-size="15" fill="#5a6a7a">8</text>
<line x1="110" y1="296.52173913043475" x2="820" y2="296.52173913043475" stroke="#e3e9f0" stroke-width="1"/>
<text x="100" y="300.52173913043475" text-anchor="end" font-size="14" fill="#5a6a7a">0.5</text>
<line x1="110" y1="153.04347826086956" x2="820" y2="153.04347826086956" stroke="#e3e9f0" stroke-width="1"/>
<text x="100" y="157.04347826086956" text-anchor="end" font-size="14" fill="#5a6a7a">1.0</text>
<rect x="376.25" y="110" width="443.75" height="330" fill="#d4a017" fill-opacity="0.10"/>
<text x="598.125" y="216.17391304347822" text-anchor="middle" font-size="17" fill="#9a7400" font-weight="700">凍結領域：hν ≫ kT</text>
<text x="598.125" y="236.17391304347822" text-anchor="middle" font-size="14.5" fill="#5a6a7a">エネルギー単位 hν が大きすぎて熱が届かず、</text>
<text x="598.125" y="252.17391304347822" text-anchor="middle" font-size="14.5" fill="#5a6a7a">平均エネルギーは e^(−hν/kT) で消える</text>
<path d="M 110.0 153.0 L 820.0 153.0" fill="none" stroke="#c43f6b" stroke-width="2.2" stroke-dasharray="7,4" opacity="1"/>
<text x="722.375" y="143.04347826086956" text-anchor="middle" font-size="15.5" fill="#c43f6b" font-weight="700">古典（等分配）：⟨E⟩ = kT</text>
<path d="M 110.0 153.0 L 111.8 155.9 L 113.6 158.8 L 115.3 161.6 L 117.1 164.4 L 118.9 167.2 L 120.7 170.0 L 122.5 172.7 L 124.2 175.4 L 126.0 178.2 L 127.8 180.9 L 129.6 183.5 L 131.4 186.2 L 133.1 188.8 L 134.9 191.4 L 136.7 194.0 L 138.5 196.6 L 140.3 199.2 L 142.0 201.7 L 143.8 204.2 L 145.6 206.7 L 147.4 209.2 L 149.1 211.7 L 150.9 214.1 L 152.7 216.6 L 154.5 219.0 L 156.3 221.4 L 158.0 223.7 L 159.8 226.1 L 161.6 228.4 L 163.4 230.7 L 165.2 233.0 L 166.9 235.3 L 168.7 237.6 L 170.5 239.8 L 172.3 242.0 L 174.1 244.3 L 175.8 246.4 L 177.6 248.6 L 179.4 250.8 L 181.2 252.9 L 183.0 255.0 L 184.7 257.1 L 186.5 259.2 L 188.3 261.2 L 190.1 263.3 L 191.9 265.3 L 193.6 267.3 L 195.4 269.3 L 197.2 271.3 L 199.0 273.2 L 200.8 275.2 L 202.5 277.1 L 204.3 279.0 L 206.1 280.9 L 207.9 282.8 L 209.6 284.6 L 211.4 286.4 L 213.2 288.3 L 215.0 290.1 L 216.8 291.8 L 218.5 293.6 L 220.3 295.4 L 222.1 297.1 L 223.9 298.8 L 225.7 300.5 L 227.4 302.2 L 229.2 303.9 L 231.0 305.5 L 232.8 307.2 L 234.6 308.8 L 236.3 310.4 L 238.1 312.0 L 239.9 313.6 L 241.7 315.1 L 243.5 316.7 L 245.2 318.2 L 247.0 319.7 L 248.8 321.2 L 250.6 322.7 L 252.4 324.1 L 254.1 325.6 L 255.9 327.0 L 257.7 328.5 L 259.5 329.9 L 261.3 331.3 L 263.0 332.6 L 264.8 334.0 L 266.6 335.4 L 268.4 336.7 L 270.2 338.0 L 271.9 339.3 L 273.7 340.6 L 275.5 341.9 L 277.3 343.2 L 279.0 344.4 L 280.8 345.6 L 282.6 346.9 L 284.4 348.1 L 286.2 349.3 L 287.9 350.5 L 289.7 351.6 L 291.5 352.8 L 293.3 353.9 L 295.1 355.1 L 296.8 356.2 L 298.6 357.3 L 300.4 358.4 L 302.2 359.5 L 304.0 360.6 L 305.7 361.6 L 307.5 362.7 L 309.3 363.7 L 311.1 364.7 L 312.9 365.7 L 314.6 366.7 L 316.4 367.7 L 318.2 368.7 L 320.0 369.7 L 321.8 370.6 L 323.5 371.6 L 325.3 372.5 L 327.1 373.4 L 328.9 374.3 L 330.7 375.2 L 332.4 376.1 L 334.2 377.0 L 336.0 377.9 L 337.8 378.7 L 339.5 379.6 L 341.3 380.4 L 343.1 381.2 L 344.9 382.1 L 346.7 382.9 L 348.4 383.7 L 350.2 384.4 L 352.0 385.2 L 353.8 386.0 L 355.6 386.7 L 357.3 387.5 L 359.1 388.2 L 360.9 389.0 L 362.7 389.7 L 364.5 390.4 L 366.2 391.1 L 368.0 391.8 L 369.8 392.5 L 371.6 393.2 L 373.4 393.8 L 375.1 394.5 L 376.9 395.1 L 378.7 395.8 L 380.5 396.4 L 382.3 397.0 L 384.0 397.7 L 385.8 398.3 L 387.6 398.9 L 389.4 399.5 L 391.2 400.1 L 392.9 400.6 L 394.7 401.2 L 396.5 401.8 L 398.3 402.3 L 400.1 402.9 L 401.8 403.4 L 403.6 404.0 L 405.4 404.5 L 407.2 405.0 L 408.9 405.5 L 410.7 406.0 L 412.5 406.5 L 414.3 407.0 L 416.1 407.5 L 417.8 408.0 L 419.6 408.5 L 421.4 408.9 L 423.2 409.4 L 425.0 409.8 L 426.7 410.3 L 428.5 410.7 L 430.3 411.2 L 432.1 411.6 L 433.9 412.0 L 435.6 412.5 L 437.4 412.9 L 439.2 413.3 L 441.0 413.7 L 442.8 414.1 L 444.5 414.5 L 446.3 414.8 L 448.1 415.2 L 449.9 415.6 L 451.7 416.0 L 453.4 416.3 L 455.2 416.7 L 457.0 417.1 L 458.8 417.4 L 460.6 417.7 L 462.3 418.1 L 464.1 418.4 L 465.9 418.7 L 467.7 419.1 L 469.4 419.4 L 471.2 419.7 L 473.0 420.0 L 474.8 420.3 L 476.6 420.6 L 478.3 420.9 L 480.1 421.2 L 481.9 421.5 L 483.7 421.8 L 485.5 422.1 L 487.2 422.4 L 489.0 422.6 L 490.8 422.9 L 492.6 423.2 L 494.4 423.4 L 496.1 423.7 L 497.9 423.9 L 499.7 424.2 L 501.5 424.4 L 503.3 424.7 L 505.0 424.9 L 506.8 425.2 L 508.6 425.4 L 510.4 425.6 L 512.2 425.8 L 513.9 426.1 L 515.7 426.3 L 517.5 426.5 L 519.3 426.7 L 521.1 426.9 L 522.8 427.1 L 524.6 427.3 L 526.4 427.5 L 528.2 427.7 L 529.9 427.9 L 531.7 428.1 L 533.5 428.3 L 535.3 428.5 L 537.1 428.7 L 538.8 428.9 L 540.6 429.0 L 542.4 429.2 L 544.2 429.4 L 546.0 429.6 L 547.7 429.7 L 549.5 429.9 L 551.3 430.0 L 553.1 430.2 L 554.9 430.4 L 556.6 430.5 L 558.4 430.7 L 560.2 430.8 L 562.0 431.0 L 563.8 431.1 L 565.5 431.3 L 567.3 431.4 L 569.1 431.5 L 570.9 431.7 L 572.7 431.8 L 574.4 431.9 L 576.2 432.1 L 578.0 432.2 L 579.8 432.3 L 581.6 432.5 L 583.3 432.6 L 585.1 432.7 L 586.9 432.8 L 588.7 432.9 L 590.5 433.0 L 592.2 433.2 L 594.0 433.3 L 595.8 433.4 L 597.6 433.5 L 599.3 433.6 L 601.1 433.7 L 602.9 433.8 L 604.7 433.9 L 606.5 434.0 L 608.2 434.1 L 610.0 434.2 L 611.8 434.3 L 613.6 434.4 L 615.4 434.5 L 617.1 434.6 L 618.9 434.7 L 620.7 434.8 L 622.5 434.8 L 624.3 434.9 L 626.0 435.0 L 627.8 435.1 L 629.6 435.2 L 631.4 435.3 L 633.2 435.3 L 634.9 435.4 L 636.7 435.5 L 638.5 435.6 L 640.3 435.6 L 642.1 435.7 L 643.8 435.8 L 645.6 435.8 L 647.4 435.9 L 649.2 436.0 L 651.0 436.0 L 652.7 436.1 L 654.5 436.2 L 656.3 436.2 L 658.1 436.3 L 659.8 436.4 L 661.6 436.4 L 663.4 436.5 L 665.2 436.5 L 667.0 436.6 L 668.7 436.7 L 670.5 436.7 L 672.3 436.8 L 674.1 436.8 L 675.9 436.9 L 677.6 436.9 L 679.4 437.0 L 681.2 437.0 L 683.0 437.1 L 684.8 437.1 L 686.5 437.2 L 688.3 437.2 L 690.1 437.3 L 691.9 437.3 L 693.7 437.4 L 695.4 437.4 L 697.2 437.5 L 699.0 437.5 L 700.8 437.5 L 702.6 437.6 L 704.3 437.6 L 706.1 437.7 L 707.9 437.7 L 709.7 437.7 L 711.5 437.8 L 713.2 437.8 L 715.0 437.9 L 716.8 437.9 L 718.6 437.9 L 720.4 438.0 L 722.1 438.0 L 723.9 438.0 L 725.7 438.1 L 727.5 438.1 L 729.2 438.1 L 731.0 438.2 L 732.8 438.2 L 734.6 438.2 L 736.4 438.3 L 738.1 438.3 L 739.9 438.3 L 741.7 438.3 L 743.5 438.4 L 745.3 438.4 L 747.0 438.4 L 748.8 438.5 L 750.6 438.5 L 752.4 438.5 L 754.2 438.5 L 755.9 438.6 L 757.7 438.6 L 759.5 438.6 L 761.3 438.6 L 763.1 438.7 L 764.8 438.7 L 766.6 438.7 L 768.4 438.7 L 770.2 438.7 L 772.0 438.8 L 773.7 438.8 L 775.5 438.8 L 777.3 438.8 L 779.1 438.8 L 780.9 438.9 L 782.6 438.9 L 784.4 438.9 L 786.2 438.9 L 788.0 438.9 L 789.7 439.0 L 791.5 439.0 L 793.3 439.0 L 795.1 439.0 L 796.9 439.0 L 798.6 439.0 L 800.4 439.1 L 802.2 439.1 L 804.0 439.1 L 805.8 439.1 L 807.5 439.1 L 809.3 439.1 L 811.1 439.2 L 812.9 439.2 L 814.7 439.2 L 816.4 439.2 L 818.2 439.2 L 820.0 439.2" fill="none" stroke="#1f4e79" stroke-width="3" opacity="1"/>
<text x="244.9" y="290.78260869565213" text-anchor="start" font-size="16" fill="#1f4e79" font-weight="700">量子化振動子</text>
<text x="244.9" y="308.78260869565213" text-anchor="start" font-size="15" fill="#1f4e79" font-style="italic" font-family="Georgia, 'STIX Two Text', 'Times New Roman', serif">⟨E⟩ = hν / (e^(hν/kT) − 1)</text>
<text x="132.1875" y="135.8260869565217" text-anchor="start" font-size="14" fill="#5a6a7a">x ≪ 1 では古典と一致（RJ 側）</text>
<line x1="110" y1="440" x2="820" y2="440" stroke="#0a1929" stroke-width="1.5"/>
<line x1="110" y1="440" x2="110" y2="110" stroke="#0a1929" stroke-width="1.5"/>
<text x="465.0" y="484" text-anchor="middle" font-size="16" fill="#0a1929" font-style="italic" font-family="Georgia, 'STIX Two Text', 'Times New Roman', serif">x = hν / kT</text>
<text x="34" y="275.0" text-anchor="middle" font-size="16" fill="#0a1929" transform="rotate(-90 34 275.0)">⟨E⟩ / kT</text>
<text x="450.0" y="528" text-anchor="middle" font-size="14" fill="#8a99a8">この凍結が紫外線破綻（第9章）を救い、観測される黒体スペクトルの指数減衰を生む</text>
</svg>
