<?xml version="1.0" encoding="UTF-8"?>
<svg xmlns="http://www.w3.org/2000/svg" viewBox="0 0 900 560" width="900" height="560" font-family="-apple-system, BlinkMacSystemFont, 'Segoe UI', 'Hiragino Sans', 'Noto Sans JP', sans-serif">
<!-- UV catastrophe (Ch.9 §9.3; also Ch.2 §2.5, Ch.10) | Style matched to planck-map.svg | License: CC BY 4.0 -->
<rect width="900" height="560" fill="#fafbfc"/>
<text x="450.0" y="40" text-anchor="middle" font-size="25" font-weight="700" fill="#0a1929" letter-spacing="0.06em">紫外線破綻 ― 古典論と観測の食い違い</text>
<text x="450.0" y="66" text-anchor="middle" font-size="17" fill="#5a6a7a">T = 5800 K のプランク分布と Rayleigh–Jeans 則（両対数）</text>
<line x1="110.0" y1="460" x2="110.0" y2="110" stroke="#e3e9f0" stroke-width="1"/>
<text x="110.0" y="480" text-anchor="middle" font-size="15" fill="#5a6a7a">10<tspan font-size="12" dy="-5">13</tspan></text>
<line x1="363.5714285714285" y1="460" x2="363.5714285714285" y2="110" stroke="#e3e9f0" stroke-width="1"/>
<text x="363.5714285714285" y="480" text-anchor="middle" font-size="15" fill="#5a6a7a">10<tspan font-size="12" dy="-5">14</tspan></text>
<line x1="617.142857142857" y1="460" x2="617.142857142857" y2="110" stroke="#e3e9f0" stroke-width="1"/>
<text x="617.142857142857" y="480" text-anchor="middle" font-size="15" fill="#5a6a7a">10<tspan font-size="12" dy="-5">15</tspan></text>
<line x1="110" y1="460.0" x2="820" y2="460.0" stroke="#e3e9f0" stroke-width="1"/>
<text x="100" y="464.0" text-anchor="end" font-size="14" fill="#5a6a7a">10<tspan font-size="12" dy="-5">-9</tspan></text>
<line x1="110" y1="406.15384615384613" x2="820" y2="406.15384615384613" stroke="#e3e9f0" stroke-width="1"/>
<text x="100" y="410.15384615384613" text-anchor="end" font-size="14" fill="#5a6a7a">10<tspan font-size="12" dy="-5">-8</tspan></text>
<line x1="110" y1="352.3076923076923" x2="820" y2="352.3076923076923" stroke="#e3e9f0" stroke-width="1"/>
<text x="100" y="356.3076923076923" text-anchor="end" font-size="14" fill="#5a6a7a">10<tspan font-size="12" dy="-5">-7</tspan></text>
<line x1="110" y1="298.46153846153845" x2="820" y2="298.46153846153845" stroke="#e3e9f0" stroke-width="1"/>
<text x="100" y="302.46153846153845" text-anchor="end" font-size="14" fill="#5a6a7a">10<tspan font-size="12" dy="-5">-6</tspan></text>
<line x1="110" y1="244.6153846153846" x2="820" y2="244.6153846153846" stroke="#e3e9f0" stroke-width="1"/>
<text x="100" y="248.6153846153846" text-anchor="end" font-size="14" fill="#5a6a7a">10<tspan font-size="12" dy="-5">-5</tspan></text>
<line x1="110" y1="190.76923076923077" x2="820" y2="190.76923076923077" stroke="#e3e9f0" stroke-width="1"/>
<text x="100" y="194.76923076923077" text-anchor="end" font-size="14" fill="#5a6a7a">10<tspan font-size="12" dy="-5">-4</tspan></text>
<line x1="110" y1="136.9230769230769" x2="820" y2="136.9230769230769" stroke="#e3e9f0" stroke-width="1"/>
<text x="100" y="140.9230769230769" text-anchor="end" font-size="14" fill="#5a6a7a">10<tspan font-size="12" dy="-5">-3</tspan></text>
<rect x="411.5719063545152" y="110" width="408.4280936454848" height="350" fill="#c43f6b" fill-opacity="0.07"/>
<path d="M 110.0 339.8 L 112.4 338.8 L 114.7 337.8 L 117.1 336.8 L 119.5 335.8 L 121.9 334.8 L 124.2 333.9 L 126.6 332.9 L 129.0 331.9 L 131.4 330.9 L 133.7 329.9 L 136.1 328.9 L 138.5 328.0 L 140.9 327.0 L 143.2 326.0 L 145.6 325.0 L 148.0 324.0 L 150.4 323.1 L 152.7 322.1 L 155.1 321.1 L 157.5 320.1 L 159.9 319.2 L 162.2 318.2 L 164.6 317.2 L 167.0 316.2 L 169.4 315.3 L 171.7 314.3 L 174.1 313.3 L 176.5 312.3 L 178.9 311.4 L 181.2 310.4 L 183.6 309.4 L 186.0 308.5 L 188.4 307.5 L 190.7 306.5 L 193.1 305.6 L 195.5 304.6 L 197.9 303.7 L 200.2 302.7 L 202.6 301.7 L 205.0 300.8 L 207.4 299.8 L 209.7 298.9 L 212.1 297.9 L 214.5 297.0 L 216.9 296.0 L 219.2 295.1 L 221.6 294.1 L 224.0 293.2 L 226.4 292.2 L 228.7 291.3 L 231.1 290.3 L 233.5 289.4 L 235.9 288.4 L 238.2 287.5 L 240.6 286.6 L 243.0 285.6 L 245.4 284.7 L 247.7 283.8 L 250.1 282.8 L 252.5 281.9 L 254.8 281.0 L 257.2 280.0 L 259.6 279.1 L 262.0 278.2 L 264.3 277.3 L 266.7 276.4 L 269.1 275.4 L 271.5 274.5 L 273.8 273.6 L 276.2 272.7 L 278.6 271.8 L 281.0 270.9 L 283.3 270.0 L 285.7 269.1 L 288.1 268.2 L 290.5 267.3 L 292.8 266.4 L 295.2 265.5 L 297.6 264.6 L 300.0 263.8 L 302.3 262.9 L 304.7 262.0 L 307.1 261.1 L 309.5 260.2 L 311.8 259.4 L 314.2 258.5 L 316.6 257.7 L 319.0 256.8 L 321.3 255.9 L 323.7 255.1 L 326.1 254.2 L 328.5 253.4 L 330.8 252.6 L 333.2 251.7 L 335.6 250.9 L 338.0 250.1 L 340.3 249.2 L 342.7 248.4 L 345.1 247.6 L 347.5 246.8 L 349.8 246.0 L 352.2 245.2 L 354.6 244.4 L 357.0 243.6 L 359.3 242.8 L 361.7 242.0 L 364.1 241.3 L 366.5 240.5 L 368.8 239.7 L 371.2 239.0 L 373.6 238.2 L 376.0 237.5 L 378.3 236.8 L 380.7 236.0 L 383.1 235.3 L 385.5 234.6 L 387.8 233.9 L 390.2 233.2 L 392.6 232.5 L 394.9 231.8 L 397.3 231.1 L 399.7 230.5 L 402.1 229.8 L 404.4 229.1 L 406.8 228.5 L 409.2 227.9 L 411.6 227.2 L 413.9 226.6 L 416.3 226.0 L 418.7 225.4 L 421.1 224.8 L 423.4 224.3 L 425.8 223.7 L 428.2 223.2 L 430.6 222.6 L 432.9 222.1 L 435.3 221.6 L 437.7 221.1 L 440.1 220.6 L 442.4 220.1 L 444.8 219.7 L 447.2 219.2 L 449.6 218.8 L 451.9 218.4 L 454.3 218.0 L 456.7 217.6 L 459.1 217.2 L 461.4 216.9 L 463.8 216.5 L 466.2 216.2 L 468.6 215.9 L 470.9 215.7 L 473.3 215.4 L 475.7 215.2 L 478.1 214.9 L 480.4 214.7 L 482.8 214.6 L 485.2 214.4 L 487.6 214.3 L 489.9 214.2 L 492.3 214.1 L 494.7 214.0 L 497.1 214.0 L 499.4 214.0 L 501.8 214.0 L 504.2 214.1 L 506.6 214.2 L 508.9 214.3 L 511.3 214.4 L 513.7 214.6 L 516.1 214.8 L 518.4 215.0 L 520.8 215.3 L 523.2 215.6 L 525.6 215.9 L 527.9 216.3 L 530.3 216.7 L 532.7 217.1 L 535.1 217.6 L 537.4 218.2 L 539.8 218.7 L 542.2 219.3 L 544.5 220.0 L 546.9 220.7 L 549.3 221.4 L 551.7 222.2 L 554.0 223.1 L 556.4 223.9 L 558.8 224.9 L 561.2 225.9 L 563.5 226.9 L 565.9 228.0 L 568.3 229.1 L 570.7 230.4 L 573.0 231.6 L 575.4 232.9 L 577.8 234.3 L 580.2 235.8 L 582.5 237.3 L 584.9 238.8 L 587.3 240.5 L 589.7 242.2 L 592.0 244.0 L 594.4 245.8 L 596.8 247.7 L 599.2 249.7 L 601.5 251.8 L 603.9 254.0 L 606.3 256.2 L 608.7 258.5 L 611.0 260.9 L 613.4 263.4 L 615.8 265.9 L 618.2 268.6 L 620.5 271.3 L 622.9 274.2 L 625.3 277.1 L 627.7 280.1 L 630.0 283.3 L 632.4 286.5 L 634.8 289.8 L 637.2 293.3 L 639.5 296.8 L 641.9 300.5 L 644.3 304.2 L 646.7 308.1 L 649.0 312.1 L 651.4 316.2 L 653.8 320.5 L 656.2 324.8 L 658.5 329.3 L 660.9 334.0 L 663.3 338.7 L 665.7 343.6 L 668.0 348.7 L 670.4 353.8 L 672.8 359.2 L 675.2 364.6 L 677.5 370.3 L 679.9 376.0 L 682.3 382.0 L 684.6 388.1 L 687.0 394.4 L 689.4 400.8 L 691.8 407.4 L 694.1 414.2 L 696.5 421.2 L 698.9 428.3 L 701.3 435.7 L 703.6 443.2 L 706.0 451.0 L 708.4 458.9" fill="none" stroke="#1f4e79" stroke-width="3" opacity="1"/>
<path d="M 110.0 338.8 L 112.4 337.8 L 114.7 336.8 L 117.1 335.8 L 119.5 334.8 L 121.9 333.8 L 124.2 332.7 L 126.6 331.7 L 129.0 330.7 L 131.4 329.7 L 133.7 328.7 L 136.1 327.7 L 138.5 326.7 L 140.9 325.7 L 143.2 324.7 L 145.6 323.7 L 148.0 322.7 L 150.4 321.6 L 152.7 320.6 L 155.1 319.6 L 157.5 318.6 L 159.9 317.6 L 162.2 316.6 L 164.6 315.6 L 167.0 314.6 L 169.4 313.6 L 171.7 312.6 L 174.1 311.6 L 176.5 310.6 L 178.9 309.5 L 181.2 308.5 L 183.6 307.5 L 186.0 306.5 L 188.4 305.5 L 190.7 304.5 L 193.1 303.5 L 195.5 302.5 L 197.9 301.5 L 200.2 300.5 L 202.6 299.5 L 205.0 298.5 L 207.4 297.4 L 209.7 296.4 L 212.1 295.4 L 214.5 294.4 L 216.9 293.4 L 219.2 292.4 L 221.6 291.4 L 224.0 290.4 L 226.4 289.4 L 228.7 288.4 L 231.1 287.4 L 233.5 286.4 L 235.9 285.3 L 238.2 284.3 L 240.6 283.3 L 243.0 282.3 L 245.4 281.3 L 247.7 280.3 L 250.1 279.3 L 252.5 278.3 L 254.8 277.3 L 257.2 276.3 L 259.6 275.3 L 262.0 274.2 L 264.3 273.2 L 266.7 272.2 L 269.1 271.2 L 271.5 270.2 L 273.8 269.2 L 276.2 268.2 L 278.6 267.2 L 281.0 266.2 L 283.3 265.2 L 285.7 264.2 L 288.1 263.2 L 290.5 262.1 L 292.8 261.1 L 295.2 260.1 L 297.6 259.1 L 300.0 258.1 L 302.3 257.1 L 304.7 256.1 L 307.1 255.1 L 309.5 254.1 L 311.8 253.1 L 314.2 252.1 L 316.6 251.1 L 319.0 250.0 L 321.3 249.0 L 323.7 248.0 L 326.1 247.0 L 328.5 246.0 L 330.8 245.0 L 333.2 244.0 L 335.6 243.0 L 338.0 242.0 L 340.3 241.0 L 342.7 240.0 L 345.1 239.0 L 347.5 237.9 L 349.8 236.9 L 352.2 235.9 L 354.6 234.9 L 357.0 233.9 L 359.3 232.9 L 361.7 231.9 L 364.1 230.9 L 366.5 229.9 L 368.8 228.9 L 371.2 227.9 L 373.6 226.9 L 376.0 225.8 L 378.3 224.8 L 380.7 223.8 L 383.1 222.8 L 385.5 221.8 L 387.8 220.8 L 390.2 219.8 L 392.6 218.8 L 394.9 217.8 L 397.3 216.8 L 399.7 215.8 L 402.1 214.7 L 404.4 213.7 L 406.8 212.7 L 409.2 211.7 L 411.6 210.7 L 413.9 209.7 L 416.3 208.7 L 418.7 207.7 L 421.1 206.7 L 423.4 205.7 L 425.8 204.7 L 428.2 203.7 L 430.6 202.6 L 432.9 201.6 L 435.3 200.6 L 437.7 199.6 L 440.1 198.6 L 442.4 197.6 L 444.8 196.6 L 447.2 195.6 L 449.6 194.6 L 451.9 193.6 L 454.3 192.6 L 456.7 191.6 L 459.1 190.5 L 461.4 189.5 L 463.8 188.5 L 466.2 187.5 L 468.6 186.5 L 470.9 185.5 L 473.3 184.5 L 475.7 183.5 L 478.1 182.5 L 480.4 181.5 L 482.8 180.5 L 485.2 179.5 L 487.6 178.4 L 489.9 177.4 L 492.3 176.4 L 494.7 175.4 L 497.1 174.4 L 499.4 173.4 L 501.8 172.4 L 504.2 171.4 L 506.6 170.4 L 508.9 169.4 L 511.3 168.4 L 513.7 167.3 L 516.1 166.3 L 518.4 165.3 L 520.8 164.3 L 523.2 163.3 L 525.6 162.3 L 527.9 161.3 L 530.3 160.3 L 532.7 159.3 L 535.1 158.3 L 537.4 157.3 L 539.8 156.3 L 542.2 155.2 L 544.5 154.2 L 546.9 153.2 L 549.3 152.2 L 551.7 151.2 L 554.0 150.2 L 556.4 149.2 L 558.8 148.2 L 561.2 147.2 L 563.5 146.2 L 565.9 145.2 L 568.3 144.2 L 570.7 143.1 L 573.0 142.1 L 575.4 141.1 L 577.8 140.1 L 580.2 139.1 L 582.5 138.1 L 584.9 137.1 L 587.3 136.1 L 589.7 135.1 L 592.0 134.1 L 594.4 133.1 L 596.8 132.1 L 599.2 131.0 L 601.5 130.0 L 603.9 129.0 L 606.3 128.0 L 608.7 127.0 L 611.0 126.0 L 613.4 125.0 L 615.8 124.0 L 618.2 123.0 L 620.5 122.0 L 622.9 121.0 L 625.3 120.0 L 627.7 118.9 L 630.0 117.9 L 632.4 116.9 L 634.8 115.9 L 637.2 114.9 L 639.5 113.9 L 641.9 112.9 L 644.3 111.9 L 646.7 110.9" fill="none" stroke="#c43f6b" stroke-width="2.2" stroke-dasharray="7,4" opacity="1"/>
<path d="M 110.0 399.0 L 112.4 397.5 L 114.7 396.1 L 117.1 394.6 L 119.5 393.1 L 121.9 391.7 L 124.2 390.2 L 126.6 388.7 L 129.0 387.3 L 131.4 385.8 L 133.7 384.3 L 136.1 382.9 L 138.5 381.4 L 140.9 380.0 L 143.2 378.5 L 145.6 377.1 L 148.0 375.6 L 150.4 374.1 L 152.7 372.7 L 155.1 371.2 L 157.5 369.8 L 159.9 368.3 L 162.2 366.9 L 164.6 365.5 L 167.0 364.0 L 169.4 362.6 L 171.7 361.1 L 174.1 359.7 L 176.5 358.3 L 178.9 356.8 L 181.2 355.4 L 183.6 354.0 L 186.0 352.5 L 188.4 351.1 L 190.7 349.7 L 193.1 348.2 L 195.5 346.8 L 197.9 345.4 L 200.2 344.0 L 202.6 342.6 L 205.0 341.1 L 207.4 339.7 L 209.7 338.3 L 212.1 336.9 L 214.5 335.5 L 216.9 334.1 L 219.2 332.7 L 221.6 331.3 L 224.0 329.9 L 226.4 328.5 L 228.7 327.1 L 231.1 325.7 L 233.5 324.3 L 235.9 323.0 L 238.2 321.6 L 240.6 320.2 L 243.0 318.8 L 245.4 317.5 L 247.7 316.1 L 250.1 314.7 L 252.5 313.4 L 254.8 312.0 L 257.2 310.6 L 259.6 309.3 L 262.0 307.9 L 264.3 306.6 L 266.7 305.3 L 269.1 303.9 L 271.5 302.6 L 273.8 301.3 L 276.2 299.9 L 278.6 298.6 L 281.0 297.3 L 283.3 296.0 L 285.7 294.7 L 288.1 293.4 L 290.5 292.1 L 292.8 290.8 L 295.2 289.5 L 297.6 288.2 L 300.0 286.9 L 302.3 285.6 L 304.7 284.4 L 307.1 283.1 L 309.5 281.8 L 311.8 280.6 L 314.2 279.3 L 316.6 278.1 L 319.0 276.9 L 321.3 275.6 L 323.7 274.4 L 326.1 273.2 L 328.5 272.0 L 330.8 270.8 L 333.2 269.6 L 335.6 268.4 L 338.0 267.2 L 340.3 266.0 L 342.7 264.8 L 345.1 263.7 L 347.5 262.5 L 349.8 261.4 L 352.2 260.2 L 354.6 259.1 L 357.0 258.0 L 359.3 256.9 L 361.7 255.7 L 364.1 254.6 L 366.5 253.6 L 368.8 252.5 L 371.2 251.4 L 373.6 250.3 L 376.0 249.3 L 378.3 248.3 L 380.7 247.2 L 383.1 246.2 L 385.5 245.2 L 387.8 244.2 L 390.2 243.2 L 392.6 242.2 L 394.9 241.3 L 397.3 240.3 L 399.7 239.4 L 402.1 238.4 L 404.4 237.5 L 406.8 236.6 L 409.2 235.7 L 411.6 234.9 L 413.9 234.0 L 416.3 233.2 L 418.7 232.3 L 421.1 231.5 L 423.4 230.7 L 425.8 229.9 L 428.2 229.2 L 430.6 228.4 L 432.9 227.7 L 435.3 226.9 L 437.7 226.2 L 440.1 225.6 L 442.4 224.9 L 444.8 224.2 L 447.2 223.6 L 449.6 223.0 L 451.9 222.4 L 454.3 221.8 L 456.7 221.3 L 459.1 220.7 L 461.4 220.2 L 463.8 219.7 L 466.2 219.3 L 468.6 218.8 L 470.9 218.4 L 473.3 218.0 L 475.7 217.7 L 478.1 217.3 L 480.4 217.0 L 482.8 216.7 L 485.2 216.4 L 487.6 216.2 L 489.9 216.0 L 492.3 215.8 L 494.7 215.6 L 497.1 215.5 L 499.4 215.4 L 501.8 215.3 L 504.2 215.3 L 506.6 215.3 L 508.9 215.3 L 511.3 215.4 L 513.7 215.5 L 516.1 215.6 L 518.4 215.8 L 520.8 216.0 L 523.2 216.3 L 525.6 216.6 L 527.9 216.9 L 530.3 217.2 L 532.7 217.6 L 535.1 218.1 L 537.4 218.6 L 539.8 219.1 L 542.2 219.7 L 544.5 220.3 L 546.9 221.0 L 549.3 221.7 L 551.7 222.5 L 554.0 223.3 L 556.4 224.1 L 558.8 225.1 L 561.2 226.0 L 563.5 227.0 L 565.9 228.1 L 568.3 229.3 L 570.7 230.5 L 573.0 231.7 L 575.4 233.0 L 577.8 234.4 L 580.2 235.8 L 582.5 237.3 L 584.9 238.9 L 587.3 240.5 L 589.7 242.2 L 592.0 244.0 L 594.4 245.9 L 596.8 247.8 L 599.2 249.8 L 601.5 251.8 L 603.9 254.0 L 606.3 256.2 L 608.7 258.5 L 611.0 260.9 L 613.4 263.4 L 615.8 265.9 L 618.2 268.6 L 620.5 271.3 L 622.9 274.2 L 625.3 277.1 L 627.7 280.1 L 630.0 283.3 L 632.4 286.5 L 634.8 289.8 L 637.2 293.3 L 639.5 296.8 L 641.9 300.5 L 644.3 304.2 L 646.7 308.1 L 649.0 312.1 L 651.4 316.2 L 653.8 320.5 L 656.2 324.8 L 658.5 329.3 L 660.9 334.0 L 663.3 338.7 L 665.7 343.6 L 668.0 348.7 L 670.4 353.8 L 672.8 359.2 L 675.2 364.6 L 677.5 370.3 L 679.9 376.0 L 682.3 382.0 L 684.6 388.1 L 687.0 394.4 L 689.4 400.8 L 691.8 407.4 L 694.1 414.2 L 696.5 421.2 L 698.9 428.3 L 701.3 435.7 L 703.6 443.2 L 706.0 451.0 L 708.4 458.9" fill="none" stroke="#d4a017" stroke-width="2" stroke-dasharray="2,3" opacity="1"/>
<line x1="384.45816815103416" y1="460" x2="384.45816815103416" y2="110" stroke="#5a6a7a" stroke-width="1.2" stroke-dasharray="4,4"/>
<text x="384.45816815103416" y="102" text-anchor="middle" font-size="15" fill="#5a6a7a" font-style="italic" font-family="Georgia, 'STIX Two Text', 'Times New Roman', serif">hν = kT</text>
<text x="338.2142857142857" y="188.0769230769231" text-anchor="start" font-size="16" fill="#1f4e79" font-weight="700">観測されるプランク分布</text>
<text x="617.142857142857" y="147.69230769230774" text-anchor="start" font-size="16" fill="#c43f6b" font-weight="700">Rayleigh–Jeans（古典）∝ ν²</text>
<text x="622.2142857142854" y="165.69230769230774" text-anchor="start" font-size="14" fill="#8a1f3e">→ 積分すると発散（紫外線破綻）</text>
<text x="680.5357142857141" y="309.2307692307693" text-anchor="start" font-size="15" fill="#9a7400" font-weight="600">Wien 近似</text>
<text x="148.03571428571436" y="336.1538461538462" text-anchor="start" font-size="14" fill="#5a6a7a">低振動数では古典と一致</text>
<line x1="110" y1="460" x2="820" y2="460" stroke="#0a1929" stroke-width="1.5"/>
<line x1="110" y1="460" x2="110" y2="110" stroke="#0a1929" stroke-width="1.5"/>
<text x="465.0" y="504" text-anchor="middle" font-size="16" fill="#0a1929">振動数 ν [Hz]</text>
<text x="34" y="285.0" text-anchor="middle" font-size="16" fill="#0a1929" transform="rotate(-90 34 285.0)">B<tspan font-size="13">ν</tspan> [erg s⁻¹ cm⁻² Hz⁻¹ sr⁻¹]</text>
<text x="450.0" y="548" text-anchor="middle" font-size="14" fill="#8a99a8">高振動数側の指数減衰には h が必要 ― 等分配（各モード kT）の破れが鍵（第9章 §9.3・第10章）</text>
</svg>
