<?xml version="1.0" encoding="UTF-8"?>
<svg xmlns="http://www.w3.org/2000/svg" viewBox="0 0 900 560" width="900" height="560" font-family="-apple-system, BlinkMacSystemFont, 'Segoe UI', 'Hiragino Sans', 'Noto Sans JP', sans-serif">
<!-- Voigt profile, linear & log panels | Style matched to planck-map.svg | License: CC BY 4.0 -->
<rect width="900" height="560" fill="#fafbfc"/>
<text x="450.0" y="40" text-anchor="middle" font-size="23" font-weight="700" fill="#0a1929" letter-spacing="0.06em">Voigt 線形 ― コアは Gaussian、翼は Lorentzian</text>
<text x="450.0" y="66" text-anchor="middle" font-size="14" fill="#5a6a7a">Doppler（Gaussian）と減衰（Lorentzian）の畳み込み（第22章 §22.4、a = γ/2Δν_D = 0.4）</text>
<text x="260.0" y="108" text-anchor="middle" font-size="13" fill="#0a1929" font-weight="700">線形スケール</text>
<text x="124.0" y="458" text-anchor="middle" font-size="11" fill="#5a6a7a">-4</text>
<text x="192.0" y="458" text-anchor="middle" font-size="11" fill="#5a6a7a">-2</text>
<text x="260.0" y="458" text-anchor="middle" font-size="11" fill="#5a6a7a">0</text>
<text x="328.0" y="458" text-anchor="middle" font-size="11" fill="#5a6a7a">2</text>
<text x="396.0" y="458" text-anchor="middle" font-size="11" fill="#5a6a7a">4</text>
<path d="M 90.0 440.0 L 91.1 440.0 L 92.3 440.0 L 93.4 440.0 L 94.5 440.0 L 95.7 440.0 L 96.8 440.0 L 98.0 440.0 L 99.1 440.0 L 100.2 440.0 L 101.4 440.0 L 102.5 440.0 L 103.6 440.0 L 104.8 440.0 L 105.9 440.0 L 107.1 440.0 L 108.2 440.0 L 109.3 440.0 L 110.5 440.0 L 111.6 440.0 L 112.7 440.0 L 113.9 440.0 L 115.0 440.0 L 116.2 440.0 L 117.3 440.0 L 118.4 440.0 L 119.6 440.0 L 120.7 440.0 L 121.8 440.0 L 123.0 440.0 L 124.1 440.0 L 125.3 440.0 L 126.4 440.0 L 127.5 440.0 L 128.7 440.0 L 129.8 440.0 L 130.9 440.0 L 132.1 440.0 L 133.2 440.0 L 134.3 440.0 L 135.5 440.0 L 136.6 440.0 L 137.8 440.0 L 138.9 440.0 L 140.0 440.0 L 141.2 440.0 L 142.3 440.0 L 143.4 440.0 L 144.6 440.0 L 145.7 440.0 L 146.9 440.0 L 148.0 440.0 L 149.1 440.0 L 150.3 440.0 L 151.4 440.0 L 152.5 440.0 L 153.7 440.0 L 154.8 440.0 L 156.0 440.0 L 157.1 440.0 L 158.2 440.0 L 159.4 440.0 L 160.5 440.0 L 161.6 440.0 L 162.8 439.9 L 163.9 439.9 L 165.1 439.9 L 166.2 439.9 L 167.3 439.9 L 168.5 439.9 L 169.6 439.8 L 170.7 439.8 L 171.9 439.8 L 173.0 439.7 L 174.1 439.7 L 175.3 439.6 L 176.4 439.5 L 177.6 439.4 L 178.7 439.3 L 179.8 439.2 L 181.0 439.1 L 182.1 438.9 L 183.2 438.7 L 184.4 438.5 L 185.5 438.3 L 186.7 438.0 L 187.8 437.7 L 188.9 437.4 L 190.1 437.0 L 191.2 436.6 L 192.3 436.1 L 193.5 435.5 L 194.6 434.9 L 195.8 434.2 L 196.9 433.5 L 198.0 432.6 L 199.2 431.7 L 200.3 430.6 L 201.4 429.4 L 202.6 428.2 L 203.7 426.8 L 204.8 425.2 L 206.0 423.6 L 207.1 421.7 L 208.3 419.8 L 209.4 417.6 L 210.5 415.3 L 211.7 412.8 L 212.8 410.1 L 213.9 407.2 L 215.1 404.2 L 216.2 400.9 L 217.4 397.4 L 218.5 393.8 L 219.6 389.9 L 220.8 385.8 L 221.9 381.5 L 223.0 377.1 L 224.2 372.4 L 225.3 367.5 L 226.5 362.5 L 227.6 357.3 L 228.7 352.0 L 229.9 346.5 L 231.0 340.9 L 232.1 335.2 L 233.3 329.4 L 234.4 323.5 L 235.6 317.7 L 236.7 311.8 L 237.8 305.9 L 239.0 300.1 L 240.1 294.3 L 241.2 288.7 L 242.4 283.2 L 243.5 277.8 L 244.6 272.7 L 245.8 267.7 L 246.9 263.1 L 248.1 258.6 L 249.2 254.5 L 250.3 250.8 L 251.5 247.4 L 252.6 244.3 L 253.7 241.7 L 254.9 239.4 L 256.0 237.6 L 257.2 236.3 L 258.3 235.4 L 259.4 234.9 L 260.6 234.9 L 261.7 235.4 L 262.8 236.3 L 264.0 237.6 L 265.1 239.4 L 266.3 241.7 L 267.4 244.3 L 268.5 247.4 L 269.7 250.8 L 270.8 254.5 L 271.9 258.6 L 273.1 263.1 L 274.2 267.7 L 275.4 272.7 L 276.5 277.8 L 277.6 283.2 L 278.8 288.7 L 279.9 294.3 L 281.0 300.1 L 282.2 305.9 L 283.3 311.8 L 284.4 317.7 L 285.6 323.5 L 286.7 329.4 L 287.9 335.2 L 289.0 340.9 L 290.1 346.5 L 291.3 352.0 L 292.4 357.3 L 293.5 362.5 L 294.7 367.5 L 295.8 372.4 L 297.0 377.1 L 298.1 381.5 L 299.2 385.8 L 300.4 389.9 L 301.5 393.8 L 302.6 397.4 L 303.8 400.9 L 304.9 404.2 L 306.1 407.2 L 307.2 410.1 L 308.3 412.8 L 309.5 415.3 L 310.6 417.6 L 311.7 419.8 L 312.9 421.7 L 314.0 423.6 L 315.2 425.2 L 316.3 426.8 L 317.4 428.2 L 318.6 429.4 L 319.7 430.6 L 320.8 431.7 L 322.0 432.6 L 323.1 433.5 L 324.2 434.2 L 325.4 434.9 L 326.5 435.5 L 327.7 436.1 L 328.8 436.6 L 329.9 437.0 L 331.1 437.4 L 332.2 437.7 L 333.3 438.0 L 334.5 438.3 L 335.6 438.5 L 336.8 438.7 L 337.9 438.9 L 339.0 439.1 L 340.2 439.2 L 341.3 439.3 L 342.4 439.4 L 343.6 439.5 L 344.7 439.6 L 345.9 439.7 L 347.0 439.7 L 348.1 439.8 L 349.3 439.8 L 350.4 439.8 L 351.5 439.9 L 352.7 439.9 L 353.8 439.9 L 354.9 439.9 L 356.1 439.9 L 357.2 439.9 L 358.4 440.0 L 359.5 440.0 L 360.6 440.0 L 361.8 440.0 L 362.9 440.0 L 364.0 440.0 L 365.2 440.0 L 366.3 440.0 L 367.5 440.0 L 368.6 440.0 L 369.7 440.0 L 370.9 440.0 L 372.0 440.0 L 373.1 440.0 L 374.3 440.0 L 375.4 440.0 L 376.6 440.0 L 377.7 440.0 L 378.8 440.0 L 380.0 440.0 L 381.1 440.0 L 382.2 440.0 L 383.4 440.0 L 384.5 440.0 L 385.7 440.0 L 386.8 440.0 L 387.9 440.0 L 389.1 440.0 L 390.2 440.0 L 391.3 440.0 L 392.5 440.0 L 393.6 440.0 L 394.7 440.0 L 395.9 440.0 L 397.0 440.0 L 398.2 440.0 L 399.3 440.0 L 400.4 440.0 L 401.6 440.0 L 402.7 440.0 L 403.8 440.0 L 405.0 440.0 L 406.1 440.0 L 407.3 440.0 L 408.4 440.0 L 409.5 440.0 L 410.7 440.0 L 411.8 440.0 L 412.9 440.0 L 414.1 440.0 L 415.2 440.0 L 416.4 440.0 L 417.5 440.0 L 418.6 440.0 L 419.8 440.0 L 420.9 440.0 L 422.0 440.0 L 423.2 440.0 L 424.3 440.0 L 425.5 440.0 L 426.6 440.0 L 427.7 440.0 L 428.9 440.0 L 430.0 440.0" fill="none" stroke="#1f4e79" stroke-width="2.2" stroke-dasharray="6,4" opacity="1"/>
<path d="M 90.0 438.2 L 91.1 438.1 L 92.3 438.1 L 93.4 438.1 L 94.5 438.1 L 95.7 438.0 L 96.8 438.0 L 98.0 438.0 L 99.1 437.9 L 100.2 437.9 L 101.4 437.9 L 102.5 437.9 L 103.6 437.8 L 104.8 437.8 L 105.9 437.8 L 107.1 437.7 L 108.2 437.7 L 109.3 437.7 L 110.5 437.6 L 111.6 437.6 L 112.7 437.6 L 113.9 437.5 L 115.0 437.5 L 116.2 437.4 L 117.3 437.4 L 118.4 437.4 L 119.6 437.3 L 120.7 437.3 L 121.8 437.2 L 123.0 437.2 L 124.1 437.1 L 125.3 437.1 L 126.4 437.0 L 127.5 437.0 L 128.7 436.9 L 129.8 436.9 L 130.9 436.8 L 132.1 436.8 L 133.2 436.7 L 134.3 436.6 L 135.5 436.6 L 136.6 436.5 L 137.8 436.5 L 138.9 436.4 L 140.0 436.3 L 141.2 436.3 L 142.3 436.2 L 143.4 436.1 L 144.6 436.0 L 145.7 436.0 L 146.9 435.9 L 148.0 435.8 L 149.1 435.7 L 150.3 435.6 L 151.4 435.5 L 152.5 435.4 L 153.7 435.3 L 154.8 435.2 L 156.0 435.1 L 157.1 435.0 L 158.2 434.9 L 159.4 434.8 L 160.5 434.7 L 161.6 434.6 L 162.8 434.4 L 163.9 434.3 L 165.1 434.2 L 166.2 434.0 L 167.3 433.9 L 168.5 433.8 L 169.6 433.6 L 170.7 433.4 L 171.9 433.3 L 173.0 433.1 L 174.1 432.9 L 175.3 432.7 L 176.4 432.5 L 177.6 432.3 L 178.7 432.1 L 179.8 431.9 L 181.0 431.7 L 182.1 431.4 L 183.2 431.2 L 184.4 430.9 L 185.5 430.7 L 186.7 430.4 L 187.8 430.1 L 188.9 429.8 L 190.1 429.5 L 191.2 429.1 L 192.3 428.8 L 193.5 428.4 L 194.6 428.0 L 195.8 427.6 L 196.9 427.2 L 198.0 426.7 L 199.2 426.2 L 200.3 425.7 L 201.4 425.2 L 202.6 424.6 L 203.7 424.0 L 204.8 423.4 L 206.0 422.7 L 207.1 422.0 L 208.3 421.3 L 209.4 420.5 L 210.5 419.7 L 211.7 418.8 L 212.8 417.8 L 213.9 416.8 L 215.1 415.7 L 216.2 414.5 L 217.4 413.3 L 218.5 411.9 L 219.6 410.5 L 220.8 409.0 L 221.9 407.3 L 223.0 405.5 L 224.2 403.5 L 225.3 401.4 L 226.5 399.2 L 227.6 396.7 L 228.7 394.0 L 229.9 391.0 L 231.0 387.8 L 232.1 384.3 L 233.3 380.5 L 234.4 376.2 L 235.6 371.6 L 236.7 366.5 L 237.8 360.9 L 239.0 354.7 L 240.1 347.9 L 241.2 340.3 L 242.4 332.0 L 243.5 322.8 L 244.6 312.8 L 245.8 301.7 L 246.9 289.6 L 248.1 276.6 L 249.2 262.6 L 250.3 247.7 L 251.5 232.3 L 252.6 216.6 L 253.7 201.1 L 254.9 186.5 L 256.0 173.5 L 257.2 162.7 L 258.3 155.1 L 259.4 151.1 L 260.6 151.1 L 261.7 155.1 L 262.8 162.7 L 264.0 173.5 L 265.1 186.5 L 266.3 201.1 L 267.4 216.6 L 268.5 232.3 L 269.7 247.7 L 270.8 262.6 L 271.9 276.6 L 273.1 289.6 L 274.2 301.7 L 275.4 312.8 L 276.5 322.8 L 277.6 332.0 L 278.8 340.3 L 279.9 347.9 L 281.0 354.7 L 282.2 360.9 L 283.3 366.5 L 284.4 371.6 L 285.6 376.2 L 286.7 380.5 L 287.9 384.3 L 289.0 387.8 L 290.1 391.0 L 291.3 394.0 L 292.4 396.7 L 293.5 399.2 L 294.7 401.4 L 295.8 403.5 L 297.0 405.5 L 298.1 407.3 L 299.2 409.0 L 300.4 410.5 L 301.5 411.9 L 302.6 413.3 L 303.8 414.5 L 304.9 415.7 L 306.1 416.8 L 307.2 417.8 L 308.3 418.8 L 309.5 419.7 L 310.6 420.5 L 311.7 421.3 L 312.9 422.0 L 314.0 422.7 L 315.2 423.4 L 316.3 424.0 L 317.4 424.6 L 318.6 425.2 L 319.7 425.7 L 320.8 426.2 L 322.0 426.7 L 323.1 427.2 L 324.2 427.6 L 325.4 428.0 L 326.5 428.4 L 327.7 428.8 L 328.8 429.1 L 329.9 429.5 L 331.1 429.8 L 332.2 430.1 L 333.3 430.4 L 334.5 430.7 L 335.6 430.9 L 336.8 431.2 L 337.9 431.4 L 339.0 431.7 L 340.2 431.9 L 341.3 432.1 L 342.4 432.3 L 343.6 432.5 L 344.7 432.7 L 345.9 432.9 L 347.0 433.1 L 348.1 433.3 L 349.3 433.4 L 350.4 433.6 L 351.5 433.8 L 352.7 433.9 L 353.8 434.0 L 354.9 434.2 L 356.1 434.3 L 357.2 434.4 L 358.4 434.6 L 359.5 434.7 L 360.6 434.8 L 361.8 434.9 L 362.9 435.0 L 364.0 435.1 L 365.2 435.2 L 366.3 435.3 L 367.5 435.4 L 368.6 435.5 L 369.7 435.6 L 370.9 435.7 L 372.0 435.8 L 373.1 435.9 L 374.3 436.0 L 375.4 436.0 L 376.6 436.1 L 377.7 436.2 L 378.8 436.3 L 380.0 436.3 L 381.1 436.4 L 382.2 436.5 L 383.4 436.5 L 384.5 436.6 L 385.7 436.6 L 386.8 436.7 L 387.9 436.8 L 389.1 436.8 L 390.2 436.9 L 391.3 436.9 L 392.5 437.0 L 393.6 437.0 L 394.7 437.1 L 395.9 437.1 L 397.0 437.2 L 398.2 437.2 L 399.3 437.3 L 400.4 437.3 L 401.6 437.4 L 402.7 437.4 L 403.8 437.4 L 405.0 437.5 L 406.1 437.5 L 407.3 437.6 L 408.4 437.6 L 409.5 437.6 L 410.7 437.7 L 411.8 437.7 L 412.9 437.7 L 414.1 437.8 L 415.2 437.8 L 416.4 437.8 L 417.5 437.9 L 418.6 437.9 L 419.8 437.9 L 420.9 437.9 L 422.0 438.0 L 423.2 438.0 L 424.3 438.0 L 425.5 438.1 L 426.6 438.1 L 427.7 438.1 L 428.9 438.1 L 430.0 438.2" fill="none" stroke="#c43f6b" stroke-width="2.2" stroke-dasharray="2,3" opacity="1"/>
<path d="M 90.0 438.0 L 91.1 438.0 L 92.3 438.0 L 93.4 438.0 L 94.5 437.9 L 95.7 437.9 L 96.8 437.9 L 98.0 437.8 L 99.1 437.8 L 100.2 437.8 L 101.4 437.7 L 102.5 437.7 L 103.6 437.7 L 104.8 437.6 L 105.9 437.6 L 107.1 437.5 L 108.2 437.5 L 109.3 437.5 L 110.5 437.4 L 111.6 437.4 L 112.7 437.3 L 113.9 437.3 L 115.0 437.2 L 116.2 437.2 L 117.3 437.1 L 118.4 437.1 L 119.6 437.0 L 120.7 437.0 L 121.8 436.9 L 123.0 436.9 L 124.1 436.8 L 125.3 436.8 L 126.4 436.7 L 127.5 436.6 L 128.7 436.6 L 129.8 436.5 L 130.9 436.4 L 132.1 436.4 L 133.2 436.3 L 134.3 436.2 L 135.5 436.1 L 136.6 436.0 L 137.8 436.0 L 138.9 435.9 L 140.0 435.8 L 141.2 435.7 L 142.3 435.6 L 143.4 435.5 L 144.6 435.4 L 145.7 435.3 L 146.9 435.2 L 148.0 435.0 L 149.1 434.9 L 150.3 434.8 L 151.4 434.7 L 152.5 434.5 L 153.7 434.4 L 154.8 434.2 L 156.0 434.1 L 157.1 433.9 L 158.2 433.8 L 159.4 433.6 L 160.5 433.4 L 161.6 433.2 L 162.8 433.0 L 163.9 432.8 L 165.1 432.6 L 166.2 432.3 L 167.3 432.1 L 168.5 431.8 L 169.6 431.5 L 170.7 431.2 L 171.9 430.9 L 173.0 430.6 L 174.1 430.3 L 175.3 429.9 L 176.4 429.5 L 177.6 429.1 L 178.7 428.7 L 179.8 428.2 L 181.0 427.8 L 182.1 427.2 L 183.2 426.7 L 184.4 426.1 L 185.5 425.5 L 186.7 424.9 L 187.8 424.2 L 188.9 423.5 L 190.1 422.7 L 191.2 421.9 L 192.3 421.1 L 193.5 420.2 L 194.6 419.2 L 195.8 418.2 L 196.9 417.1 L 198.0 416.0 L 199.2 414.8 L 200.3 413.6 L 201.4 412.3 L 202.6 410.9 L 203.7 409.4 L 204.8 407.9 L 206.0 406.3 L 207.1 404.6 L 208.3 402.8 L 209.4 401.0 L 210.5 399.1 L 211.7 397.1 L 212.8 395.0 L 213.9 392.8 L 215.1 390.6 L 216.2 388.3 L 217.4 385.9 L 218.5 383.4 L 219.6 380.9 L 220.8 378.3 L 221.9 375.6 L 223.0 372.9 L 224.2 370.1 L 225.3 367.2 L 226.5 364.4 L 227.6 361.4 L 228.7 358.5 L 229.9 355.5 L 231.0 352.6 L 232.1 349.6 L 233.3 346.6 L 234.4 343.6 L 235.6 340.7 L 236.7 337.8 L 237.8 334.9 L 239.0 332.1 L 240.1 329.3 L 241.2 326.7 L 242.4 324.1 L 243.5 321.6 L 244.6 319.2 L 245.8 317.0 L 246.9 314.9 L 248.1 312.9 L 249.2 311.0 L 250.3 309.4 L 251.5 307.9 L 252.6 306.5 L 253.7 305.4 L 254.9 304.4 L 256.0 303.6 L 257.2 303.0 L 258.3 302.6 L 259.4 302.4 L 260.6 302.4 L 261.7 302.6 L 262.8 303.0 L 264.0 303.6 L 265.1 304.4 L 266.3 305.4 L 267.4 306.5 L 268.5 307.9 L 269.7 309.4 L 270.8 311.0 L 271.9 312.9 L 273.1 314.9 L 274.2 317.0 L 275.4 319.2 L 276.5 321.6 L 277.6 324.1 L 278.8 326.7 L 279.9 329.3 L 281.0 332.1 L 282.2 334.9 L 283.3 337.8 L 284.4 340.7 L 285.6 343.6 L 286.7 346.6 L 287.9 349.6 L 289.0 352.6 L 290.1 355.5 L 291.3 358.5 L 292.4 361.4 L 293.5 364.4 L 294.7 367.2 L 295.8 370.1 L 297.0 372.9 L 298.1 375.6 L 299.2 378.3 L 300.4 380.9 L 301.5 383.4 L 302.6 385.9 L 303.8 388.3 L 304.9 390.6 L 306.1 392.8 L 307.2 395.0 L 308.3 397.1 L 309.5 399.1 L 310.6 401.0 L 311.7 402.8 L 312.9 404.6 L 314.0 406.3 L 315.2 407.9 L 316.3 409.4 L 317.4 410.9 L 318.6 412.3 L 319.7 413.6 L 320.8 414.8 L 322.0 416.0 L 323.1 417.1 L 324.2 418.2 L 325.4 419.2 L 326.5 420.2 L 327.7 421.1 L 328.8 421.9 L 329.9 422.7 L 331.1 423.5 L 332.2 424.2 L 333.3 424.9 L 334.5 425.5 L 335.6 426.1 L 336.8 426.7 L 337.9 427.2 L 339.0 427.8 L 340.2 428.2 L 341.3 428.7 L 342.4 429.1 L 343.6 429.5 L 344.7 429.9 L 345.9 430.3 L 347.0 430.6 L 348.1 430.9 L 349.3 431.2 L 350.4 431.5 L 351.5 431.8 L 352.7 432.1 L 353.8 432.3 L 354.9 432.6 L 356.1 432.8 L 357.2 433.0 L 358.4 433.2 L 359.5 433.4 L 360.6 433.6 L 361.8 433.8 L 362.9 433.9 L 364.0 434.1 L 365.2 434.2 L 366.3 434.4 L 367.5 434.5 L 368.6 434.7 L 369.7 434.8 L 370.9 434.9 L 372.0 435.0 L 373.1 435.2 L 374.3 435.3 L 375.4 435.4 L 376.6 435.5 L 377.7 435.6 L 378.8 435.7 L 380.0 435.8 L 381.1 435.9 L 382.2 436.0 L 383.4 436.0 L 384.5 436.1 L 385.7 436.2 L 386.8 436.3 L 387.9 436.4 L 389.1 436.4 L 390.2 436.5 L 391.3 436.6 L 392.5 436.6 L 393.6 436.7 L 394.7 436.8 L 395.9 436.8 L 397.0 436.9 L 398.2 436.9 L 399.3 437.0 L 400.4 437.0 L 401.6 437.1 L 402.7 437.1 L 403.8 437.2 L 405.0 437.2 L 406.1 437.3 L 407.3 437.3 L 408.4 437.4 L 409.5 437.4 L 410.7 437.5 L 411.8 437.5 L 412.9 437.5 L 414.1 437.6 L 415.2 437.6 L 416.4 437.7 L 417.5 437.7 L 418.6 437.7 L 419.8 437.8 L 420.9 437.8 L 422.0 437.8 L 423.2 437.9 L 424.3 437.9 L 425.5 437.9 L 426.6 438.0 L 427.7 438.0 L 428.9 438.0 L 430.0 438.0" fill="none" stroke="#0a1929" stroke-width="3" opacity="1"/>
<line x1="90" y1="440" x2="430" y2="440" stroke="#0a1929" stroke-width="1.5"/>
<line x1="90" y1="440" x2="90" y2="120" stroke="#0a1929" stroke-width="1.5"/>
<text x="260.0" y="482" text-anchor="middle" font-size="12.5" fill="#0a1929" font-style="italic" font-family="Georgia, 'STIX Two Text', 'Times New Roman', serif">x = (ν − ν₀) / Δν_D</text>
<text x="197.1" y="294.5454545454545" text-anchor="middle" font-size="12" fill="#1f4e79" font-weight="700">Gaussian</text>
<text x="314.4" y="341.8181818181818" text-anchor="start" font-size="13" fill="#0a1929" font-weight="700">Voigt</text>
<text x="144.4" y="392.72727272727275" text-anchor="middle" font-size="12" fill="#c43f6b" font-weight="700">Lorentzian</text>
<text x="275.3" y="138.1818181818182" text-anchor="start" font-size="10.5" fill="#c43f6b">← Lorentz の鋭いピーク</text>
<text x="685.0" y="108" text-anchor="middle" font-size="13" fill="#0a1929" font-weight="700">対数スケール（片側）</text>
<text x="510.0" y="458" text-anchor="middle" font-size="11" fill="#5a6a7a">0</text>
<text x="580.0" y="458" text-anchor="middle" font-size="11" fill="#5a6a7a">2</text>
<text x="650.0" y="458" text-anchor="middle" font-size="11" fill="#5a6a7a">4</text>
<text x="720.0" y="458" text-anchor="middle" font-size="11" fill="#5a6a7a">6</text>
<text x="790.0" y="458" text-anchor="middle" font-size="11" fill="#5a6a7a">8</text>
<text x="860.0" y="458" text-anchor="middle" font-size="11" fill="#5a6a7a">10</text>
<line x1="510" y1="440.0" x2="860" y2="440.0" stroke="#e3e9f0" stroke-width="1"/>
<text x="502" y="444.0" text-anchor="end" font-size="10.5" fill="#5a6a7a">10<tspan font-size="8" dy="-4">-6</tspan></text>
<line x1="510" y1="338.41269841269843" x2="860" y2="338.41269841269843" stroke="#e3e9f0" stroke-width="1"/>
<text x="502" y="342.41269841269843" text-anchor="end" font-size="10.5" fill="#5a6a7a">10<tspan font-size="8" dy="-4">-4</tspan></text>
<line x1="510" y1="236.82539682539684" x2="860" y2="236.82539682539684" stroke="#e3e9f0" stroke-width="1"/>
<text x="502" y="240.82539682539684" text-anchor="end" font-size="10.5" fill="#5a6a7a">10<tspan font-size="8" dy="-4">-2</tspan></text>
<line x1="510" y1="135.23809523809524" x2="860" y2="135.23809523809524" stroke="#e3e9f0" stroke-width="1"/>
<text x="502" y="139.23809523809524" text-anchor="end" font-size="10.5" fill="#5a6a7a">10<tspan font-size="8" dy="-4">0</tspan></text>
<rect x="510.0" y="120" width="105.0" height="320" fill="#1f4e79" fill-opacity="0.07"/>
<rect x="650.0" y="120" width="210.0" height="320" fill="#c43f6b" fill-opacity="0.07"/>
<text x="562.5" y="142" text-anchor="middle" font-size="11.5" fill="#1f4e79" font-weight="700">コア：Doppler 支配</text>
<text x="562.5" y="158" text-anchor="middle" font-size="10.5" fill="#5a6a7a">→ 温度・乱流</text>
<text x="755.0" y="142" text-anchor="middle" font-size="11.5" fill="#8a1f3e" font-weight="700">翼：Lorentz 支配 ∝ 1/x²</text>
<text x="755.0" y="158" text-anchor="middle" font-size="10.5" fill="#5a6a7a">→ 密度・圧力（減衰幅）</text>
<path d="M 510.0 147.9 L 510.9 147.9 L 511.8 147.9 L 512.6 148.0 L 513.5 148.1 L 514.4 148.2 L 515.3 148.4 L 516.1 148.5 L 517.0 148.8 L 517.9 149.0 L 518.8 149.2 L 519.6 149.5 L 520.5 149.9 L 521.4 150.2 L 522.3 150.6 L 523.2 151.0 L 524.0 151.4 L 524.9 151.9 L 525.8 152.4 L 526.7 152.9 L 527.5 153.4 L 528.4 154.0 L 529.3 154.6 L 530.2 155.2 L 531.1 155.8 L 531.9 156.5 L 532.8 157.2 L 533.7 158.0 L 534.6 158.7 L 535.4 159.5 L 536.3 160.3 L 537.2 161.2 L 538.1 162.1 L 538.9 163.0 L 539.8 163.9 L 540.7 164.8 L 541.6 165.8 L 542.5 166.8 L 543.3 167.9 L 544.2 168.9 L 545.1 170.0 L 546.0 171.2 L 546.8 172.3 L 547.7 173.5 L 548.6 174.7 L 549.5 175.9 L 550.4 177.2 L 551.2 178.5 L 552.1 179.8 L 553.0 181.1 L 553.9 182.5 L 554.7 183.9 L 555.6 185.3 L 556.5 186.8 L 557.4 188.3 L 558.2 189.8 L 559.1 191.3 L 560.0 192.9 L 560.9 194.5 L 561.8 196.1 L 562.6 197.7 L 563.5 199.4 L 564.4 201.1 L 565.3 202.9 L 566.1 204.6 L 567.0 206.4 L 567.9 208.2 L 568.8 210.1 L 569.6 211.9 L 570.5 213.8 L 571.4 215.8 L 572.3 217.7 L 573.2 219.7 L 574.0 221.7 L 574.9 223.7 L 575.8 225.8 L 576.7 227.9 L 577.5 230.0 L 578.4 232.2 L 579.3 234.3 L 580.2 236.5 L 581.1 238.8 L 581.9 241.0 L 582.8 243.3 L 583.7 245.6 L 584.6 248.0 L 585.4 250.3 L 586.3 252.7 L 587.2 255.2 L 588.1 257.6 L 588.9 260.1 L 589.8 262.6 L 590.7 265.1 L 591.6 267.7 L 592.5 270.3 L 593.3 272.9 L 594.2 275.6 L 595.1 278.2 L 596.0 280.9 L 596.8 283.7 L 597.7 286.4 L 598.6 289.2 L 599.5 292.0 L 600.4 294.9 L 601.2 297.7 L 602.1 300.6 L 603.0 303.6 L 603.9 306.5 L 604.7 309.5 L 605.6 312.5 L 606.5 315.5 L 607.4 318.6 L 608.2 321.7 L 609.1 324.8 L 610.0 327.9 L 610.9 331.1 L 611.8 334.3 L 612.6 337.5 L 613.5 340.8 L 614.4 344.1 L 615.3 347.4 L 616.1 350.7 L 617.0 354.1 L 617.9 357.5 L 618.8 360.9 L 619.6 364.4 L 620.5 367.8 L 621.4 371.4 L 622.3 374.9 L 623.2 378.4 L 624.0 382.0 L 624.9 385.6 L 625.8 389.3 L 626.7 393.0 L 627.5 396.7 L 628.4 400.4 L 629.3 404.1 L 630.2 407.9 L 631.1 411.7 L 631.9 415.6 L 632.8 419.4 L 633.7 423.3" fill="none" stroke="#1f4e79" stroke-width="2.2" stroke-dasharray="6,4" opacity="1"/>
<path d="M 510.0 140.3 L 510.9 140.4 L 511.8 140.6 L 512.6 141.0 L 513.5 141.6 L 514.4 142.3 L 515.3 143.2 L 516.1 144.2 L 517.0 145.2 L 517.9 146.4 L 518.8 147.6 L 519.6 148.9 L 520.5 150.2 L 521.4 151.5 L 522.3 152.9 L 523.2 154.2 L 524.0 155.6 L 524.9 157.0 L 525.8 158.4 L 526.7 159.7 L 527.5 161.1 L 528.4 162.4 L 529.3 163.8 L 530.2 165.1 L 531.1 166.4 L 531.9 167.6 L 532.8 168.9 L 533.7 170.1 L 534.6 171.3 L 535.4 172.5 L 536.3 173.6 L 537.2 174.8 L 538.1 175.9 L 538.9 177.0 L 539.8 178.0 L 540.7 179.1 L 541.6 180.1 L 542.5 181.1 L 543.3 182.1 L 544.2 183.1 L 545.1 184.1 L 546.0 185.0 L 546.8 185.9 L 547.7 186.9 L 548.6 187.7 L 549.5 188.6 L 550.4 189.5 L 551.2 190.3 L 552.1 191.2 L 553.0 192.0 L 553.9 192.8 L 554.7 193.6 L 555.6 194.4 L 556.5 195.1 L 557.4 195.9 L 558.2 196.6 L 559.1 197.4 L 560.0 198.1 L 560.9 198.8 L 561.8 199.5 L 562.6 200.2 L 563.5 200.9 L 564.4 201.6 L 565.3 202.2 L 566.1 202.9 L 567.0 203.5 L 567.9 204.2 L 568.8 204.8 L 569.6 205.4 L 570.5 206.0 L 571.4 206.6 L 572.3 207.2 L 573.2 207.8 L 574.0 208.4 L 574.9 209.0 L 575.8 209.5 L 576.7 210.1 L 577.5 210.6 L 578.4 211.2 L 579.3 211.7 L 580.2 212.3 L 581.1 212.8 L 581.9 213.3 L 582.8 213.8 L 583.7 214.3 L 584.6 214.8 L 585.4 215.3 L 586.3 215.8 L 587.2 216.3 L 588.1 216.8 L 588.9 217.3 L 589.8 217.7 L 590.7 218.2 L 591.6 218.7 L 592.5 219.1 L 593.3 219.6 L 594.2 220.0 L 595.1 220.5 L 596.0 220.9 L 596.8 221.4 L 597.7 221.8 L 598.6 222.2 L 599.5 222.6 L 600.4 223.1 L 601.2 223.5 L 602.1 223.9 L 603.0 224.3 L 603.9 224.7 L 604.7 225.1 L 605.6 225.5 L 606.5 225.9 L 607.4 226.3 L 608.2 226.7 L 609.1 227.1 L 610.0 227.4 L 610.9 227.8 L 611.8 228.2 L 612.6 228.6 L 613.5 228.9 L 614.4 229.3 L 615.3 229.7 L 616.1 230.0 L 617.0 230.4 L 617.9 230.7 L 618.8 231.1 L 619.6 231.4 L 620.5 231.8 L 621.4 232.1 L 622.3 232.5 L 623.2 232.8 L 624.0 233.1 L 624.9 233.5 L 625.8 233.8 L 626.7 234.1 L 627.5 234.5 L 628.4 234.8 L 629.3 235.1 L 630.2 235.4 L 631.1 235.7 L 631.9 236.1 L 632.8 236.4 L 633.7 236.7 L 634.6 237.0 L 635.4 237.3 L 636.3 237.6 L 637.2 237.9 L 638.1 238.2 L 638.9 238.5 L 639.8 238.8 L 640.7 239.1 L 641.6 239.4 L 642.5 239.7 L 643.3 240.0 L 644.2 240.2 L 645.1 240.5 L 646.0 240.8 L 646.8 241.1 L 647.7 241.4 L 648.6 241.6 L 649.5 241.9 L 650.4 242.2 L 651.2 242.5 L 652.1 242.7 L 653.0 243.0 L 653.9 243.3 L 654.7 243.5 L 655.6 243.8 L 656.5 244.1 L 657.4 244.3 L 658.2 244.6 L 659.1 244.8 L 660.0 245.1 L 660.9 245.4 L 661.8 245.6 L 662.6 245.9 L 663.5 246.1 L 664.4 246.4 L 665.3 246.6 L 666.1 246.9 L 667.0 247.1 L 667.9 247.3 L 668.8 247.6 L 669.6 247.8 L 670.5 248.1 L 671.4 248.3 L 672.3 248.5 L 673.2 248.8 L 674.0 249.0 L 674.9 249.2 L 675.8 249.5 L 676.7 249.7 L 677.5 249.9 L 678.4 250.2 L 679.3 250.4 L 680.2 250.6 L 681.1 250.9 L 681.9 251.1 L 682.8 251.3 L 683.7 251.5 L 684.6 251.7 L 685.4 252.0 L 686.3 252.2 L 687.2 252.4 L 688.1 252.6 L 688.9 252.8 L 689.8 253.0 L 690.7 253.3 L 691.6 253.5 L 692.5 253.7 L 693.3 253.9 L 694.2 254.1 L 695.1 254.3 L 696.0 254.5 L 696.8 254.7 L 697.7 254.9 L 698.6 255.1 L 699.5 255.3 L 700.4 255.5 L 701.2 255.7 L 702.1 255.9 L 703.0 256.1 L 703.9 256.3 L 704.7 256.5 L 705.6 256.7 L 706.5 256.9 L 707.4 257.1 L 708.2 257.3 L 709.1 257.5 L 710.0 257.7 L 710.9 257.9 L 711.8 258.1 L 712.6 258.3 L 713.5 258.5 L 714.4 258.7 L 715.3 258.8 L 716.1 259.0 L 717.0 259.2 L 717.9 259.4 L 718.8 259.6 L 719.6 259.8 L 720.5 260.0 L 721.4 260.1 L 722.3 260.3 L 723.2 260.5 L 724.0 260.7 L 724.9 260.9 L 725.8 261.0 L 726.7 261.2 L 727.5 261.4 L 728.4 261.6 L 729.3 261.8 L 730.2 261.9 L 731.1 262.1 L 731.9 262.3 L 732.8 262.5 L 733.7 262.6 L 734.6 262.8 L 735.4 263.0 L 736.3 263.1 L 737.2 263.3 L 738.1 263.5 L 738.9 263.6 L 739.8 263.8 L 740.7 264.0 L 741.6 264.1 L 742.5 264.3 L 743.3 264.5 L 744.2 264.6 L 745.1 264.8 L 746.0 265.0 L 746.8 265.1 L 747.7 265.3 L 748.6 265.5 L 749.5 265.6 L 750.4 265.8 L 751.2 265.9 L 752.1 266.1 L 753.0 266.3 L 753.9 266.4 L 754.7 266.6 L 755.6 266.7 L 756.5 266.9 L 757.4 267.0 L 758.2 267.2 L 759.1 267.4 L 760.0 267.5 L 760.9 267.7 L 761.8 267.8 L 762.6 268.0 L 763.5 268.1 L 764.4 268.3 L 765.3 268.4 L 766.1 268.6 L 767.0 268.7 L 767.9 268.9 L 768.8 269.0 L 769.6 269.2 L 770.5 269.3 L 771.4 269.5 L 772.3 269.6 L 773.2 269.8 L 774.0 269.9 L 774.9 270.1 L 775.8 270.2 L 776.7 270.4 L 777.5 270.5 L 778.4 270.6 L 779.3 270.8 L 780.2 270.9 L 781.1 271.1 L 781.9 271.2 L 782.8 271.4 L 783.7 271.5 L 784.6 271.6 L 785.4 271.8 L 786.3 271.9 L 787.2 272.1 L 788.1 272.2 L 788.9 272.3 L 789.8 272.5 L 790.7 272.6 L 791.6 272.7 L 792.5 272.9 L 793.3 273.0 L 794.2 273.2 L 795.1 273.3 L 796.0 273.4 L 796.8 273.6 L 797.7 273.7 L 798.6 273.8 L 799.5 274.0 L 800.4 274.1 L 801.2 274.2 L 802.1 274.4 L 803.0 274.5 L 803.9 274.6 L 804.7 274.8 L 805.6 274.9 L 806.5 275.0 L 807.4 275.1 L 808.2 275.3 L 809.1 275.4 L 810.0 275.5 L 810.9 275.7 L 811.8 275.8 L 812.6 275.9 L 813.5 276.0 L 814.4 276.2 L 815.3 276.3 L 816.1 276.4 L 817.0 276.6 L 817.9 276.7 L 818.8 276.8 L 819.6 276.9 L 820.5 277.1 L 821.4 277.2 L 822.3 277.3 L 823.2 277.4 L 824.0 277.6 L 824.9 277.7 L 825.8 277.8 L 826.7 277.9 L 827.5 278.0 L 828.4 278.2 L 829.3 278.3 L 830.2 278.4 L 831.1 278.5 L 831.9 278.6 L 832.8 278.8 L 833.7 278.9 L 834.6 279.0 L 835.4 279.1 L 836.3 279.2 L 837.2 279.4 L 838.1 279.5 L 838.9 279.6 L 839.8 279.7 L 840.7 279.8 L 841.6 279.9 L 842.5 280.1 L 843.3 280.2 L 844.2 280.3 L 845.1 280.4 L 846.0 280.5 L 846.8 280.6 L 847.7 280.8 L 848.6 280.9 L 849.5 281.0 L 850.4 281.1 L 851.2 281.2 L 852.1 281.3 L 853.0 281.4 L 853.9 281.5 L 854.7 281.7 L 855.6 281.8 L 856.5 281.9 L 857.4 282.0 L 858.2 282.1 L 859.1 282.2 L 860.0 282.3" fill="none" stroke="#c43f6b" stroke-width="2.2" stroke-dasharray="2,3" opacity="1"/>
<path d="M 510.0 156.7 L 510.9 156.7 L 511.8 156.7 L 512.6 156.8 L 513.5 156.8 L 514.4 156.9 L 515.3 157.0 L 516.1 157.1 L 517.0 157.2 L 517.9 157.4 L 518.8 157.6 L 519.6 157.8 L 520.5 158.0 L 521.4 158.2 L 522.3 158.4 L 523.2 158.7 L 524.0 159.0 L 524.9 159.2 L 525.8 159.5 L 526.7 159.9 L 527.5 160.2 L 528.4 160.6 L 529.3 160.9 L 530.2 161.3 L 531.1 161.7 L 531.9 162.2 L 532.8 162.6 L 533.7 163.1 L 534.6 163.5 L 535.4 164.0 L 536.3 164.5 L 537.2 165.0 L 538.1 165.6 L 538.9 166.1 L 539.8 166.7 L 540.7 167.2 L 541.6 167.8 L 542.5 168.4 L 543.3 169.0 L 544.2 169.6 L 545.1 170.3 L 546.0 170.9 L 546.8 171.6 L 547.7 172.3 L 548.6 172.9 L 549.5 173.6 L 550.4 174.3 L 551.2 175.0 L 552.1 175.8 L 553.0 176.5 L 553.9 177.2 L 554.7 178.0 L 555.6 178.7 L 556.5 179.5 L 557.4 180.3 L 558.2 181.0 L 559.1 181.8 L 560.0 182.6 L 560.9 183.4 L 561.8 184.2 L 562.6 185.0 L 563.5 185.8 L 564.4 186.6 L 565.3 187.4 L 566.1 188.2 L 567.0 189.0 L 567.9 189.8 L 568.8 190.6 L 569.6 191.4 L 570.5 192.2 L 571.4 193.0 L 572.3 193.8 L 573.2 194.6 L 574.0 195.4 L 574.9 196.2 L 575.8 197.0 L 576.7 197.8 L 577.5 198.6 L 578.4 199.4 L 579.3 200.1 L 580.2 200.9 L 581.1 201.7 L 581.9 202.4 L 582.8 203.2 L 583.7 203.9 L 584.6 204.6 L 585.4 205.4 L 586.3 206.1 L 587.2 206.8 L 588.1 207.5 L 588.9 208.2 L 589.8 208.9 L 590.7 209.5 L 591.6 210.2 L 592.5 210.9 L 593.3 211.5 L 594.2 212.2 L 595.1 212.8 L 596.0 213.4 L 596.8 214.0 L 597.7 214.6 L 598.6 215.2 L 599.5 215.8 L 600.4 216.4 L 601.2 217.0 L 602.1 217.6 L 603.0 218.1 L 603.9 218.7 L 604.7 219.2 L 605.6 219.7 L 606.5 220.3 L 607.4 220.8 L 608.2 221.3 L 609.1 221.8 L 610.0 222.3 L 610.9 222.8 L 611.8 223.3 L 612.6 223.8 L 613.5 224.2 L 614.4 224.7 L 615.3 225.1 L 616.1 225.6 L 617.0 226.1 L 617.9 226.5 L 618.8 226.9 L 619.6 227.4 L 620.5 227.8 L 621.4 228.2 L 622.3 228.6 L 623.2 229.0 L 624.0 229.4 L 624.9 229.8 L 625.8 230.2 L 626.7 230.6 L 627.5 231.0 L 628.4 231.4 L 629.3 231.8 L 630.2 232.2 L 631.1 232.5 L 631.9 232.9 L 632.8 233.3 L 633.7 233.6 L 634.6 234.0 L 635.4 234.3 L 636.3 234.7 L 637.2 235.0 L 638.1 235.4 L 638.9 235.7 L 639.8 236.1 L 640.7 236.4 L 641.6 236.7 L 642.5 237.1 L 643.3 237.4 L 644.2 237.7 L 645.1 238.0 L 646.0 238.4 L 646.8 238.7 L 647.7 239.0 L 648.6 239.3 L 649.5 239.6 L 650.4 239.9 L 651.2 240.2 L 652.1 240.5 L 653.0 240.8 L 653.9 241.1 L 654.7 241.4 L 655.6 241.7 L 656.5 242.0 L 657.4 242.3 L 658.2 242.6 L 659.1 242.9 L 660.0 243.1 L 660.9 243.4 L 661.8 243.7 L 662.6 244.0 L 663.5 244.2 L 664.4 244.5 L 665.3 244.8 L 666.1 245.1 L 667.0 245.3 L 667.9 245.6 L 668.8 245.9 L 669.6 246.1 L 670.5 246.4 L 671.4 246.6 L 672.3 246.9 L 673.2 247.1 L 674.0 247.4 L 674.9 247.7 L 675.8 247.9 L 676.7 248.2 L 677.5 248.4 L 678.4 248.6 L 679.3 248.9 L 680.2 249.1 L 681.1 249.4 L 681.9 249.6 L 682.8 249.9 L 683.7 250.1 L 684.6 250.3 L 685.4 250.6 L 686.3 250.8 L 687.2 251.0 L 688.1 251.3 L 688.9 251.5 L 689.8 251.7 L 690.7 251.9 L 691.6 252.2 L 692.5 252.4 L 693.3 252.6 L 694.2 252.8 L 695.1 253.1 L 696.0 253.3 L 696.8 253.5 L 697.7 253.7 L 698.6 253.9 L 699.5 254.1 L 700.4 254.4 L 701.2 254.6 L 702.1 254.8 L 703.0 255.0 L 703.9 255.2 L 704.7 255.4 L 705.6 255.6 L 706.5 255.8 L 707.4 256.0 L 708.2 256.2 L 709.1 256.4 L 710.0 256.6 L 710.9 256.8 L 711.8 257.1 L 712.6 257.3 L 713.5 257.4 L 714.4 257.6 L 715.3 257.8 L 716.1 258.0 L 717.0 258.2 L 717.9 258.4 L 718.8 258.6 L 719.6 258.8 L 720.5 259.0 L 721.4 259.2 L 722.3 259.4 L 723.2 259.6 L 724.0 259.8 L 724.9 260.0 L 725.8 260.1 L 726.7 260.3 L 727.5 260.5 L 728.4 260.7 L 729.3 260.9 L 730.2 261.1 L 731.1 261.2 L 731.9 261.4 L 732.8 261.6 L 733.7 261.8 L 734.6 262.0 L 735.4 262.1 L 736.3 262.3 L 737.2 262.5 L 738.1 262.7 L 738.9 262.8 L 739.8 263.0 L 740.7 263.2 L 741.6 263.4 L 742.5 263.5 L 743.3 263.7 L 744.2 263.9 L 745.1 264.1 L 746.0 264.2 L 746.8 264.4 L 747.7 264.6 L 748.6 264.7 L 749.5 264.9 L 750.4 265.1 L 751.2 265.2 L 752.1 265.4 L 753.0 265.6 L 753.9 265.7 L 754.7 265.9 L 755.6 266.0 L 756.5 266.2 L 757.4 266.4 L 758.2 266.5 L 759.1 266.7 L 760.0 266.8 L 760.9 267.0 L 761.8 267.2 L 762.6 267.3 L 763.5 267.5 L 764.4 267.6 L 765.3 267.8 L 766.1 267.9 L 767.0 268.1 L 767.9 268.3 L 768.8 268.4 L 769.6 268.6 L 770.5 268.7 L 771.4 268.9 L 772.3 269.0 L 773.2 269.2 L 774.0 269.3 L 774.9 269.5 L 775.8 269.6 L 776.7 269.8 L 777.5 269.9 L 778.4 270.1 L 779.3 270.2 L 780.2 270.4 L 781.1 270.5 L 781.9 270.7 L 782.8 270.8 L 783.7 270.9 L 784.6 271.1 L 785.4 271.2 L 786.3 271.4 L 787.2 271.5 L 788.1 271.7 L 788.9 271.8 L 789.8 271.9 L 790.7 272.1 L 791.6 272.2 L 792.5 272.4 L 793.3 272.5 L 794.2 272.6 L 795.1 272.8 L 796.0 272.9 L 796.8 273.1 L 797.7 273.2 L 798.6 273.3 L 799.5 273.5 L 800.4 273.6 L 801.2 273.7 L 802.1 273.9 L 803.0 274.0 L 803.9 274.1 L 804.7 274.3 L 805.6 274.4 L 806.5 274.5 L 807.4 274.7 L 808.2 274.8 L 809.1 274.9 L 810.0 275.1 L 810.9 275.2 L 811.8 275.3 L 812.6 275.5 L 813.5 275.6 L 814.4 275.7 L 815.3 275.9 L 816.1 276.0 L 817.0 276.1 L 817.9 276.2 L 818.8 276.4 L 819.6 276.5 L 820.5 276.6 L 821.4 276.8 L 822.3 276.9 L 823.2 277.0 L 824.0 277.1 L 824.9 277.3 L 825.8 277.4 L 826.7 277.5 L 827.5 277.6 L 828.4 277.8 L 829.3 277.9 L 830.2 278.0 L 831.1 278.1 L 831.9 278.2 L 832.8 278.4 L 833.7 278.5 L 834.6 278.6 L 835.4 278.7 L 836.3 278.9 L 837.2 279.0 L 838.1 279.1 L 838.9 279.2 L 839.8 279.3 L 840.7 279.5 L 841.6 279.6 L 842.5 279.7 L 843.3 279.8 L 844.2 279.9 L 845.1 280.0 L 846.0 280.2 L 846.8 280.3 L 847.7 280.4 L 848.6 280.5 L 849.5 280.6 L 850.4 280.7 L 851.2 280.9 L 852.1 281.0 L 853.0 281.1 L 853.9 281.2 L 854.7 281.3 L 855.6 281.4 L 856.5 281.5 L 857.4 281.7 L 858.2 281.8 L 859.1 281.9 L 860.0 282.0" fill="none" stroke="#0a1929" stroke-width="3" opacity="1"/>
<line x1="510" y1="440" x2="860" y2="440" stroke="#0a1929" stroke-width="1.5"/>
<line x1="510" y1="440" x2="510" y2="120" stroke="#0a1929" stroke-width="1.5"/>
<text x="685.0" y="482" text-anchor="middle" font-size="12.5" fill="#0a1929" font-style="italic" font-family="Georgia, 'STIX Two Text', 'Times New Roman', serif">x = (ν − ν₀) / Δν_D</text>
<text x="450.0" y="548" text-anchor="middle" font-size="11" fill="#8a99a8">コアと翼を同時にフィットすると、温度（Doppler 幅）と密度（減衰幅）が独立に決まる ― §22.4 の「問い」</text>
</svg>
